<?xml version="1.0" encoding="UTF-8"?>
<svg id="_圖層_2" data-name="圖層 2" xmlns="http://www.w3.org/2000/svg" viewBox="0 0 723.21 540.03">
  <defs>
    <style>
      .cls-1 {
        fill: #fff;
      }

      .cls-2 {
        fill: #fff691;
      }
    </style>
  </defs>
  <g id="_圖層_1-2" data-name="圖層 1">
    <g>
      <path class="cls-1" d="M152.92,101.76s14.83,11.31,23.73,19.09c-.55,2.04-2.6,2.96-5.19,2.96h-71.55v46.15c-.18,1.11-7.05,5.19-18.72,5.19h-4.27v-51.34H4.08l-1.48-5.38h74.33v-29.1h-27.43v7.41c0,2.41-9.45,7.42-18.72,7.42h-3.52V6.67l23.73,9.45h75.44l10.57-11.68,21.13,16.68c-.93,1.48-3.34,3.15-7.23,3.89v69.51c-.18,1.48-11.31,5.75-18.91,5.75h-3.71v-10.94h-28.36v29.1h39.85l13.16-16.68ZM49.49,21.32v28.17h78.78v-28.17H49.49ZM128.27,84.34v-29.66H49.49v29.66h78.78Z"/>
      <path class="cls-1" d="M210.18,124.37c9.27,22.98,1.3,38.74-8.9,43.19-6.86,3.15-15.2.74-17.24-6.3-1.86-7.23,2.78-12.23,8.9-14.83,7.23-2.97,15.01-11.49,14.83-21.87l2.41-.19ZM233.9,94.53v15.76h90.83l10.75-10.38,19.09,15.94c-1.48,1.48-3.71,2.59-7.41,3.15-2.6,28.73-7.23,44.49-16.31,50.79-5.75,3.89-12.79,5.56-22.43,5.56,0-5.75-.74-10.94-3.52-13.72-2.78-3.15-8.52-5.56-15.38-6.86v-2.41c6.49.56,17.79,1.3,21.5,1.3,2.97,0,4.45-.37,5.93-1.67,4.08-2.96,7.23-15.76,9.27-36.51h-92.5c-1.11,2.59-9.82,6.86-18.35,6.86h-3.34V15.38l23.17,9.27h19.28c1.11-7.04,2.6-17.42,3.52-24.65l32.07,5.19c-.74,3.15-3.34,4.63-7.41,4.82-4.64,4.08-11.86,10.19-17.24,14.64h34.85l10.2-11.12,21.13,15.94c-1.11,1.48-3.71,3.34-7.6,4.08v41.52c-.18,1.67-10.75,5.75-18.17,5.75h-3.71v-7.6h-68.21v15.94h89.9l12.23-15.01s13.72,10.38,22.06,17.42c-.56,2.04-2.41,2.97-5.19,2.97h-119ZM228.9,124.74c35.77,22.8,11.12,52.09-2.41,34.11,2.78-11.12,2.41-23.91.18-33.36l2.23-.74ZM233.9,29.84v15.94h68.21v-15.94h-68.21ZM302.11,67.84v-16.68h-68.21v16.68h68.21ZM252.81,123.08c44.3,12.98,25.39,46.71,8.9,32.07-.18-10.57-5.38-22.8-10.75-30.95l1.85-1.11ZM279.69,119.92c43.93.19,32.25,33.92,14.64,24.1-2.04-8.34-9.45-17.61-16.13-22.8l1.48-1.3Z"/>
      <path class="cls-1" d="M523.97,75.25s11.12,10.19,17.79,17.05c-.37,2.04-2.41,2.96-5,2.96h-25.58v40.78c-.18,1.48-10.94,5.56-18.17,5.56h-3.7v-13.72h-28.36v22.06c0,14.09-4.08,23.17-31.7,25.02-.55-6.3-2.04-11.12-5.93-14.09-3.89-2.97-9.08-5.38-21.69-7.23v-2.41s27.25,1.85,32.62,1.85c3.34,0,4.45-1.48,4.45-3.71v-21.5h-54.86l-1.67-5.19h56.53v-27.43h-71.92l-1.48-5.38h73.4v-23.73h-53.2l-1.67-5.38h103.8l9.83-10.75,20.39,15.76c-1.11,1.3-3.34,2.78-6.67,3.34v20.76h2.59l10.2-14.64ZM470.22,58.2c6.12-8.16,14.09-22.24,20.2-35.96-33.92,3.15-77.85,4.63-115.48,2.78l-.37-2.97c44.3-2.96,100.09-12.05,129.01-20.95l20.39,18.35c-1.86,1.67-5.93,2.22-11.86.18-5.19.74-10.75,1.48-16.87,2.04l22.61,12.42c-.92,1.85-3.52,3.15-7.79,2.41-11.68,9.82-25.58,18.17-38,23.54l-1.85-1.85ZM387.36,27.43c48.56,6.67,31.7,42.26,13.35,29.1-2.04-9.64-9.08-20.76-15.01-27.99l1.67-1.11ZM433.15,26.51c47.08,9.82,25.58,44.11,8.15,28.54,0-9.64-4.82-20.57-9.82-27.43l1.67-1.11ZM460.95,89.9h28.36v-23.73h-28.36v23.73ZM489.31,95.27h-28.36v27.43h28.36v-27.43Z"/>
      <path class="cls-1" d="M700.42,10.57s12.61,10.38,20.39,17.42c-.55,2.04-2.6,2.97-5.38,2.97h-131.6v44.48c0,31.7-1.85,72.47-36.33,99.35l-2.04-1.67c16.87-28.36,17.98-64.5,17.98-97.5V17.24l23.73,8.53h54.31c-1.11-.37-2.22-.74-3.52-1.48-2.04-8.16-9.08-17.42-14.65-22.43l1.3-1.11c37.26-1.3,35.78,21.32,23.91,25.02h40.78l11.12-15.2ZM699.49,41.15s10.2,9.64,16.13,16.13c-.55,2.04-2.41,2.97-4.82,2.97h-28.55v27.62c0,1.11-8.53,4.45-16.13,4.45h-3.34v-7.23h-34.1v4.26c0,1.67-8.71,4.82-16.13,4.82h-3.52v-33.92h-22.43l-1.49-5.19h23.91v-21.32l25.76,2.41c-.37,2.23-1.67,3.89-6.11,4.63v14.27h34.1v-21.32l25.95,2.41c-.37,2.23-1.85,3.89-6.49,4.63v14.27h7.97l9.27-13.9ZM688,97.68l20.39,15.2c-1.11,1.3-3.71,3.15-7.6,3.89v24.47c0,12.79-2.78,20.2-23.36,22.06-.37-5.75-.74-10.19-2.78-13.16-1.85-2.78-4.63-4.82-10.75-5.93v-2.6s10.57.56,13.9.56c2.6,0,3.15-.93,3.15-2.96v-25.95h-23.54v56.35c0,1.67-9.45,5.38-17.24,5.38h-3.89v-61.72h-23.91v42.26c0,1.67-8.9,6.12-17.24,6.12h-2.78v-62.09l21.13,8.34h22.8v-16.68l26.32,2.41c-.18,2.04-1.48,3.71-5.19,4.26v10.01h21.69l8.9-10.19ZM662.79,60.24h-34.1v19.46h34.1v-19.46Z"/>
      <path class="cls-1" d="M169.6,353.67c6.67,10.94,7.6,16.5,4.45,19.46-8.34,8.15-23.91.37-32.62-7.42-8.53-7.23-15.57-15.57-21.5-24.65-14.83,14.83-33.55,27.25-57.46,35.96l-1.3-2.22c21.5-12.6,38.18-29.47,50.6-48.19-10.94-22.8-16.31-49.49-18.54-78.59h-52.09v29.66h21.87l10.38-10.38,18.72,15.57c-1.3,1.48-3.52,2.59-7.23,3.15-1.11,39.67-3.52,53.94-11.68,60.43-5,3.89-11.31,5.93-20.02,5.93,0-5.93-.37-10.75-2.6-13.72-2.22-2.6-6.11-4.45-11.49-5.93v-2.41c4.26.37,11.86.74,15.01.74,2.6,0,3.89-.37,5.01-1.48,3.33-2.96,4.82-16.87,5.56-46.71h-23.54c0,29.66-2.6,70.62-39.48,96.75l-1.67-1.67c17.79-28.17,19.46-63.95,19.46-95.27v-48.75l25.02,8.9h48.19c-.74-12.42-1.11-25.02-1.11-38l28.18,2.78c-.18,2.41-1.86,4.63-6.67,5.38-.18,10.01,0,20.02.55,29.84h27.8l6.67-8.34c-2.22.18-4.63-.18-7.23-1.48-2.97-8.15-11.68-17.24-18.72-22.06l1.3-1.48c29.66-1.85,36.14,12.05,32.25,19.83,4.08,3.15,13.35,10.57,19.46,15.94-.37,1.85-2.41,2.78-5.19,2.78h-56.16c1.48,19.83,4.64,39.11,10.94,55.79,6.3-13.35,10.94-27.25,14.08-40.59l28.92,9.64c-.74,2.23-2.41,3.71-7.41,3.52-5.93,16.13-14.09,32.62-25.58,47.82,5.19,8.16,11.68,15.2,19.46,21.13,2.78,2.59,4.08,2.59,6.12-.74,2.97-4.63,8.16-14.64,11.68-22.61l1.86.37-4.26,31.32Z"/>
      <path class="cls-1" d="M344.75,283.23c-1.3,1.48-2.97,2.41-7.05,1.11-11.12,4.82-26.51,10.19-42.63,14.46,12.05,25.02,36.52,39.11,62.28,47.08l-.37,2.04c-8.34,1.67-14.46,8.34-17.61,18.54-23.73-14.46-39.85-33.92-48.38-66.54-3.89,1.11-7.79,2.04-11.68,2.78,14.27,26.13,12.79,55.98,2.96,68.03-4.82,5.93-14.08,8.16-27.25,7.97-.19-6.12-1.67-10.38-4.45-13.53-2.41-2.41-8.34-5-15.57-6.86l-.18-2.22c7.6.74,20.02,1.48,24.47,1.48,2.6,0,4.45-.37,5.38-2.04,2.6-3.89,4.26-11.68,4.45-21.13-22.06,14.27-52.08,26.51-81.74,32.62l-1.3-2.78c30.96-11.12,62.28-32.99,79.89-55.98-.37-1.48-.74-2.96-1.3-4.63-18.91,12.42-46.52,24.84-72.47,31.7l-1.11-2.41c23.91-11.12,50.05-31.7,64.5-50.23l-1.48-2.22c-17.24,10.01-38.37,18.17-60.24,23.54l-1.3-2.23c22.06-10.01,42.82-25.58,56.53-39.67h-35.77l-1.48-5.19h88.78l11.49-14.46s7.04,5.56,13.9,11.12c.74-5.19,1.49-12.23,2.04-18.16h-115.11c1.11,12.97-3.71,22.06-10.01,26.13-5.56,3.71-14.46,2.23-17.05-4.63-2.04-6.49,1.86-11.49,7.23-14.27,6.49-3.52,13.72-12.79,13.35-22.98h2.59c1.3,3.71,2.41,7.04,2.97,10.38h55.42c-1.11-.37-2.23-.93-3.34-1.67-.93-8.34-6.86-17.42-12.98-22.06l1.3-1.11c37.44-2.04,36.33,20.02,24.65,24.84h49.31l10.94-11.12,19.28,18.35c-1.3,1.67-3.34,2.04-7.05,2.23-5.38,5-14.46,11.86-21.69,15.76,1.67,1.3,3.15,2.6,4.63,3.89-.37,2.04-2.41,2.96-5,2.96h-48.38c-5.75,5.75-12.98,10.94-20.95,15.94,7.79,6.12,13.9,13.16,18.72,20.58,16.87-10.01,35.59-24.28,45.41-33.55l22.43,18.16Z"/>
      <path class="cls-1" d="M517.86,268.03s13.53,10.94,21.69,18.35c-.56,2.04-2.41,2.97-5.19,2.97h-38.74v81.56c0,2.41-9.64,7.79-17.98,7.79h-4.08v-89.34h-40.41c-1.67,32.62-11.49,68.03-60.98,89.34l-1.3-1.85c31.7-25.21,39.48-55.79,40.78-87.49h-44.86l-1.67-5.19h46.71v-48.75c-12.98,2.41-26.51,4.26-39.48,5.38l-.74-2.59c26.69-7.6,58.76-21.87,74.7-32.62l21.87,18.54c-1.86,1.85-5.75,2.04-11.31.19-6.67,2.22-14.64,4.45-23.36,6.49v46.34c0,2.41,0,4.63-.18,7.04h40.22v-77.66l28.92,2.78c-.56,2.59-1.86,4.45-6.86,5.19v69.69h10.01l12.23-16.13Z"/>
      <path class="cls-1" d="M563.07,326.23c7.6,19.65,6.49,34.66,1.11,42.63-3.89,5.56-13.72,5.93-17.24-.18-2.97-5.56-.56-11.12,4.26-14.83,4.63-5,10.19-17.24,9.08-27.62h2.78ZM548.42,302.32s4.45-1.11,6.49-2.41c8.71-6.49,19.46-19.28,28.54-32.62-6.3,2.6-13.53,5.38-21.32,8.34-1.3,2.04-2.97,3.34-4.63,4.08l-9.27-22.24s3.89-.93,5.56-2.04c9.27-9.27,21.13-35.96,24.65-50.23l24.84,12.6c-.74,1.67-2.97,2.97-6.11,2.6-8.16,11.86-22.62,27.62-35.22,38,7.6,0,17.24,0,27.25-.18,4.26-6.86,7.6-13.53,9.82-18.72l22.24,15.38c-.93,1.48-3.34,2.59-7.04,1.85-10.57,13.35-30.77,32.44-48.94,45.41,9.46-.56,21.87-1.48,34.66-2.22-1.67-6.3-4.27-12.42-6.67-16.87l2.04-1.11c38.37,17.24,21.32,46.15,7.23,32.81,0-3.15-.56-6.3-1.3-9.64-10.01,4.26-24.47,10.2-40.04,15.76-1.67,2.04-3.33,3.34-5.19,3.89l-7.6-22.43ZM578.08,323.45c32.07,23.36,11.86,50.79-.55,35.4,1.67-11.31.55-25.02-1.86-34.66l2.41-.74ZM719.69,275.82c-.93,1.85-2.97,2.59-7.23,3.15-5.38,20.76-13.72,40.04-26.88,56.53,11.12,10.19,23.91,17.98,37.63,24.1l-.55,2.04c-8.71.93-15.76,7.04-19.65,17.05-11.86-8.34-21.69-18.17-29.66-30.03-13.16,12.42-30.4,22.61-52.83,29.84l-1.3-2.41c20.02-10.19,35.4-24.1,46.9-40.04-7.97-16.13-13.35-35.77-16.5-60.61h-1.85c-2.97,39.48-12.05,75.26-41.33,103.24l-2.6-2.78c5.56-9.27,9.82-18.91,13.35-28.73-2.96,4.26-8.9,5.75-14.27.74,0-8.9-4.26-19.83-8.71-26.69l2.04-1.11c17.42,5.75,22.98,15.01,22.61,21.87,10.94-36.33,10.38-76.74,10.38-117.52h-12.42l-1.67-5.38h60.24l8.34-9.64,19.65,15.01c-1.48,1.67-3.15,2.22-6.67,2.6l-5.75,41.7,10.01-9.82,18.72,16.87ZM649.44,224.47c-.18,15.57-.37,30.95-1.3,45.6h22.8l5.56-45.6h-27.06ZM652.96,275.44c4.26,19.46,11.68,34.85,21.32,47.45,7.97-14.46,13.35-30.4,16.87-47.45h-38.18Z"/>
    </g>
    <g>
      <path class="cls-2" d="M76.08,475.57c1.03,6.08-.51,10.45-3.17,12.5-2.48,2.05-6.93,1.46-8.3-1.8-1.12-3.17.6-5.74,3.17-7.19,2.57-1.8,5.39-6.5,4.79-11.04h1.2c.77,1.8,1.37,3.42,1.8,5.05h26.71c-.69-.34-1.46-.77-2.14-1.37.17-4.37-2.05-9.25-5.05-12.07l.6-.6c18.15,1.2,17.63,11.3,12.33,14.04h21.4l5.31-5.31,9.33,8.82c-.68.69-1.54.94-3.34,1.03-3.08,3.08-8.48,7.11-12.59,9.42l-.69-.6c.86-2.91,1.97-7.36,2.49-10.87h-53.85ZM133.02,490.46s6.25,4.62,10.1,7.96c-.26.94-1.2,1.37-2.4,1.37h-17.38c-1.97,8.13-5.22,15.15-10.96,21.15,33.13,8.99,20.21,22,11.13,17.12-4.45-3.42-10.79-7.19-18.75-10.87-8.65,5.56-20.89,9.59-38.35,11.99l-.51-1.03c14.21-3.68,24.23-8.48,31.33-14.21-6.68-2.65-14.04-5.22-22.26-7.45,2.31-4.02,5.4-10.27,8.31-16.69h-17.12l-.77-2.48h19.01c3.25-7.53,6.25-14.81,7.45-18.92l13.96,4.2c-.34.94-1.11,1.8-3.85,1.71-1.63,3.25-3.85,7.96-6.33,13.01h16.69c.51-3.42.86-6.93,1.03-10.62l14.81,2.82c-.26,1.37-1.37,2.05-3.34,1.97-.26,1.97-.6,3.94-.94,5.82h3.77l5.39-6.85ZM94.32,499.79c-2.91,5.65-5.99,11.47-8.82,16.27,6.51.77,12.16,1.63,17.21,2.65,4.88-5.73,7.53-11.99,9.07-18.92h-17.46Z"/>
      <path class="cls-2" d="M182.77,480.19s5.74,4.79,8.99,8.05c-.17.94-1.11,1.37-2.31,1.37h-13.87v5.91c21.57,6.42,13.44,21.4,5.73,15.15-.6-4.37-3.08-9.25-5.73-13.01v38.78c0,.6-3.17,2.82-7.96,2.82h-1.8v-31.68c-4.28,6.85-9.67,12.84-16.09,17.98l-1.03-1.03c7.02-9.33,11.9-22.51,14.56-34.93h-12.59l-.68-2.4h15.84v-15.15c-5.22.6-10.61,1.11-15.58,1.37l-.26-1.2c10.53-3.17,23.8-9.07,30.39-13.35l10.61,9.76c-1.03.77-2.91.94-5.65-.09-2.83.68-6.16,1.37-9.76,2.05v16.61h2.4l4.79-7.02ZM227.98,475.31c-.51.77-1.8,1.46-3.51,1.88v52.39c-.17.69-4.97,2.74-8.48,2.74h-1.63v-9.07h-12.33v6.93c0,1.11-3.94,3.51-8.31,3.51h-1.63v-65.06l10.36,4.37h10.96l4.79-5.39,9.76,7.71ZM214.37,520.77v-45.37h-12.33v45.37h12.33Z"/>
      <path class="cls-2" d="M258.39,522.74c4.2-.94,8.65-1.88,13.01-2.91l.34.94c-7.02,3.77-17.12,8.99-31.59,15.41-.43,1.03-1.29,1.97-2.23,2.23l-4.28-10.62c1.29-.17,2.91-.51,4.88-.86v-30.56l9.42.86c-.09.77-.6,1.46-1.97,1.63v26.63l3.68-.77v-36.47h-2.31v1.2c0,.6-2.74,2.48-7.11,2.48h-1.54v-30.56l9.76,3.85h8.99l4.2-4.54,8.73,6.68c-.51.6-1.62,1.28-3.25,1.63v19.6c-.17.6-4.45,2.14-7.28,2.14h-1.46v11.47h1.11l4.28-6.68s4.88,4.62,7.62,7.71c-.26.94-1.11,1.37-2.31,1.37h-10.7v18.15ZM247.34,485.75h10.96v-18.15h-10.96v18.15ZM310.35,472.91c-.6.94-1.54,1.2-3.51,1.37-2.74,6.08-6.42,11.73-11.13,16.78,5.73,3.34,12.67,5.91,20.8,7.53l-.17.86c-4.02,1.46-6.08,4.28-6.76,9.07-1.97-.77-3.85-1.54-5.57-2.4l5.57,4.19c-.6.68-1.37,1.2-3.17,1.54v24.91c0,.51-3.17,2.14-8.22,2.14h-1.8v-6.08h-15.15v4.11c0,.69-2.91,2.31-7.79,2.31h-1.63v-32.1c-2.65,1.11-5.48,2.05-8.39,2.91l-.68-1.11c9.5-4.54,17.46-10.79,23.54-18.15-2.23-3.17-4.03-6.68-5.65-10.45-3.94,4.54-8.39,8.13-13.27,10.96l-.94-.77c6.25-7.36,11.9-19.09,14.55-31.76l12.67,4.11c-.43,1.11-1.45,1.88-3.42,1.71-.86,1.97-1.71,3.85-2.66,5.65h8.9l5.31-5.05,8.56,7.7ZM300.25,503.99c-3.77-2.31-7.02-4.96-9.76-7.96-4.54,3.85-9.76,7.19-15.84,9.93l7.53,2.82h13.87l4.2-4.79ZM296.4,530.44v-19.18h-15.15v19.18h15.15ZM286.13,472.74c-1.2,2.05-2.49,3.94-3.94,5.74,1.97,3,4.45,5.74,7.28,8.13,3-4.37,5.39-8.99,7.11-13.87h-10.44Z"/>
      <path class="cls-2" d="M348.21,526.25c5.14,1.46,11.39,1.8,19.35,1.8,7.53,0,25.86,0,33.9-.26v1.11c-3.59.86-5.31,4.19-5.39,7.96h-28.77c-19.52,0-29.54-4.02-35.02-21.74-2.05,8.82-5.48,17.64-11.9,24.06l-.86-.86c5.57-11.73,7.02-29.54,6.51-43.06l11.73,2.4c-.34,1.28-1.28,2.05-3.25,2.14-.34,3.94-.86,8.22-1.71,12.41,1.8,4.02,3.85,7.02,6.33,9.33v-30.14l11.73,1.2c-.17,1.11-.77,1.88-2.65,2.14v10.27h1.62l4.37-6.16s4.79,4.28,7.53,7.19c-.25.94-1.03,1.37-2.23,1.37h-11.3v18.83ZM337.51,487.12v-12.07h-13.35l-.68-2.48h14.04v-13.61l12.33,1.11c-.17,1.11-.77,1.8-2.74,2.14v10.36h2.31l4.71-6.08s5.22,4.19,8.39,7.19c-.17.94-1.11,1.37-2.31,1.37h-13.1v12.07h3.08l4.79-6.51s4.54,3.6,7.79,6.59c5.05-7.02,5.99-14.3,6.33-20.63h-10.1l-.77-2.4h29.53l4.79-4.62,8.65,7.02c-.69.68-1.63,1.2-3.34,1.46-.6,13.18-1.88,19.35-5.57,21.92-2.23,1.63-5.22,2.48-9.42,2.48,0-2.65-.26-4.88-1.46-6.16-1.2-1.28-3.51-2.31-6.42-2.91l.09-1.2c2.48.26,7.11.51,8.56.51,1.2,0,1.8-.17,2.31-.6,1.37-1.2,2.14-6.25,2.57-15.5h-9.24c-1.2,10.19-5.48,21.23-22.69,29.02l-.94-1.11c2.05-1.63,3.77-3.25,5.22-4.97h-38.87l-.69-2.4h16.18ZM386.14,524.36v-5.74h-14.39v4.19c0,.86-4.19,2.91-8.13,2.91h-1.37v-32.62l9.93,3.94h13.1l4.62-4.88,9.5,7.19c-.6.6-1.71,1.37-3.42,1.71v20.2c-.08.86-4.71,3.08-8.13,3.08h-1.71ZM386.14,516.23v-16.69h-14.39v16.69h14.39Z"/>
      <path class="cls-2" d="M428.36,484.21c-.26.77-1.03,1.37-2.66,1.63v50.43c-.17.77-4.19,2.91-8.13,2.91h-1.88v-43.83c-2.83,3.42-5.91,6.51-9.16,9.16l-1.03-.6c6.5-11.13,13.01-28.42,16.09-45.03l14.3,4.11c-.34,1.03-1.37,1.8-3.42,1.8-2.23,6.51-4.97,12.59-8.05,17.98l3.94,1.46ZM480.84,527.53s4.71,4.28,7.19,7.19c-.17.94-.94,1.37-2.14,1.37h-57.96l-.68-2.48h9.07v-54.45l10.27,3.94h3.17c.08-2.48.17-5.56.26-8.82h-17.98l-.68-2.4h18.75c.09-4.45.17-8.99.17-12.93l13.7,1.2c-.26,1.37-1.29,2.31-3.25,2.57-.26,2.65-.68,5.91-1.03,9.16h9.85l5.57-7.28s6.25,4.88,10.02,8.3c-.26.94-1.11,1.37-2.4,1.37h-23.37c-.34,3.17-.77,6.34-1.11,8.82h8.13l4.28-5.56,10.45,7.36c-.6.86-1.71,1.37-3.94,1.71v46.49l3.68-5.56ZM445.74,485.58v9.76h21.58v-9.76h-21.58ZM467.31,497.82h-21.58v9.76h21.58v-9.76ZM445.74,519.74h21.58v-9.67h-21.58v9.67ZM445.74,533.61h21.58v-11.39h-21.58v11.39Z"/>
      <path class="cls-2" d="M511.42,512.29c3.6-1.11,7.36-2.4,11.13-3.6l.34.94c-5.22,4.11-13.27,10.19-24.66,17.64-.34,1.11-1.11,2.05-2.14,2.4l-5.14-11.3c2.23-.6,6.08-1.63,10.7-3.08v-27.82h-8.99l-.69-2.48h9.68v-22.86l12.93,1.11c-.17,1.2-.86,2.14-3.17,2.48v19.26h.51l4.28-7.19s4.96,5.05,7.45,8.3c-.26.94-1.11,1.37-2.23,1.37h-10.02v24.83ZM563.64,496.2s6.33,4.97,10.02,8.48c-.26.94-1.2,1.37-2.4,1.37h-22.17v31.16c0,.69-3.08,2.82-8.13,2.82h-1.88v-33.99h-22.17l-.69-2.48h22.86v-34.07h-19.52l-.69-2.48h37.93l5.31-7.11s5.99,4.88,9.5,8.22c-.26.94-1.11,1.37-2.4,1.37h-20.12v34.07h8.9l5.65-7.36ZM523.66,474.45c20.38,13.36,10.96,30.82,2.91,22.43.26-7.28-1.8-15.75-3.94-22.09l1.03-.34ZM551.66,498.85c1.97-6.42,4.19-16.44,5.56-25l13.27,4.02c-.43,1.03-1.54,1.8-3.42,1.71-3.85,7.53-8.9,14.81-14.21,19.78l-1.2-.51Z"/>
      <path class="cls-2" d="M598.76,484.38c-.25.77-.94,1.37-2.57,1.63v50.34c-.17.77-4.2,2.91-8.05,2.91h-1.8v-43.83c-2.74,3.42-5.65,6.59-8.73,9.33l-1.11-.69c6.16-11.13,12.41-28.68,15.67-45.2l14.13,4.11c-.34,1.11-1.45,1.8-3.42,1.8-2.4,6.51-5.14,12.59-8.22,18.06l4.11,1.54ZM598.68,538.23c7.96-3.77,16.44-10.44,20.46-15.32l11.73,6.59c-.69.94-2.23,1.46-4.79,1.03-6.08,3.68-17.04,7.11-26.97,8.65l-.43-.94ZM639.77,468.12v6.76h4.71l4.28-4.62,8.99,6.76c-.34.51-1.28,1.11-2.74,1.37v11.3c-.09.51-4.11,1.97-7.19,2.23l6.5,4.96c-.43.6-1.46,1.37-3,1.63v24.57c-.09.6-4.88,2.57-8.13,2.57h-1.71v-3.68h-25.17v1.8c0,.86-4.2,3-8.13,3h-1.37v-33.82c-.77.17-1.54.26-2.31.26h-1.28v-22.26l10.02,3.94h4.62v-6.76h-13.87l-.69-2.48h39.3l5.57-6.85s6.16,4.62,10.02,7.96c-.26.94-1.2,1.37-2.4,1.37h-16.01ZM645.16,489.95v-.34h-32.53v.77c0,.34-1.03,1.03-2.57,1.63l6.76,2.74h23.89l4.45-4.79ZM612.63,477.28v9.85h5.22v-9.85h-5.22ZM641.48,502.88v-5.74h-25.17v5.74h25.17ZM616.32,511.18h25.17v-5.91h-25.17v5.91ZM641.48,519.57v-5.99h-25.17v5.99h25.17ZM631.47,468.12h-5.31v6.76h5.31v-6.76ZM631.47,487.12v-9.85h-5.31v9.85h5.31ZM631.81,524.88c40.49,2.14,23.2,20.12,15.32,12.5-2.57-3.6-7.53-8.13-15.67-11.39l.34-1.11ZM639.77,477.28v9.85h5.39v-9.85h-5.39Z"/>
    </g>
  </g>
</svg>