<?xml version="1.0" encoding="UTF-8"?>
<svg id="_圖層_2" data-name="圖層 2" xmlns="http://www.w3.org/2000/svg" viewBox="0 0 303.98 209.34">
  <defs>
    <style>
      .cls-1 {
        fill: #fff;
      }
    </style>
  </defs>
  <g id="_圖層_1-2" data-name="圖層 1">
    <g>
      <path class="cls-1" d="M115.57,176.77c-.15.45-.6.8-1.55.95v29.42c-.1.45-2.5,1.7-4.8,1.7h-1.1v-25.72c-1.9,2.4-3.95,4.5-6.15,6.35l-.6-.45c3.95-6.5,8.2-17.06,10.46-27.07l8.16,2.55c-.2.6-.8,1.05-1.95,1-1.45,3.7-3.1,7.2-4.95,10.36l2.5.9ZM143.54,200.88s3.7,3.05,5.9,5.15c-.1.55-.65.8-1.4.8h-32.22l-.4-1.45h12.51v-11.61h-10.11l-.4-1.45h10.51v-9.16l7.55.65c-.1.65-.45,1.1-1.65,1.3v7.2h4.6l3.2-4.3s3.6,2.9,5.7,4.95c-.1.55-.65.8-1.4.8h-12.11v11.61h6.4l3.3-4.5ZM127.93,170.32v-8.21l7.55.65c-.1.65-.45,1.05-1.65,1.25v6.3h4l3.15-4.3s3.5,2.95,5.6,4.9c-.15.55-.7.8-1.4.8h-11.36v9.66h6.05l3.2-4.3s3.55,2.9,5.65,4.95c-.1.55-.7.8-1.4.8h-30.87l-.4-1.45h11.86v-9.66h-9.26l-.4-1.4h9.66Z"/>
      <path class="cls-1" d="M195.9,195.68c-.3.45-.8.65-1.9.35-2.15.85-5.2,1.95-8.1,2.9,3.8,2.25,8.5,3.5,13.56,4.2l-.05.6c-2.35.6-3.95,2.5-4.65,5.35-8.81-3.1-14.31-7.66-17.01-17.81h-4.9v10.71c2.2-.55,4.6-1.2,7.05-1.9l.15.55c-2,1.6-5.75,4.65-10.36,7.7-.35.45-.75.8-1.1,1l-3.4-6.3c1.8-1,2.1-1.5,2.1-2.45v-9.31h-4.5c-1.3,6.35-4.2,12.76-10.61,17.61l-.5-.35c5.65-8.96,6.2-20.11,6.2-30.22v-15.36l6.85,2.4h24.12l2.65-2.85,5.65,4.2c-.3.4-1.05.85-2.05,1.05v7.7c-.05.3-2.95,1.25-4.75,1.25h-1v-1.9h-25.51v3.45c0,1.1,0,2.25-.05,3.4h5.9v-5.95l7.01.65c-.1.55-.4,1-1.45,1.15v4.15h6.35v-5.8l6.95.65c-.05.55-.4.95-1.45,1.15v4h1.55l2.8-3.7s3.15,2.55,5.01,4.35c-.1.55-.6.8-1.35.8h-8v6.7h3.35l3.1-4.15s3.45,2.85,5.55,4.8c-.15.55-.7.8-1.4.8h-19.01c1.35,2.75,3.25,4.9,5.6,6.6,2.05-2.2,4.35-4.95,5.55-6.6l6.05,4.4ZM163.73,183.12c-.1,2.2-.3,4.4-.65,6.7h6.6v-6.7h-5.95ZM163.83,166.81v6.55h25.51v-6.55h-25.51ZM175.24,183.12v6.7h6.35v-6.7h-6.35Z"/>
      <path class="cls-1" d="M220.3,183.32c-.35.55-.8.7-1.9.85-.75,5.1-2,9.96-4.5,14.31,5.45,2.95,12.91,3.6,23.26,3.6,2.6,0,8.66,0,11.81-.05v.6c-2.3.5-3.4,2.55-3.55,4.9h-8.7c-11.61,0-19.46-1.2-24.97-6.05-2.35,2.9-5.51,5.5-9.81,7.45l-.35-.6c3.5-2.6,6.01-5.85,7.66-9.5-2.3-3.05-4.1-7.16-5.5-12.46l.55-.3c1.6,4.4,3.6,7.56,6.15,9.91,1.4-3.9,2.1-8.16,2.5-12.56h-3l-1.75,1.8-4.9-3.15c.45-.4,1.1-.8,1.8-1.05,1.8-3.35,4.3-8.91,5.65-12.41h-8.31l-.45-1.45h8.7l2.5-2.5,5,4.5c-.4.45-1.2.7-2.15.8-1.35,3.1-3.9,8.5-5.7,12.01h2.2l2.75-2.85,5,4.2ZM245.56,170.22s2.75,2.75,4.15,4.5c-.15.55-.65.8-1.3.8h-5.6v6.91c-.05.4-2.75,1.35-4.55,1.35h-.85v-1.7h-4.45v5.1h4.75l2.8-3.7s3.25,2.5,5.15,4.3c-.15.55-.6.8-1.35.8h-11.36v5.2h6.01l3.15-3.95s3.6,2.65,5.81,4.6c-.15.55-.7.8-1.4.8h-13.56v4.65c0,.45-2.3,1.5-4.5,1.5h-1.1v-6.15h-10.21l-.4-1.45h10.61v-5.2h-7.9l-.4-1.4h8.31v-5.1h-7.31l-.45-1.45h7.75v-5.1h-11.01l-.4-1.45h11.41v-5.05h-7.81l-.45-1.4h8.25v-5.5l7.46.7c-.1.75-.5,1.25-1.85,1.45v3.35h3.95l2.5-2.7,5.35,4c-.3.35-1,.8-1.95,1v4.15h.35l2.4-3.85ZM232.95,174.07h4.45v-5.05h-4.45v5.05ZM237.41,175.52h-4.45v5.1h4.45v-5.1Z"/>
      <path class="cls-1" d="M269.36,168.51s2.85,2.25,4.6,3.9c-.1.55-.65.8-1.35.8h-20.21l-.4-1.45h14.86l2.5-3.25ZM280.26,169.62c0,4.1-.9,10.86-9.31,14.76.3.3.65.6.95.9-.15.55-.65.8-1.35.8h-16.11l-.4-1.45h11.01l2.4-3.05s1.4,1.1,2.8,2.25c4.2-4.35,4.75-9.81,4.75-14.21v-6.2l6.16,2.25h4.25l2.65-2.85,4.85,4c-.3.35-.9.6-1.8.75v8.26c0,.5.15.7.8.7h2.6c.3,0,.8-.05,1.05-.05.3-.05.8-.15,1.15-.2h.45l.2.05c1.2.6,1.65,1.1,1.65,2.1,0,2-1.7,3.1-6.5,3.1h-2.4c-3.75,0-4.2-1.05-4.2-4.3v-10.16h-5.66v2.55ZM265.05,178.17l2.4-3.15s2.7,2.2,4.4,3.8c-.15.55-.65.8-1.35.8h-16.01l-.4-1.45h10.96ZM265.46,206.49v-2.7h-5.66v3c0,.5-2.2,1.65-4.35,1.65h-.75v-19.41l5.3,2.15h5l2.4-2.55,5.1,3.8c-.3.35-.95.75-1.9.95v11.61c-.05.4-2.55,1.5-4.3,1.5h-.85ZM257.35,162.76c13.21.65,8.46,10.66,3.15,7.15-.35-2.5-2-5.2-3.5-6.85l.35-.3ZM265.46,202.38v-9.81h-5.66v9.81h5.66ZM296.12,186.78c-.35.5-.9.65-2.1.75-1.75,4.25-4.15,7.96-7.35,11.16,3.65,2.05,7.96,3.4,12.51,4.3l-.05.55c-2.3.5-4,2.25-4.75,4.95-4.5-1.7-8.31-3.75-11.36-6.7-4.25,3.2-9.76,5.55-16.51,7.1l-.3-.65c5.85-2.3,10.66-5.4,14.31-9.31-2.4-3.2-4.2-7.2-5.35-12.36h-2.4l-.45-1.45h15.41l3.2-3.05,5.2,4.7ZM276.06,186.58c1.5,4.05,3.8,7.15,6.8,9.56,2.2-2.9,3.85-6.05,5.01-9.56h-11.81Z"/>
    </g>
    <g>
      <path class="cls-1" d="M41.9,0l1.12,16.67h-1.12c-1.49-4.99-3.63-8.58-6.4-10.77-2.77-2.19-6.1-3.29-9.98-3.29-3.25,0-6.2.83-8.82,2.48-2.63,1.65-4.7,4.28-6.2,7.9-1.51,3.62-2.26,8.11-2.26,13.49,0,4.43.71,8.28,2.13,11.53,1.42,3.25,3.56,5.75,6.42,7.48,2.86,1.74,6.11,2.6,9.78,2.6,3.18,0,5.99-.68,8.42-2.04,2.44-1.36,5.11-4.07,8.03-8.12l1.12.72c-2.46,4.36-5.33,7.56-8.61,9.58-3.28,2.02-7.17,3.04-11.68,3.04-8.12,0-14.41-3.01-18.87-9.04C1.66,37.74,0,32.47,0,26.39c0-4.89,1.1-9.39,3.29-13.49,2.19-4.1,5.21-7.27,9.06-9.53,3.85-2.25,8.05-3.38,12.6-3.38,3.54,0,7.04.87,10.49,2.6,1.01.53,1.73.8,2.17.8.65,0,1.22-.23,1.7-.69.63-.65,1.07-1.55,1.34-2.71h1.27Z"/>
      <path class="cls-1" d="M75.27,0c6.36,0,11.88,2.42,16.54,7.25,4.66,4.83,7,10.87,7,18.1s-2.35,13.63-7.05,18.55c-4.7,4.92-10.39,7.38-17.06,7.38s-12.42-2.4-17.01-7.2c-4.59-4.8-6.89-11-6.89-18.62s2.65-14.14,7.95-19.05c4.6-4.27,10.11-6.4,16.52-6.4ZM74.58,2.64c-4.39,0-7.91,1.63-10.56,4.88-3.3,4.05-4.95,9.98-4.95,17.79s1.71,14.16,5.13,18.47c2.63,3.28,6.1,4.92,10.41,4.92,4.6,0,8.4-1.79,11.41-5.39,3-3.59,4.5-9.26,4.5-16.99,0-8.39-1.65-14.64-4.95-18.77-2.65-3.28-6.31-4.92-10.99-4.92Z"/>
      <path class="cls-1" d="M133.44,50.15l-18.95-41.25v32.76c0,3.01.33,4.89.98,5.64.89,1.01,2.3,1.52,4.23,1.52h1.74v1.34h-17.07v-1.34h1.74c2.07,0,3.54-.63,4.41-1.88.53-.77.79-2.53.79-5.28V9.62c0-2.17-.24-3.74-.72-4.7-.34-.7-.96-1.28-1.86-1.75-.9-.47-2.36-.71-4.36-.71v-1.34h13.89l17.79,38.36L153.55,1.12h13.89v1.34h-1.7c-2.1,0-3.58.63-4.44,1.88-.53.77-.8,2.53-.8,5.28v32.03c0,3.01.34,4.89,1.01,5.64.89,1.01,2.3,1.52,4.23,1.52h1.7v1.34h-20.83v-1.34h1.74c2.1,0,3.57-.63,4.41-1.88.53-.77.79-2.53.79-5.28V8.89l-18.91,41.25h-1.19Z"/>
      <path class="cls-1" d="M193.31,48.81v1.34h-21.01v-1.34h1.74c2.02,0,3.49-.59,4.41-1.77.58-.77.87-2.63.87-5.57V9.8c0-2.48-.16-4.12-.47-4.92-.24-.6-.74-1.12-1.48-1.55-1.06-.58-2.17-.87-3.33-.87h-1.74v-1.34h21.01v1.34h-1.77c-2,0-3.46.59-4.38,1.77-.6.77-.9,2.63-.9,5.57v31.67c0,2.48.16,4.12.47,4.92.24.6.75,1.12,1.52,1.55,1.04.58,2.14.87,3.29.87h1.77Z"/>
      <path class="cls-1" d="M195.63,1.12h13.3l29.97,36.77V9.62c0-3.01-.34-4.89-1.01-5.64-.89-1.01-2.3-1.52-4.23-1.52h-1.7v-1.34h17.06v1.34h-1.74c-2.07,0-3.54.63-4.41,1.88-.53.77-.79,2.53-.79,5.28v41.33h-1.3l-32.32-39.48v30.19c0,3.01.32,4.89.97,5.64.92,1.01,2.33,1.52,4.23,1.52h1.74v1.34h-17.06v-1.34h1.7c2.1,0,3.58-.63,4.44-1.88.53-.77.8-2.53.8-5.28V7.56c-1.42-1.66-2.5-2.76-3.24-3.29-.74-.53-1.81-1.02-3.24-1.48-.7-.22-1.76-.32-3.18-.32v-1.34Z"/>
      <path class="cls-1" d="M297,0l1.27,15.47h-1.27c-1.28-3.86-2.93-6.76-4.95-8.71-2.92-2.82-6.66-4.23-11.24-4.23-6.24,0-10.99,2.47-14.24,7.41-2.73,4.17-4.09,9.13-4.09,14.9,0,4.68.9,8.94,2.71,12.8,1.81,3.86,4.18,6.68,7.1,8.48,2.93,1.8,5.94,2.69,9.02,2.69,1.81,0,3.55-.23,5.24-.69,1.68-.46,3.31-1.13,4.88-2.02v-14.17c0-2.46-.19-4.07-.56-4.83-.38-.76-.95-1.34-1.74-1.74-.78-.4-2.16-.6-4.14-.6v-1.37h18.98v1.37h-.9c-1.88,0-3.17.63-3.87,1.88-.48.89-.72,2.65-.72,5.28v15c-2.77,1.5-5.51,2.59-8.21,3.29-2.7.7-5.7,1.05-9,1.05-9.47,0-16.67-3.04-21.58-9.11-3.69-4.56-5.53-9.81-5.53-15.76,0-4.31,1.03-8.45,3.11-12.4,2.46-4.7,5.83-8.32,10.12-10.85,3.59-2.1,7.83-3.14,12.73-3.14,1.78,0,3.4.14,4.86.43,1.46.29,3.53.93,6.2,1.92,1.35.51,2.25.76,2.71.76s.85-.21,1.18-.63c.33-.42.52-1.25.6-2.48h1.34Z"/>
      <path class="cls-1" d="M132.94,72.4v16.96h-1.34c-.43-3.25-1.21-5.84-2.33-7.77-1.12-1.93-2.72-3.46-4.79-4.59-2.07-1.13-4.22-1.7-6.44-1.7-2.51,0-4.58.77-6.22,2.3-1.64,1.53-2.46,3.27-2.46,5.22,0,1.49.52,2.86,1.55,4.08,1.49,1.81,5.05,4.22,10.66,7.23,4.58,2.46,7.71,4.35,9.38,5.66,1.68,1.31,2.96,2.86,3.87,4.65.9,1.78,1.36,3.65,1.36,5.6,0,3.71-1.44,6.91-4.32,9.6-2.88,2.69-6.59,4.03-11.12,4.03-1.42,0-2.76-.11-4.01-.33-.75-.12-2.3-.56-4.65-1.32-2.35-.76-3.84-1.14-4.46-1.14s-1.08.18-1.43.54c-.35.36-.61,1.11-.78,2.24h-1.34v-16.81h1.34c.63,3.52,1.47,6.15,2.53,7.9,1.06,1.75,2.68,3.2,4.86,4.36,2.18,1.16,4.57,1.74,7.18,1.74,3.01,0,5.39-.8,7.14-2.39,1.75-1.59,2.62-3.47,2.62-5.64,0-1.2-.33-2.42-.99-3.65-.66-1.23-1.69-2.37-3.09-3.43-.94-.72-3.51-2.26-7.7-4.61-4.19-2.35-7.18-4.22-8.95-5.62-1.77-1.4-3.12-2.94-4.03-4.63-.92-1.69-1.38-3.54-1.38-5.57,0-3.52,1.35-6.55,4.05-9.09,2.7-2.54,6.13-3.81,10.3-3.81,2.6,0,5.36.64,8.28,1.92,1.35.6,2.3.9,2.86.9.62,0,1.14-.19,1.53-.56.4-.37.72-1.13.96-2.26h1.34Z"/>
      <path class="cls-1" d="M168.73,72.4c6.36,0,11.88,2.42,16.54,7.25,4.66,4.83,7,10.87,7,18.1s-2.35,13.63-7.05,18.55c-4.7,4.92-10.39,7.38-17.06,7.38s-12.42-2.4-17.01-7.2c-4.59-4.8-6.89-11-6.89-18.62s2.65-14.14,7.95-19.05c4.6-4.27,10.11-6.4,16.52-6.4ZM168.04,75.04c-4.39,0-7.91,1.63-10.56,4.88-3.3,4.05-4.95,9.98-4.95,17.79s1.71,14.16,5.13,18.47c2.63,3.28,6.1,4.92,10.42,4.92,4.6,0,8.4-1.79,11.41-5.39,3-3.59,4.5-9.26,4.5-16.99,0-8.39-1.65-14.64-4.95-18.77-2.65-3.28-6.31-4.92-10.99-4.92Z"/>
      <path class="cls-1" d="M223.68,72.4c6.36,0,11.88,2.42,16.54,7.25,4.66,4.83,7,10.87,7,18.1s-2.35,13.63-7.05,18.55c-4.7,4.92-10.39,7.38-17.06,7.38s-12.42-2.4-17.01-7.2c-4.59-4.8-6.89-11-6.89-18.62s2.65-14.14,7.95-19.05c4.6-4.27,10.11-6.4,16.52-6.4ZM223,75.04c-4.39,0-7.91,1.63-10.56,4.88-3.3,4.05-4.95,9.98-4.95,17.79s1.71,14.16,5.13,18.47c2.63,3.28,6.1,4.92,10.42,4.92,4.6,0,8.4-1.79,11.41-5.39,3-3.59,4.5-9.26,4.5-16.99,0-8.39-1.65-14.64-4.95-18.77-2.65-3.28-6.31-4.92-10.99-4.92Z"/>
      <path class="cls-1" d="M250.58,73.52h13.3l29.97,36.77v-28.27c0-3.01-.34-4.89-1.01-5.64-.89-1.01-2.3-1.52-4.23-1.52h-1.7v-1.34h17.06v1.34h-1.74c-2.07,0-3.54.63-4.41,1.88-.53.77-.79,2.53-.79,5.28v41.32h-1.3l-32.32-39.48v30.19c0,3.01.32,4.89.97,5.64.92,1.01,2.33,1.52,4.23,1.52h1.74v1.34h-17.06v-1.34h1.7c2.1,0,3.58-.63,4.44-1.88.53-.77.8-2.53.8-5.28v-34.09c-1.42-1.66-2.5-2.76-3.24-3.29-.74-.53-1.81-1.02-3.24-1.48-.7-.22-1.76-.33-3.18-.33v-1.34Z"/>
    </g>
  </g>
</svg>