<?xml version="1.0" encoding="UTF-8"?>
<svg id="_圖層_2" data-name="圖層 2" xmlns="http://www.w3.org/2000/svg" viewBox="0 0 687.8 47.68">
  <defs>
    <style>
      .cls-1 {
        fill: #fff;
      }
    </style>
  </defs>
  <g id="_圖層_1-2" data-name="圖層 1">
    <g>
      <path class="cls-1" d="M504.19,14.81c-.15.45-.6.8-1.55.95v29.42c-.1.45-2.5,1.7-4.8,1.7h-1.1v-25.72c-1.9,2.4-3.95,4.5-6.15,6.35l-.6-.45c3.95-6.5,8.2-17.06,10.46-27.07l8.16,2.55c-.2.6-.8,1.05-1.95,1-1.45,3.7-3.1,7.2-4.95,10.36l2.5.9ZM532.16,38.92s3.7,3.05,5.9,5.15c-.1.55-.65.8-1.4.8h-32.22l-.4-1.45h12.51v-11.61h-10.11l-.4-1.45h10.51v-9.16l7.55.65c-.1.65-.45,1.1-1.65,1.3v7.2h4.6l3.2-4.3s3.6,2.9,5.7,4.95c-.1.55-.65.8-1.4.8h-12.11v11.61h6.4l3.3-4.5ZM516.55,8.36V.15l7.55.65c-.1.65-.45,1.05-1.65,1.25v6.3h4l3.15-4.3s3.5,2.95,5.6,4.9c-.15.55-.7.8-1.4.8h-11.36v9.66h6.05l3.2-4.3s3.55,2.9,5.65,4.95c-.1.55-.7.8-1.4.8h-30.87l-.4-1.45h11.86v-9.66h-9.26l-.4-1.4h9.66Z"/>
      <path class="cls-1" d="M584.52,33.72c-.3.45-.8.65-1.9.35-2.15.85-5.2,1.95-8.1,2.9,3.8,2.25,8.5,3.5,13.56,4.2l-.05.6c-2.35.6-3.95,2.5-4.65,5.35-8.81-3.1-14.31-7.66-17.01-17.81h-4.9v10.71c2.2-.55,4.6-1.2,7.05-1.9l.15.55c-2,1.6-5.75,4.65-10.36,7.7-.35.45-.75.8-1.1,1l-3.4-6.3c1.8-1,2.1-1.5,2.1-2.45v-9.31h-4.5c-1.3,6.35-4.2,12.76-10.61,17.61l-.5-.35c5.65-8.96,6.2-20.11,6.2-30.22V1l6.85,2.4h24.12l2.65-2.85,5.65,4.2c-.3.4-1.05.85-2.05,1.05v7.7c-.05.3-2.95,1.25-4.75,1.25h-1v-1.9h-25.51v3.45c0,1.1,0,2.25-.05,3.4h5.9v-5.95l7.01.65c-.1.55-.4,1-1.45,1.15v4.15h6.35v-5.8l6.95.65c-.05.55-.4.95-1.45,1.15v4h1.55l2.8-3.7s3.15,2.55,5.01,4.35c-.1.55-.6.8-1.35.8h-8v6.7h3.35l3.1-4.15s3.45,2.85,5.55,4.8c-.15.55-.7.8-1.4.8h-19.01c1.35,2.75,3.25,4.9,5.6,6.6,2.05-2.2,4.35-4.95,5.55-6.6l6.05,4.4ZM552.35,21.16c-.1,2.2-.3,4.4-.65,6.7h6.6v-6.7h-5.95ZM552.45,4.85v6.55h25.51v-6.55h-25.51ZM563.86,21.16v6.7h6.35v-6.7h-6.35Z"/>
      <path class="cls-1" d="M608.92,21.36c-.35.55-.8.7-1.9.85-.75,5.1-2,9.96-4.5,14.31,5.45,2.95,12.91,3.6,23.26,3.6,2.6,0,8.66,0,11.81-.05v.6c-2.3.5-3.4,2.55-3.55,4.9h-8.7c-11.61,0-19.46-1.2-24.97-6.05-2.35,2.9-5.51,5.5-9.81,7.45l-.35-.6c3.5-2.6,6.01-5.85,7.66-9.5-2.3-3.05-4.1-7.16-5.5-12.46l.55-.3c1.6,4.4,3.6,7.56,6.15,9.91,1.4-3.9,2.1-8.16,2.5-12.56h-3l-1.75,1.8-4.9-3.15c.45-.4,1.1-.8,1.8-1.05,1.8-3.35,4.3-8.91,5.65-12.41h-8.31l-.45-1.45h8.7l2.5-2.5,5,4.5c-.4.45-1.2.7-2.15.8-1.35,3.1-3.9,8.5-5.7,12.01h2.2l2.75-2.85,5,4.2ZM634.18,8.25s2.75,2.75,4.15,4.5c-.15.55-.65.8-1.3.8h-5.6v6.91c-.05.4-2.75,1.35-4.55,1.35h-.85v-1.7h-4.45v5.1h4.75l2.8-3.7s3.25,2.5,5.15,4.3c-.15.55-.6.8-1.35.8h-11.36v5.2h6.01l3.15-3.95s3.6,2.65,5.81,4.6c-.15.55-.7.8-1.4.8h-13.56v4.65c0,.45-2.3,1.5-4.5,1.5h-1.1v-6.15h-10.21l-.4-1.45h10.61v-5.2h-7.9l-.4-1.4h8.31v-5.1h-7.31l-.45-1.45h7.75v-5.1h-11.01l-.4-1.45h11.41v-5.05h-7.81l-.45-1.4h8.25V.15l7.46.7c-.1.75-.5,1.25-1.85,1.45v3.35h3.95l2.5-2.7,5.35,4c-.3.35-1,.8-1.95,1v4.15h.35l2.4-3.85ZM621.58,12.11h4.45v-5.05h-4.45v5.05ZM626.03,13.56h-4.45v5.1h4.45v-5.1Z"/>
      <path class="cls-1" d="M657.98,6.55s2.85,2.25,4.6,3.9c-.1.55-.65.8-1.35.8h-20.21l-.4-1.45h14.86l2.5-3.25ZM668.89,7.66c0,4.1-.9,10.86-9.31,14.76.3.3.65.6.95.9-.15.55-.65.8-1.35.8h-16.11l-.4-1.45h11.01l2.4-3.05s1.4,1.1,2.8,2.25c4.2-4.35,4.75-9.81,4.75-14.21V1.45l6.16,2.25h4.25l2.65-2.85,4.85,4c-.3.35-.9.6-1.8.75v8.26c0,.5.15.7.8.7h2.6c.3,0,.8-.05,1.05-.05.3-.05.8-.15,1.15-.2h.45l.2.05c1.2.6,1.65,1.1,1.65,2.1,0,2-1.7,3.1-6.5,3.1h-2.4c-3.75,0-4.2-1.05-4.2-4.3V5.1h-5.66v2.55ZM653.68,16.21l2.4-3.15s2.7,2.2,4.4,3.8c-.15.55-.65.8-1.35.8h-16.01l-.4-1.45h10.96ZM654.08,44.53v-2.7h-5.66v3c0,.5-2.2,1.65-4.35,1.65h-.75v-19.41l5.3,2.15h5l2.4-2.55,5.1,3.8c-.3.35-.95.75-1.9.95v11.61c-.05.4-2.55,1.5-4.3,1.5h-.85ZM645.97.8c13.21.65,8.46,10.66,3.15,7.15-.35-2.5-2-5.2-3.5-6.85l.35-.3ZM654.08,40.42v-9.81h-5.66v9.81h5.66ZM684.75,24.82c-.35.5-.9.65-2.1.75-1.75,4.25-4.15,7.96-7.35,11.16,3.65,2.05,7.96,3.4,12.51,4.3l-.05.55c-2.3.5-4,2.25-4.75,4.95-4.5-1.7-8.31-3.75-11.36-6.7-4.25,3.2-9.76,5.55-16.51,7.1l-.3-.65c5.85-2.3,10.66-5.4,14.31-9.31-2.4-3.2-4.2-7.2-5.35-12.36h-2.4l-.45-1.45h15.41l3.2-3.05,5.2,4.7ZM664.68,24.62c1.5,4.05,3.8,7.15,6.8,9.56,2.2-2.9,3.85-6.05,5.01-9.56h-11.81Z"/>
    </g>
    <path class="cls-1" d="M36.28,3.3l.97,14.43h-.97c-1.29-4.32-3.14-7.43-5.54-9.33-2.4-1.9-5.28-2.85-8.64-2.85-2.82,0-5.36.72-7.64,2.14-2.27,1.43-4.07,3.71-5.37,6.84-1.3,3.13-1.96,7.02-1.96,11.68,0,3.84.62,7.17,1.85,9.99,1.23,2.82,3.09,4.98,5.56,6.48,2.47,1.5,5.29,2.25,8.47,2.25,2.75,0,5.19-.59,7.29-1.77,2.11-1.18,4.43-3.52,6.95-7.03l.97.63c-2.13,3.78-4.61,6.54-7.45,8.3-2.84,1.75-6.21,2.63-10.11,2.63-7.03,0-12.48-2.61-16.34-7.83C1.44,35.98,0,31.41,0,26.15c0-4.24.95-8.13,2.85-11.68,1.9-3.55,4.51-6.3,7.84-8.25,3.33-1.95,6.97-2.93,10.91-2.93,3.07,0,6.09.75,9.08,2.25.88.46,1.5.69,1.88.69.56,0,1.05-.2,1.47-.6.54-.56.93-1.35,1.16-2.35h1.1Z"/>
    <path class="cls-1" d="M65.17,3.3c5.51,0,10.28,2.09,14.32,6.28,4.04,4.18,6.06,9.41,6.06,15.67s-2.03,11.8-6.1,16.06c-4.07,4.26-8.99,6.39-14.77,6.39s-10.75-2.08-14.73-6.23c-3.98-4.15-5.96-9.53-5.96-16.12s2.29-12.24,6.89-16.5c3.99-3.69,8.75-5.54,14.31-5.54ZM64.58,5.58c-3.8,0-6.85,1.41-9.14,4.23-2.86,3.51-4.29,8.64-4.29,15.4s1.48,12.26,4.44,16c2.27,2.84,5.28,4.26,9.02,4.26,3.99,0,7.28-1.55,9.88-4.66,2.6-3.11,3.9-8.01,3.9-14.71,0-7.26-1.43-12.68-4.29-16.25-2.29-2.84-5.47-4.26-9.52-4.26Z"/>
    <path class="cls-1" d="M115.54,46.71l-16.4-35.72v28.36c0,2.61.28,4.24.85,4.88.77.88,1.99,1.31,3.66,1.31h1.5v1.16h-14.78v-1.16h1.5c1.79,0,3.07-.54,3.82-1.63.46-.67.69-2.19.69-4.57V11.62c0-1.88-.21-3.23-.63-4.07-.29-.61-.83-1.11-1.61-1.52-.78-.41-2.04-.61-3.77-.61v-1.16h12.02l15.4,33.21,15.15-33.21h12.02v1.16h-1.47c-1.81,0-3.1.54-3.85,1.63-.46.67-.69,2.19-.69,4.57v27.74c0,2.61.29,4.24.88,4.88.77.88,1.99,1.31,3.66,1.31h1.47v1.16h-18.03v-1.16h1.5c1.81,0,3.09-.54,3.82-1.63.46-.67.69-2.19.69-4.57V11l-16.37,35.72h-1.03Z"/>
    <path class="cls-1" d="M167.37,45.56v1.16h-18.19v-1.16h1.5c1.75,0,3.02-.51,3.82-1.53.5-.67.75-2.27.75-4.82V11.78c0-2.15-.14-3.57-.41-4.26-.21-.52-.64-.97-1.28-1.35-.92-.5-1.88-.75-2.88-.75h-1.5v-1.16h18.19v1.16h-1.53c-1.73,0-3,.51-3.79,1.53-.52.67-.78,2.28-.78,4.82v27.42c0,2.15.14,3.57.41,4.26.21.52.65.97,1.31,1.35.9.5,1.85.75,2.85.75h1.53Z"/>
    <path class="cls-1" d="M169.37,4.27h11.52l25.95,31.84V11.62c0-2.61-.29-4.24-.88-4.88-.77-.88-1.99-1.31-3.66-1.31h-1.47v-1.16h14.77v1.16h-1.5c-1.79,0-3.07.54-3.82,1.63-.46.67-.69,2.19-.69,4.57v35.78h-1.13l-27.98-34.18v26.14c0,2.61.28,4.24.84,4.88.79.88,2.01,1.31,3.66,1.31h1.5v1.16h-14.77v-1.16h1.47c1.81,0,3.1-.54,3.85-1.63.46-.67.69-2.19.69-4.57V9.84c-1.23-1.44-2.17-2.39-2.8-2.85-.64-.46-1.57-.89-2.8-1.28-.61-.19-1.52-.28-2.75-.28v-1.16Z"/>
    <path class="cls-1" d="M257.14,3.3l1.1,13.4h-1.1c-1.11-3.34-2.53-5.85-4.29-7.54-2.52-2.44-5.77-3.66-9.74-3.66-5.4,0-9.52,2.14-12.33,6.42-2.36,3.61-3.54,7.91-3.54,12.9,0,4.05.78,7.74,2.35,11.08,1.56,3.34,3.62,5.79,6.15,7.34,2.53,1.55,5.14,2.33,7.81,2.33,1.56,0,3.08-.2,4.54-.59,1.46-.4,2.87-.98,4.23-1.75v-12.27c0-2.13-.16-3.52-.49-4.18-.33-.66-.83-1.16-1.5-1.5-.68-.34-1.87-.52-3.58-.52v-1.19h16.43v1.19h-.78c-1.63,0-2.74.54-3.35,1.63-.42.77-.63,2.3-.63,4.57v12.99c-2.4,1.29-4.77,2.24-7.11,2.85-2.34.61-4.93.91-7.79.91-8.2,0-14.43-2.63-18.69-7.89-3.19-3.94-4.79-8.49-4.79-13.65,0-3.74.9-7.31,2.69-10.74,2.13-4.07,5.05-7.2,8.76-9.39,3.11-1.82,6.78-2.72,11.02-2.72,1.54,0,2.95.13,4.21.38,1.26.25,3.05.8,5.37,1.66,1.17.44,1.95.66,2.35.66s.74-.18,1.02-.55c.28-.37.45-1.08.52-2.14h1.16Z"/>
    <path class="cls-1" d="M314.79,1.5v14.68h-1.16c-.38-2.82-1.05-5.06-2.02-6.73-.97-1.67-2.35-2.99-4.15-3.98-1.79-.98-3.65-1.47-5.57-1.47-2.17,0-3.97.66-5.38,1.99-1.42,1.33-2.13,2.83-2.13,4.52,0,1.29.45,2.47,1.35,3.54,1.29,1.56,4.37,3.65,9.23,6.26,3.97,2.13,6.67,3.76,8.12,4.9,1.45,1.14,2.57,2.48,3.35,4.02.78,1.54,1.17,3.16,1.17,4.85,0,3.21-1.25,5.98-3.74,8.31-2.49,2.33-5.7,3.49-9.63,3.49-1.23,0-2.39-.09-3.48-.28-.65-.1-1.99-.48-4.02-1.14-2.03-.66-3.32-.99-3.87-.99s-.93.16-1.24.47c-.3.31-.53.96-.67,1.94h-1.16v-14.56h1.16c.54,3.05,1.27,5.33,2.19,6.84.92,1.51,2.32,2.77,4.21,3.77,1.89,1,3.96,1.5,6.21,1.5,2.61,0,4.67-.69,6.18-2.07,1.51-1.38,2.27-3.01,2.27-4.88,0-1.04-.29-2.1-.86-3.16-.58-1.06-1.47-2.06-2.68-2.97-.81-.63-3.04-1.96-6.67-3.99-3.63-2.03-6.21-3.66-7.75-4.87-1.53-1.21-2.7-2.55-3.49-4.01-.79-1.46-1.19-3.07-1.19-4.82,0-3.05,1.17-5.67,3.51-7.87,2.34-2.2,5.31-3.3,8.92-3.3,2.25,0,4.64.55,7.17,1.66,1.17.52,1.99.78,2.47.78.54,0,.99-.16,1.33-.49.35-.32.62-.97.83-1.96h1.16Z"/>
    <path class="cls-1" d="M345.77,1.5c5.51,0,10.28,2.09,14.32,6.28,4.04,4.18,6.06,9.41,6.06,15.67s-2.03,11.8-6.1,16.06c-4.07,4.26-8.99,6.39-14.77,6.39s-10.75-2.08-14.73-6.23c-3.98-4.15-5.96-9.53-5.96-16.12s2.29-12.24,6.89-16.5c3.99-3.69,8.75-5.54,14.31-5.54ZM345.18,3.78c-3.8,0-6.85,1.41-9.14,4.23-2.86,3.51-4.29,8.64-4.29,15.4s1.48,12.26,4.44,16c2.27,2.84,5.28,4.26,9.02,4.26,3.99,0,7.28-1.55,9.88-4.66,2.6-3.11,3.9-8.01,3.9-14.71,0-7.26-1.43-12.68-4.29-16.25-2.29-2.84-5.47-4.26-9.52-4.26Z"/>
    <path class="cls-1" d="M393.35,1.5c5.51,0,10.28,2.09,14.32,6.28,4.04,4.18,6.06,9.41,6.06,15.67s-2.03,11.8-6.1,16.06c-4.07,4.26-8.99,6.39-14.77,6.39s-10.75-2.08-14.73-6.23c-3.98-4.15-5.96-9.53-5.96-16.12s2.29-12.24,6.89-16.5c3.99-3.69,8.75-5.54,14.31-5.54ZM392.76,3.78c-3.8,0-6.85,1.41-9.14,4.23-2.86,3.51-4.29,8.64-4.29,15.4s1.48,12.26,4.44,16c2.27,2.84,5.28,4.26,9.02,4.26,3.99,0,7.28-1.55,9.88-4.66,2.6-3.11,3.9-8.01,3.9-14.71,0-7.26-1.43-12.68-4.29-16.25-2.29-2.84-5.47-4.26-9.52-4.26Z"/>
    <path class="cls-1" d="M416.64,2.47h11.52l25.95,31.84V9.82c0-2.61-.29-4.24-.88-4.88-.77-.88-1.99-1.31-3.66-1.31h-1.47v-1.16h14.77v1.16h-1.5c-1.79,0-3.07.54-3.82,1.63-.46.67-.69,2.19-.69,4.57v35.78h-1.13l-27.98-34.18v26.14c0,2.61.28,4.24.84,4.88.79.88,2.01,1.31,3.66,1.31h1.5v1.16h-14.77v-1.16h1.47c1.81,0,3.1-.54,3.85-1.63.46-.67.69-2.19.69-4.57V8.04c-1.23-1.44-2.17-2.39-2.8-2.85-.64-.46-1.57-.89-2.8-1.28-.61-.19-1.52-.28-2.75-.28v-1.16Z"/>
  </g>
</svg>