<?xml version="1.0" encoding="UTF-8"?>
<svg id="_圖層_1" data-name="圖層_1" xmlns="http://www.w3.org/2000/svg" version="1.1" viewBox="0 0 317 45">
  <!-- Generator: Adobe Illustrator 30.0.0, SVG Export Plug-In . SVG Version: 2.1.1 Build 123)  -->
  <path d="M16.8,25.8v17.6h-2v-13.4h-5.7c.8,10.2-8,14.6-8.1,14.7h-.2c0,0,0,0,0,0l-.9-1.8h.2c.3-.2,7.8-4,7-13H1.6v-2h13.2v-2.2c0-1-.8-1.7-1.7-1.7H4.9V3.7h2v18.5h6.2c2,0,3.7,1.7,3.7,3.7ZM22.9,25.8c0-.9.8-1.7,1.7-1.7h8.2V3.7h-2v18.5h-6.2c-2.1,0-3.7,1.7-3.7,3.7v17.6h2v-13.4h7.4v13.2h2v-13.2h4.8v-2h-14.1v-2.2ZM64,0h-2v7.7h-16v2h16v8.7h-13.3v2h29v-2h-13.7v-8.7h16.2v-2h-16.2V0ZM23.1,18.9h-11.9V1.4h2v1h11.7v-1h2v13.8c0,2-1.7,3.7-3.7,3.7ZM13.2,7.3h11.7v-2.9h-11.7v2.9ZM13.2,12.3h11.7v-2.9h-11.7v2.9ZM13.2,17h9.9c1,0,1.7-.8,1.7-1.7v-1h-11.7v2.7h0ZM72.4,25.9h2v7.4c0,5.6-4.6,10.2-10.3,10.2h0s-12.6,0-12.6,0v-17.5h2v1h18.9v-1.1ZM72.4,29h-18.9v12.6h10.6c4.6,0,8.3-3.7,8.3-8.3v-4.3ZM112,20.1c0,0,8.5-.7,10.6-9.4v-.2s-1.9-.5-1.9-.5v.2c-1.7,7.3-8.5,7.8-8.8,7.9h-.2s.1,2,.1,2h.2ZM103.9,14.4v-.9h-13.6v2h11.6c.4,17.2-14.5,22.8-15.1,23h-.2c0,0,.7,1.9.7,1.9h.2c.2-.1,17.4-6.6,16.4-26ZM109.2,6.1v-.2s0,0,0,0V1.4h-2v39.4c0,.9-.8,1.7-1.7,1.7h-7.2v2h7.2c2.1,0,3.7-1.7,3.7-3.7v-21.2c5.1,14,18.4,19,18.5,19h.2c0,0,.7-1.8.7-1.8h-.2c-.8-.4-20.4-7.8-19.1-30.7ZM164.7,9.3V3.1h-2v6.2c0,.9-.8,1.7-1.7,1.7h-8V1.3h-2v9.7h-10V3.2h-2v9.8h21.9c2.1,0,3.7-1.7,3.7-3.7ZM137.3,40.9c0,.9-.7,1.6-1.6,1.6h-1.4v2h1.4,0c2,0,3.6-1.6,3.6-3.6v-22.5h28.9v-2h-30.9v24.4ZM154.7,24.4h10.7v-2h-22.3v2h9.7v6.7h-11.1v2h11.1v11.6h2v-11.6h12.3v-2h-12.3v-6.7ZM184.2,33.1c1.6,0,2.7,0,3.4,0,0,1-.2,2.9-.5,5.5-.3,2.6-.5,4.2-.6,4.6h.9c0-.8.1-1.6.2-2.4,0-.7.1-1.6.2-2.6v-.7c.2-1,.3-2.3.6-4v-.4c.6,0,1.1,0,1.6,0h1c.2,0,.5,0,.8,0v-.8c.1,0-7.5,0-7.5,0v.8ZM201.4,32.4c0,.6,0,1.3-.2,2,0,.7-.2,1.6-.3,2.7h-5.4c.2-1.8.4-3.4.6-4.8h-.9c0,1.1-.2,3-.5,5.7-.3,2.7-.5,4.4-.6,5.1h.9c0-1.1.1-2,.2-2.7,0-.8.2-1.7.3-2.7h5.4c-.1,1-.2,2.1-.3,3.2-.1,1.1-.2,1.8-.3,2.2h.9c.1-2,.3-4,.5-6.1.2-2.1.4-3.7.6-4.7h0s-.9,0-.9,0ZM206.3,37.5l-.3,2.3-.2,1.6c0,.9-.2,1.5-.2,1.8h6.1l.2-.8c-1.7,0-3.5.1-5.3.1,0-.7.1-1.6.2-2.5,0-1,.2-1.7.2-2.2.7,0,1.5,0,2.2,0,.7,0,1.3,0,1.6,0v-.8c-.7,0-2,.1-3.8.1l.2-1.4h0s.3-2.7.3-2.7c1.7,0,3.3,0,4.7,0v-.8c.1,0-5.5,0-5.5,0,0,1.6-.2,3.3-.5,5.1ZM226.9,39c.3.6.8,2,1.3,4.2h-.9c-.4-1.7-.7-2.9-1-3.5-.3-.6-.6-1.1-1-1.2-.3-.2-1-.3-2-.3s-1.2,0-1.4,0c-.2,2.1-.4,3.8-.4,5h-1c0-.5.3-2,.5-4.4.3-2.4.5-4.5.6-6.4h.9c.2,0,.5,0,1,0,.5,0,.8,0,1,0,1,0,1.7.2,2.3.7h0c.5.5.8,1.1.8,1.8s-.2,1.2-.6,1.7c-.4.5-1,1-1.7,1.2h0c.6.2,1.1.6,1.4,1.2ZM223.4,37.5c1.1,0,2-.2,2.6-.7s.9-1.1.9-2-.2-1.1-.6-1.4c-.4-.3-1.1-.4-2.2-.4s-1.1,0-1.5.1l-.5,4.5c.1,0,.3,0,.5,0h.8,0ZM232,38.1c-.3,2.7-.5,4.4-.6,5h.9c.1-1.9.3-3.8.5-5.8.2-1.9.4-3.6.6-5h-.9c0,1.1-.2,3-.5,5.8ZM242.6,37.2c-1.6,2.7-2.4,4.3-2.5,4.8h0c0-.3-.1-.9-.3-1.7-.2-.8-.6-1.8-1-3.1-.5-1.2-.8-2.3-1.1-3.1-.2-.8-.4-1.4-.4-1.8h-.8c0,.4.2,1.1.5,2.1.3,1,.7,2.2,1.3,3.5.5,1.3.9,2.4,1.1,3.3.2.9.3,1.5.3,1.9h.7c0-.3.2-.9.7-1.9.5-1,1.1-2.2,2-3.6.9-1.4,1.6-2.6,2.1-3.5.5-.9.7-1.5.7-1.8h-.8c0,.6-.8,2.2-2.4,4.8ZM248.6,37.5l-.3,2.3-.2,1.6c0,.9-.2,1.5-.2,1.8h6.1l.2-.8c-1.7,0-3.5.1-5.3.1,0-.7.1-1.6.2-2.5,0-1,.2-1.7.2-2.2.7,0,1.5,0,2.2,0s1.3,0,1.6,0v-.8c-.7,0-2,.1-3.8.1l.2-1.4h0s.3-2.7.3-2.7c1.7,0,3.3,0,4.7,0v-.8c.1,0-5.5,0-5.5,0,0,1.6-.2,3.3-.5,5.1ZM263.8,39c.3.6.8,2,1.3,4.2h-.9c-.4-1.7-.7-2.9-1-3.5-.3-.6-.6-1.1-1-1.2-.3-.2-1-.3-2-.3s-1.2,0-1.4,0c-.2,2.1-.4,3.8-.4,5h-1c0-.5.3-2,.5-4.4.3-2.4.5-4.5.6-6.4h.9c.2,0,.5,0,1,0,.5,0,.8,0,1,0,1,0,1.7.2,2.3.7h0c.5.5.8,1.1.8,1.8s-.2,1.2-.6,1.7c-.4.5-1,1-1.7,1.2h0c.6.2,1.1.6,1.4,1.2ZM260.3,37.5c1.1,0,2-.2,2.6-.7.6-.5.9-1.1.9-2s-.2-1.1-.6-1.4c-.4-.3-1.1-.4-2.2-.4s-1.1,0-1.5.1l-.5,4.5c.1,0,.3,0,.5,0h.8,0ZM271.8,32.8c.9,0,1.7.1,2.4.4l.3-.8c-.5-.2-1.2-.2-2.2-.2s-2.1.3-2.7.8c-.6.5-1,1.2-1,2.1s.2,1.1.6,1.5c.4.4,1,.8,2,1.3,1,.4,1.6.8,1.9,1.2.3.4.4.9.4,1.4s-.3,1.2-.8,1.6c-.5.4-1.3.6-2.2.6h0c-.5,0-.9,0-1.3-.1-.4,0-.8-.2-1-.3l-.3.8c.3.1.7.2,1.2.2.5,0,.9,0,1.3,0,2.7,0,4.1-1,4.1-3.1s-.2-1.3-.6-1.8c-.4-.5-1.1-.9-2.1-1.3-1-.4-1.6-.8-1.8-1.1h0c-.2-.3-.4-.7-.4-1.2s.2-1.1.7-1.5c.5-.4,1-.6,1.7-.6ZM279.6,34c-1.1,1.2-1.7,2.7-1.7,4.5s.4,2.7,1.2,3.6c.8.9,1.9,1.3,3.3,1.3s1.5-.1,2.4-.3v-.8c-.3.2-.7.3-1.1.4-.4,0-.8.1-1.2.1-1.2,0-2.1-.4-2.8-1.2h0c-.7-.8-1-1.8-1-3.2s.5-2.8,1.4-3.8c.9-1,2.1-1.6,3.6-1.6s.5,0,.7,0c.3,0,.5.1.7.2l.3-.8c-.5-.2-1-.2-1.6-.2-1.7,0-3.1.6-4.2,1.8ZM294.9,37.8c1.1,3.3,1.6,5.1,1.6,5.3h-.9c0-.1-.3-1.4-1-3.9h-4.9c0,.2-.2.4-.4.8l-.4.8c-.2.5-.4.9-.6,1.4s-.3.8-.3.9h-1c0-.1.7-1.3,1.9-3.6,1.2-2.3,2.1-4,2.6-5.2.6-1.2.8-1.8.9-2h1.1c0,.3.5,2.1,1.6,5.5ZM294.4,38.6c-1.1-3.5-1.6-5.4-1.6-5.6h0c0,0-.2.6-.7,1.5-.4.9-1.1,2.3-2.1,4.1h4.5ZM307.3,34.9c0,1.1-.4,2-1.3,2.7-.8.6-2.1,1-3.7,1h-.8c-.1,0-.2,0-.3,0-.2,1.7-.3,3.3-.4,4.6h-.9c0-.3.2-1.8.5-4.5.3-2.7.5-4.8.6-6.3h.9c.3,0,.8,0,1.4,0h.7c1,0,1.7.2,2.3.7.6.5.9,1.1.9,1.9ZM306.5,35.1c0-.8-.2-1.3-.7-1.7h0c-.5-.3-1.2-.5-2.3-.5s-.7,0-.9,0c-.2,0-.5,0-.8,0l-.6,4.8c.2,0,.5,0,1.2,0,1.4,0,2.4-.2,3.1-.7.7-.5,1-1.2,1-2ZM311.7,35.7l.3-2.7c1.7,0,3.3,0,4.7,0v-.8c.1,0-5.5,0-5.5,0,0,1.6-.2,3.3-.5,5.1l-.3,2.3-.2,1.6c0,.9-.2,1.5-.2,1.8h6.1l.2-.8c-1.7,0-3.5.1-5.3.1,0-.7.1-1.6.2-2.5,0-1,.2-1.7.2-2.2.7,0,1.5,0,2.2,0s1.3,0,1.6,0v-.8c-.7,0-2,.1-3.8.1l.2-1.4h0Z" fill="#333"/>
</svg>