<svg width="317" height="45" viewBox="0 0 317 45" fill="none" xmlns="http://www.w3.org/2000/svg">
<path d="M13.1106 22.3061H6.70173V3.85474H5.1015V23.9016H13.1106C14.1721 23.9016 15.0356 24.7625 15.0356 25.8209V28.2143H1.8139V29.8098H7.32756C8.26235 39.0434 0.586004 42.89 0.245361 43.0558L0.593925 43.7747L0.942491 44.4934C1.03755 44.446 9.8705 40.0623 8.92779 29.8098H15.0277V43.1902H16.6279V25.8209C16.6279 23.8858 15.0435 22.3061 13.1026 22.3061" fill="#333333"/>
<path d="M0.86349 44.7462L0 42.9769L0.166363 42.8979C0.491162 42.7399 7.96946 38.9802 7.16142 30.0073H1.63192V28.0405H14.8536V25.8289C14.8536 24.8731 14.0773 24.0991 13.1187 24.0991H4.91951V3.68103H6.89208V22.1323H13.1108C15.1546 22.1323 16.8262 23.791 16.8262 25.8368V43.3955H14.8536V30.0152H9.1419C9.94994 40.1808 1.12492 44.6356 1.02985 44.6751L0.86349 44.762V44.7462ZM0.499082 43.1428L1.02985 44.2407C2.24191 43.5772 9.60137 39.1145 8.75373 29.8335L8.73788 29.6281H15.2259V43.0085H16.4538V25.821C16.4538 23.9885 14.9566 22.4878 13.1108 22.4878H6.51975V4.03648H5.29185V23.7121H13.1187C14.2832 23.7121 15.2259 24.6599 15.2259 25.8131V28.396H2.00425V29.6202H7.50206L7.5179 29.7861C8.40516 38.5063 1.68737 42.503 0.499082 43.1349" fill="#333333"/>
<path d="M22.6885 25.8209C22.6885 24.7625 23.552 23.9016 24.6135 23.9016H32.6226V3.85474H31.0224V22.3061H24.6135C22.6647 22.3061 21.0883 23.8858 21.0883 25.8209V43.1902H22.6885V29.8098H30.4757V43.0401H32.076V29.8098H36.8291V28.2143H22.6885V25.8209Z" fill="#333333"/>
<path d="M22.8704 43.3798H20.8978V25.8211C20.8978 23.7832 22.5614 22.1166 24.6132 22.1166H30.8319V3.66528H32.8045V24.0834H24.6053C23.6467 24.0834 22.8704 24.8654 22.8704 25.8132V28.0248H37.011V29.9916H32.2579V43.2219H30.2853V29.9916H22.8704V43.3719V43.3798ZM21.2702 43.0086H22.4981V29.6282H30.6576V42.8585H31.8855V29.6282H36.6387V28.4039H22.4981V25.8211C22.4981 24.6599 23.4487 23.72 24.6053 23.72H32.4321V4.0444H31.2042V22.4957H24.6132C22.7753 22.4957 21.2702 23.9886 21.2702 25.829V43.0165V43.0086Z" fill="#333333"/>
<path d="M79.9482 9.44689V7.85134H63.7954V0.181763H62.1952V7.85134H46.2008V9.44689H62.1952V18.4751H48.8705V20.0706H77.4924V18.4751H63.7954V9.44689H79.9482Z" fill="#333333"/>
<path d="M77.6824 20.2602H48.6802V18.2935H62.0049V9.63651H46.0105V7.66975H62.0049V0.00012207H63.9774V7.66975H80.1302V9.63651H63.9774V18.2935H77.6744V20.2602H77.6824ZM49.0525 19.889H77.31V18.6647H63.613V9.2653H79.7658V8.04101H63.613V0.371385H62.3851V8.04101H46.3908V9.2653H62.3851V18.6647H49.0604V19.889H49.0525Z" fill="#333333"/>
<path d="M26.665 15.2367V1.5957H25.0647V2.59885H13.0076V1.5957H11.4073V18.7516H23.1397C25.0885 18.7516 26.665 17.1719 26.665 15.2367ZM25.0647 12.4406H13.0076V9.12316H25.0647V12.4406ZM25.0647 7.51971H13.0076V4.20226H25.0647V7.51971ZM13.0076 14.0361H25.0647V15.2367C25.0647 16.2951 24.2013 17.1561 23.1397 17.1561H13.0076V14.0361Z" fill="#333333"/>
<path d="M23.1399 18.9411H11.2174V1.41394H13.19V2.41704H24.8748V1.41394H26.8474V15.2366C26.8474 17.2745 25.1838 18.9411 23.132 18.9411M11.5897 18.5698H23.1399C24.9857 18.5698 26.483 17.077 26.483 15.2366V1.78515H25.2551V2.7883H12.8256V1.78515H11.5977V18.5698H11.5897ZM23.1399 17.3455H12.8176V13.8544H25.2471V15.2445C25.2471 16.4056 24.3044 17.3455 23.1399 17.3455ZM13.19 16.9743H23.132C24.0905 16.9743 24.8669 16.2003 24.8669 15.2445V14.2256H13.182V16.9743H13.19ZM25.2471 12.6301H12.8176V8.94135H25.2471V12.6301ZM13.19 12.2509H24.8748V9.30471H13.19V12.2509ZM25.2471 7.70916H12.8176V4.02049H25.2471V7.70916ZM13.19 7.33794H24.8748V4.39171H13.19V7.33794Z" fill="#333333"/>
<path d="M72.5569 27.2111H53.2749V26.208H51.6747V43.3639H64.0883C69.6416 43.3639 74.165 38.8617 74.165 33.3168V26.0658H72.5648V27.2111H72.5569ZM64.0804 41.7605H53.2749V28.8067H72.5569V33.3168C72.5569 37.977 68.7544 41.7605 64.0804 41.7605Z" fill="#333333"/>
<path d="M64.0804 43.5454H51.4845V26.0183H53.4571V27.0214H72.3667V25.8761H74.3393V33.3088C74.3393 38.9484 69.7366 43.5375 64.0804 43.5375M51.8568 43.1663H64.0804C69.5306 43.1663 73.9669 38.7431 73.9669 33.3088V26.2474H72.739V27.3927H53.0847V26.3895H51.8568V43.1663ZM64.0804 41.942H53.0847V28.617H72.739V33.3088C72.739 38.0717 68.8573 41.942 64.0804 41.942ZM53.4571 41.5708H64.0804C68.6513 41.5708 72.3667 37.8663 72.3667 33.3088V28.9882H53.4571V41.5708Z" fill="#333333"/>
<path d="M111.945 19.9127C112.032 19.9127 120.334 19.2492 122.33 10.6792L120.77 10.3158C119.043 17.709 112.127 18.2935 111.834 18.3172L111.889 19.1149L111.945 19.9127Z" fill="#333333"/>
<path d="M111.77 20.1102L111.636 18.1434L111.826 18.1276C112.111 18.1039 118.9 17.5194 120.595 10.2684L120.635 10.0868L122.56 10.537L122.52 10.7187C120.492 19.3993 112.048 20.0865 111.961 20.0944L111.77 20.1102ZM112.04 18.491L112.127 19.7074C113.355 19.5573 120.255 18.3488 122.116 10.8214L120.92 10.5449C119.241 17.322 113.204 18.3488 112.048 18.491" fill="#333333"/>
<path d="M103.682 14.4073L103.642 13.649H90.4762V15.2446H102.106C102.573 32.7244 87.5292 38.3956 86.8796 38.6246L87.4263 40.1254C87.6005 40.0622 104.664 33.6722 103.674 14.3994" fill="#333333"/>
<path d="M87.3152 40.3703L86.6418 38.522L86.8161 38.4588C87.4499 38.2297 102.28 32.6217 101.923 15.4342H90.2859V13.4674H103.817L103.864 14.3994C104.854 33.767 87.6638 40.2439 87.4895 40.3071L87.3152 40.3703ZM87.1172 38.7353L87.537 39.8806C89.3432 39.146 104.419 32.4637 103.492 14.4074L103.46 13.8307H90.6583V15.055H102.288V15.2367C102.739 32.0372 88.9313 38.0165 87.1172 38.7353Z" fill="#333333"/>
<path d="M109.053 6.09008H108.982V1.60364H107.382V40.8206C107.382 41.879 106.518 42.7399 105.457 42.7399H98.406V44.3354H105.457C107.405 44.3354 108.982 42.7557 108.982 40.8206V18.4831C113.735 33.1193 127.598 38.3799 127.773 38.4431L128.327 36.9423C127.487 36.6342 107.786 29.1305 109.053 6.09008Z" fill="#333333"/>
<path d="M105.457 44.5251H98.2239V42.5584H105.457C106.415 42.5584 107.192 41.7764 107.192 40.8286V1.42212H109.164V5.91647H109.251L109.243 6.10603C107.984 28.9964 127.559 36.4606 128.391 36.7687L128.565 36.8318L127.884 38.6801L127.709 38.6169C127.575 38.5695 114.274 33.5618 109.172 19.5969V40.8207C109.172 42.8586 107.508 44.5251 105.457 44.5251ZM98.5962 44.1539H105.457C107.294 44.1539 108.8 42.6611 108.8 40.8207V17.3063L109.164 18.4279C113.616 32.1321 126.046 37.5427 127.67 38.1983L128.09 37.053C125.959 36.2158 107.746 28.4197 108.863 6.27187H108.8V1.79333H107.572V40.8286C107.572 41.9897 106.621 42.9296 105.465 42.9296H98.6041V44.1539H98.5962Z" fill="#333333"/>
<path d="M164.499 9.27333V3.30979H162.899V9.27333C162.899 10.3318 162.035 11.1927 160.974 11.1927H152.774V1.47729H151.174V11.1927H140.844V3.33351H139.244V12.7882H160.982C162.922 12.7882 164.507 11.2085 164.507 9.27333" fill="#333333"/>
<path d="M160.973 12.9778H139.053V3.15184H141.026V11.0031H150.984V1.28772H152.956V11.0031H160.966C161.924 11.0031 162.708 10.2212 162.708 9.27331V3.12022H164.681V9.27331C164.681 11.3112 163.017 12.9778 160.966 12.9778M139.426 12.6065H160.973C162.819 12.6065 164.316 11.1137 164.316 9.27331V3.49939H163.089V9.27331C163.089 10.4344 162.138 11.3743 160.973 11.3743H152.592V1.65898H151.364V11.3743H140.654V3.52306H139.426V12.5986V12.6065Z" fill="#333333"/>
<path d="M137.461 16.6271V40.8918C137.461 41.8712 136.661 42.669 135.679 42.669H134.459V44.2645H135.679C137.548 44.2645 139.061 42.748 139.061 40.8918V18.2226H167.945V16.6271H137.461Z" fill="#333333"/>
<path d="M135.679 44.446H134.276V42.4792H135.679C136.558 42.4792 137.271 41.7683 137.271 40.8916V16.4452H168.127V18.412H139.244V40.8916C139.244 42.8584 137.643 44.4539 135.671 44.4539M134.641 44.0748H135.671C137.437 44.0748 138.871 42.6451 138.871 40.8916V18.0407H167.755V16.8165H137.643V40.8916C137.643 41.9737 136.756 42.8504 135.671 42.8504H134.641V44.0748Z" fill="#333333"/>
<path d="M154.549 24.2097H165.22V22.6141H143.276V24.2097H152.949V31.3185H141.826V32.9219H152.949V44.5014H154.549V32.9219H166.82V31.3185H154.549V24.2097Z" fill="#333333"/>
<path d="M154.739 44.6829H152.766V33.1035H141.644V31.1367H152.766V24.3991H143.094V22.4324H165.402V24.3991H154.739V31.1367H167.01V33.1035H154.739V44.6829ZM153.139 44.3117H154.367V32.7322H166.638V31.5079H154.367V24.0279H165.029V22.8036H143.466V24.0279H153.139V31.5079H142.016V32.7322H153.139V44.3117Z" fill="#333333"/>
<path d="M190.047 33.0561C189.516 33.0403 188.993 33.0324 188.478 33.0324L188.431 33.4352C188.201 35.1413 188.035 36.4842 187.932 37.4636L187.868 38.1429C187.765 39.1539 187.686 40.0306 187.623 40.7731C187.559 41.5156 187.504 42.3054 187.456 43.1506H186.553C186.625 42.6846 186.815 41.1443 187.108 38.522C187.409 35.8996 187.575 34.0671 187.623 33.0245C186.894 33.0245 185.753 33.0561 184.201 33.1193L184.288 32.3452H191.964L191.829 33.1193C191.465 33.1114 191.188 33.0956 191.013 33.0877L190.047 33.0561Z" fill="#333333"/>
<path d="M202.302 32.3531C202.16 33.38 201.961 34.936 201.716 37.0371C201.47 39.1381 201.288 41.176 201.177 43.1585H200.274C200.337 42.7715 200.433 42.029 200.559 40.9311C200.686 39.8332 200.805 38.7748 200.908 37.7559H195.545C195.434 38.7511 195.347 39.6357 195.275 40.4098C195.212 41.1839 195.149 42.1001 195.085 43.1506H194.182C194.277 42.5187 194.475 40.8284 194.784 38.0876C195.085 35.3389 195.267 33.4274 195.307 32.3531H196.21C196.012 33.6801 195.814 35.2678 195.608 37.1161H200.971C201.09 36.0419 201.177 35.1414 201.248 34.4068C201.32 33.6722 201.367 32.9851 201.399 32.3611H202.294L202.302 32.3531Z" fill="#333333"/>
<path d="M207.19 35.7496L207.024 37.1556C208.766 37.1556 210.058 37.124 210.889 37.0529L210.787 37.8507C210.398 37.827 209.852 37.8112 209.139 37.7954C208.426 37.7796 207.697 37.7717 206.952 37.7717C206.905 38.2772 206.833 39.0197 206.738 39.9833C206.643 40.9469 206.572 41.7921 206.525 42.503C208.347 42.503 210.113 42.4556 211.824 42.3687L211.666 43.1507H205.59C205.645 42.811 205.724 42.2108 205.819 41.334L205.994 39.7227L206.255 37.4558C206.477 35.5996 206.628 33.8934 206.715 32.3374H212.339L212.205 33.1115C210.81 33.0483 209.25 33.0167 207.523 33.0167L207.19 35.7339V35.7496Z" fill="#333333"/>
<path d="M226.916 32.9693C227.462 33.4195 227.731 34.0277 227.731 34.8096C227.731 35.402 227.541 35.9628 227.169 36.5079C226.789 37.045 226.218 37.4636 225.458 37.7559L225.474 37.8033C226.107 38.0007 226.591 38.3957 226.908 38.9881C227.224 39.5805 227.66 40.9706 228.223 43.1506H227.32C226.955 41.4682 226.622 40.2992 226.337 39.6515C226.044 39.0038 225.727 38.5931 225.387 38.4193C225.046 38.2456 224.365 38.1587 223.359 38.1587C222.63 38.1587 222.178 38.1587 221.996 38.1745C221.75 40.2992 221.624 41.9579 221.608 43.1506H220.649C220.729 42.6056 220.903 41.1444 221.188 38.7511C221.465 36.3578 221.663 34.2251 221.774 32.3452H222.677C222.852 32.3452 223.176 32.3374 223.652 32.3216C224.127 32.3058 224.46 32.2979 224.642 32.2979C225.616 32.2979 226.377 32.519 226.923 32.9693M223.398 37.5189C224.515 37.5189 225.379 37.2898 225.989 36.8238C226.599 36.3578 226.908 35.6943 226.908 34.8333C226.908 34.1699 226.702 33.688 226.282 33.3958C225.862 33.1035 225.141 32.9535 224.119 32.9535C223.533 32.9535 223.018 32.9851 222.574 33.0561L222.044 37.511C222.154 37.5189 222.329 37.5268 222.574 37.5268H223.406L223.398 37.5189Z" fill="#333333"/>
<path d="M232.287 43.1506H231.384C231.471 42.5108 231.669 40.8284 231.978 38.1112C232.287 35.3941 232.461 33.4747 232.509 32.3452H233.412C233.214 33.7749 233 35.4573 232.786 37.3925C232.564 39.3277 232.406 41.247 232.295 43.1506" fill="#333333"/>
<path d="M240.391 43.1506H239.662C239.662 42.7873 239.551 42.1633 239.337 41.2865C239.115 40.4098 238.743 39.3039 238.212 37.9691C237.682 36.6342 237.254 35.4731 236.937 34.47C236.62 33.4747 236.462 32.7638 236.462 32.3452H237.293C237.293 32.7244 237.412 33.3168 237.658 34.1303C237.895 34.9439 238.252 35.9628 238.727 37.195C239.195 38.4272 239.543 39.4541 239.765 40.2755C239.987 41.1049 240.09 41.6736 240.09 41.9974H240.153C240.185 41.4524 241.009 39.8569 242.625 37.195C244.241 34.5332 245.041 32.9218 245.041 32.3452H245.889C245.889 32.6454 245.651 33.2457 245.184 34.1461C244.708 35.0466 244.027 36.2077 243.124 37.6294C242.221 39.0512 241.547 40.2439 241.088 41.2233C240.636 42.2028 240.399 42.8425 240.391 43.1506Z" fill="#333333"/>
<path d="M249.517 35.7496L249.35 37.1556C251.093 37.1556 252.385 37.124 253.216 37.0529L253.113 37.8507C252.725 37.827 252.179 37.8112 251.466 37.7954C250.753 37.7796 250.024 37.7717 249.279 37.7717C249.232 38.2772 249.16 39.0197 249.065 39.9833C248.97 40.9469 248.899 41.7921 248.851 42.503C250.673 42.503 252.44 42.4556 254.151 42.3687L253.993 43.1507H247.917C247.972 42.811 248.051 42.2108 248.146 41.334L248.321 39.7227L248.582 37.4558C248.804 35.5996 248.954 33.8934 249.042 32.3374H254.666L254.531 33.1115C253.137 33.0483 251.577 33.0167 249.85 33.0167L249.517 35.7339V35.7496Z" fill="#333333"/>
<path d="M263.784 32.9693C264.331 33.4195 264.6 34.0277 264.6 34.8096C264.6 35.402 264.41 35.9628 264.038 36.5079C263.657 37.045 263.087 37.4636 262.327 37.7559L262.342 37.8033C262.976 38.0007 263.459 38.3957 263.776 38.9881C264.093 39.5805 264.529 40.9706 265.091 43.1506H264.188C263.824 41.4682 263.491 40.2992 263.206 39.6515C262.913 39.0038 262.596 38.5931 262.255 38.4193C261.915 38.2456 261.233 38.1587 260.227 38.1587C259.498 38.1587 259.047 38.1587 258.865 38.1745C258.619 40.2992 258.492 41.9579 258.476 43.1506H257.518C257.597 42.6056 257.771 41.1444 258.057 38.7511C258.334 36.3578 258.532 34.2251 258.643 32.3452H259.546C259.72 32.3452 260.045 32.3374 260.52 32.3216C260.996 32.3058 261.328 32.2979 261.511 32.2979C262.485 32.2979 263.245 32.519 263.792 32.9693M260.267 37.5189C261.384 37.5189 262.247 37.2898 262.857 36.8238C263.467 36.3578 263.776 35.6943 263.776 34.8333C263.776 34.1699 263.57 33.688 263.15 33.3958C262.731 33.1035 262.01 32.9535 260.988 32.9535C260.402 32.9535 259.887 32.9851 259.443 33.0561L258.912 37.511C259.023 37.5189 259.197 37.5268 259.443 37.5268H260.275L260.267 37.5189Z" fill="#333333"/>
<path d="M269.852 36.1287C270.106 36.4525 270.708 36.8237 271.659 37.2345C272.617 37.6452 273.298 38.0875 273.718 38.5693C274.138 39.0433 274.344 39.6277 274.344 40.3307C274.344 42.3844 272.989 43.4033 270.28 43.4033C269.892 43.4033 269.464 43.3717 268.997 43.3164C268.529 43.2611 268.133 43.1822 267.808 43.0795L268.086 42.2817C268.355 42.416 268.696 42.5266 269.124 42.6134C269.551 42.7082 269.987 42.7477 270.439 42.7477H270.518C271.492 42.724 272.245 42.5187 272.76 42.1237C273.283 41.7288 273.544 41.1996 273.544 40.5282C273.544 39.9516 273.409 39.4777 273.148 39.0985C272.886 38.7194 272.253 38.3166 271.27 37.8821C270.288 37.4477 269.607 37.0212 269.242 36.6026C268.87 36.1839 268.688 35.6863 268.688 35.0939C268.688 34.2014 269.005 33.4905 269.638 32.9771C270.272 32.4636 271.167 32.203 272.324 32.203C273.275 32.203 274.011 32.2741 274.518 32.4242L274.225 33.2219C273.544 32.9613 272.744 32.8349 271.825 32.8349C271.167 32.8349 270.613 33.0324 270.161 33.4273C269.71 33.8222 269.48 34.3119 269.48 34.9122C269.48 35.3941 269.607 35.7969 269.852 36.1208" fill="#333333"/>
<path d="M279.763 41.5392C280.444 42.3133 281.379 42.6925 282.575 42.6925C282.995 42.6925 283.407 42.6529 283.803 42.5661C284.199 42.4871 284.603 42.3607 285.015 42.2106L284.88 43.0321C283.945 43.2612 283.145 43.3717 282.48 43.3717C281.07 43.3717 279.953 42.9294 279.145 42.0527C278.337 41.168 277.933 39.9674 277.933 38.4509C277.933 36.6737 278.495 35.1887 279.62 33.996C280.745 32.7954 282.139 32.203 283.803 32.203C284.413 32.203 284.959 32.282 285.443 32.44L285.15 33.2219C284.904 33.135 284.658 33.064 284.405 33.0166C284.151 32.9692 283.922 32.9455 283.7 32.9455C282.258 32.9455 281.07 33.4668 280.143 34.5015C279.208 35.5442 278.749 36.8237 278.749 38.3403C278.749 39.6989 279.089 40.7652 279.771 41.5392" fill="#333333"/>
<path d="M289.625 39.2961C289.538 39.4856 289.404 39.7384 289.221 40.0702L288.794 40.8837C288.564 41.3339 288.358 41.7842 288.168 42.2344C287.978 42.6846 287.867 42.9927 287.835 43.1585H286.861C286.916 43.0321 287.542 41.8236 288.746 39.5409C289.95 37.2582 290.83 35.5205 291.376 34.3436C291.931 33.1667 292.216 32.5032 292.248 32.3531H293.317C293.317 32.6612 293.848 34.4937 294.917 37.8348C295.987 41.176 296.518 42.9532 296.518 43.1585H295.591C295.591 43.0321 295.242 41.7447 294.553 39.304H289.61L289.625 39.2961ZM292.731 33.064C292.723 33.1272 292.493 33.6169 292.057 34.5174C291.622 35.4178 290.925 36.8001 289.966 38.6484H294.434C293.341 35.1572 292.794 33.2931 292.794 33.0561H292.731V33.064Z" fill="#333333"/>
<path d="M304.036 32.2979C304.994 32.2979 305.778 32.5348 306.38 33.0088C306.983 33.4827 307.284 34.1146 307.284 34.8965C307.284 36.034 306.864 36.9265 306.032 37.5663C305.2 38.206 303.964 38.5299 302.34 38.5299H301.532C301.429 38.522 301.318 38.522 301.199 38.5141C301.017 40.2518 300.891 41.7999 300.827 43.1506H299.924C299.972 42.811 300.146 41.3023 300.463 38.6247C300.772 35.947 300.97 33.8539 301.049 32.3452H301.992C302.301 32.3452 302.76 32.3374 303.354 32.3137L304.036 32.2979ZM305.842 33.4668C305.382 33.1193 304.622 32.9455 303.56 32.9455C303.164 32.9455 302.855 32.9456 302.633 32.9614C302.412 32.9693 302.15 33.0008 301.841 33.0403L301.263 37.8664C301.413 37.8743 301.802 37.8822 302.419 37.8822C303.814 37.8822 304.851 37.6374 305.525 37.1397C306.198 36.6421 306.531 35.9707 306.531 35.1098C306.531 34.3515 306.301 33.7986 305.842 33.459" fill="#333333"/>
<path d="M311.728 35.7496L311.561 37.1556C313.304 37.1556 314.595 37.124 315.427 37.0529L315.324 37.8507C314.936 37.827 314.389 37.8112 313.676 37.7954C312.963 37.7796 312.235 37.7717 311.49 37.7717C311.442 38.2772 311.371 39.0197 311.276 39.9833C311.181 40.9469 311.11 41.7921 311.062 42.503C312.884 42.503 314.643 42.4556 316.362 42.3687L316.204 43.1507H310.127C310.183 42.811 310.262 42.2108 310.357 41.334L310.531 39.7227L310.793 37.4558C311.015 35.5996 311.165 33.8934 311.252 32.3374H316.877L316.742 33.1115C315.348 33.0483 313.787 33.0167 312.06 33.0167L311.728 35.7339V35.7496Z" fill="#333333"/>
</svg>
