<svg viewBox="0 0 560 120" fill="#fff" xmlns="http://www.w3.org/2000/svg" xmlns:xlink="http://www.w3.org/1999/xlink">
<defs>
<linearGradient id="paint0" x1="2.2" y1="0" x2="120.9" y2="0" gradientUnits="userSpaceOnUse">
<stop stop-color="#BD935B"/>
<stop offset="0.31" stop-color="#FAE9A9"/>
<stop offset="0.57" stop-color="#E5BB8F"/>
</linearGradient>
<linearGradient id="gr1" x1="0" y1="0" x2="80" y2="30" gradientUnits="userSpaceOnUse">
<stop offset="0" stop-color="#fff0"/>
<stop offset=".5" stop-color="#fff"/>
<stop offset="1" stop-color="#fff0"/>
<animate attributeName="x1" values="-190;2000" dur="8s" repeatCount="indefinite"/>
<animate attributeName="x2" values="-100;2090" dur="8s" repeatCount="indefinite"/>
</linearGradient>
<path id="lo" d="M85.5,60c6.3-3.5,12.7-3.5,19.2,0-6.5,3.5-12.9,3.5-19.2,0ZM60.1,104.6c3.5-6.5,3.5-12.9,0-19.2-3.5,6.3-3.5,12.7,0,19.2ZM83.3,83.4c-1.4,5.9,12.9,20,14.7,14.7,5.3-1.8-8.8-16.1-14.7-14.7ZM83.4,36.8c5.9,1.4,20-12.9,14.7-14.7-1.8-5.3-16.1,8.8-14.7,14.7ZM36.9,36.7c1.4-5.9-12.9-20-14.7-14.7-5.3,1.8,8.8,16.1,14.7,14.7ZM36.7,83.2c-5.9-1.4-20,12.9-14.7,14.7,1.8,5.3,16.1-8.8,14.7-14.7ZM69.4,66.6c2.4-1.3,4-3.8,4-6.7s-1.6-5.4-4-6.6h0c.2,2.3-.5,4.8-2,6.7,1.5,1.9,2.2,4.3,2,6.6ZM60.1,15.4c-3.5,6.5-3.5,12.9,0,19.2,3.5-6.3,3.5-12.7,0-19.2ZM63.1,63.1c-.4,1.1-.9,2.1-1.7,3,1.7,1.3,3.9,1.7,5.9,1.3.4-2,0-4.2-1.3-5.9-.9.7-1.9,1.3-3,1.7ZM58.7,66.1c-.8-.9-1.3-1.9-1.7-3-1.1-.4-2.1-.9-3-1.7-1.3,1.8-1.8,4-1.3,6,2.1.4,4.3,0,6-1.3ZM60.1,67.4c-1.9,1.6-4.3,2.2-6.7,2h0c1.3,2.4,3.8,4,6.6,4s5.4-1.6,6.7-4c-2.3.2-4.7-.5-6.6-2ZM15.5,60c6.5,3.5,12.9,3.5,19.2,0-6.3-3.5-12.7-3.5-19.2,0ZM119.5,60c-6.7,9.2-10.2,18.9-10.7,32.7,0,1.4-1.7,2-2.6,1-8.8-9.5-17.6-16.6-30.4-18,1.4,12.8,8.5,21.6,18,30.4,1,.9.4,2.6-1,2.6-13.9.4-23.6,3.9-32.7,10.7-9.2-6.7-18.9-10.2-32.7-10.7-1.4,0-2-1.7-1-2.6,9.5-8.8,16.6-17.6,18-30.4-12.8,1.4-21.6,8.5-30.4,18-.9,1-2.6.4-2.6-1-.4-13.9-3.9-23.6-10.7-32.7,6.7-9.2,10.2-18.9,10.7-32.7,0-1.4,1.7-2,2.6-1,8.8,9.5,17.6,16.6,30.4,18-1.4-12.8-8.5-21.6-18-30.4-1-.9-.4-2.6,1-2.6,13.9-.4,23.6-3.9,32.7-10.7,9.2,6.7,18.9,10.2,32.7,10.7,1.4,0,2,1.7,1,2.6-9.5,8.8-16.6,17.6-18,30.4,12.8-1.4,21.6-8.5,30.4-18,.9-1,2.6-.4,2.6,1,.4,13.9,3.9,23.6,10.7,32.7ZM75.6,47.7c.1,1.9.4,3.7.8,5.6,16.1-7.3,28.5-1,38.8,6.2-4.4-6-8.6-16.9-9.7-27.8-10,9.8-20.1,15.3-29.9,16ZM78.8,60c-.6,1.3-1.1,2.5-1.5,3.8,10.6,5,21.4,4,33-3.8-11.6-7.8-22.4-8.8-33-3.8.4,1.3.9,2.5,1.5,3.8ZM88.4,14.6c-10.8-1.1-21.7-5.3-27.8-9.7,7.1,10.3,13.5,22.7,6.2,38.8,1.9.4,3.7.7,5.6.8.7-9.8,6.2-19.9,16-29.9ZM60.1,110.2c7.8-11.6,8.8-22.4,3.8-33-1.3.4-2.5.9-3.8,1.5-1.3-.6-2.5-1.1-3.8-1.5-5,10.6-4,21.4,3.8,33ZM69,68.9c3.7-1.3,6.4-4.8,6.4-8.9s-2.7-7.6-6.3-8.9c-1.3-3.7-4.8-6.3-8.9-6.3s-7.6,2.7-8.9,6.4c-3.7,1.3-6.4,4.8-6.4,8.9s2.7,7.6,6.3,8.9c1.3,3.7,4.8,6.3,8.9,6.3s7.6-2.7,8.9-6.4ZM60.1,9.8c-7.8,11.6-8.8,22.4-3.8,33,1.3-.4,2.5-.9,3.8-1.5,1.3.6,2.5,1.1,3.8,1.5,5-10.6,4-21.4-3.8-33ZM47.8,44.5c1.9-.1,3.7-.4,5.6-.8-7.3-16.1-1-28.5,6.2-38.8-6,4.4-16.9,8.6-27.8,9.7,9.8,10,15.3,20.1,16,29.9ZM5,59.5c10.3-7.1,22.7-13.5,38.8-6.2.4-1.9.7-3.7.8-5.6-9.8-.7-19.9-6.2-29.9-16-1.1,10.8-5.3,21.7-9.7,27.8ZM41.4,60c.6-1.3,1.1-2.5,1.5-3.8-10.6-5-21.4-4-33,3.8,11.6,7.8,22.4,8.8,33,3.8-.4-1.3-.9-2.5-1.5-3.8ZM44.6,72.3c0-1.9-.4-3.7-.8-5.6-16.1,7.3-28.5,1-38.8-6.2,4.4,6,8.6,16.9,9.7,27.8,10-9.8,20.1-15.3,29.9-16ZM31.8,105.4c10.8,1.1,21.7,5.3,27.8,9.7-7.1-10.3-13.5-22.7-6.2-38.8-1.9-.4-3.7-.7-5.6-.8-.7,9.8-6.2,19.9-16,29.9ZM72.4,75.5c-1.9,0-3.7.4-5.6.8,7.3,16.1,1,28.5-6.2,38.8,6-4.4,16.9-8.6,27.8-9.7-9.8-10-15.3-20.1-16-29.9ZM115.2,60.6c-10.3,7.1-22.7,13.5-38.8,6.2-.4,1.9-.7,3.7-.8,5.6,9.8.7,19.9,6.2,29.9,16,1.1-10.8,5.3-21.7,9.7-27.8ZM50.7,53.4c-2.4,1.3-4,3.8-4,6.7s1.6,5.4,4,6.6h0c-.2-2.3.5-4.8,2-6.7-1.5-1.9-2.2-4.3-2-6.6ZM61.4,54c.8.9,1.3,1.9,1.7,3,1.1.4,2.1.9,3,1.7,1.3-1.8,1.8-4,1.3-6-2.1-.4-4.3,0-6,1.3ZM60,52.6c1.9-1.6,4.3-2.2,6.7-2h0c-1.3-2.4-3.8-4-6.6-4s-5.4,1.6-6.7,4c2.3-.2,4.7.5,6.6,2ZM58,58c-.3,1.3-.3,2.7,0,4.1,1.3.3,2.7.3,4.1,0,.3-1.3.3-2.7,0-4.1-1.3-.3-2.7-.3-4.1,0ZM57,57c.4-1.1.9-2.1,1.7-3-1.7-1.3-3.9-1.7-5.9-1.3-.4,2,0,4.2,1.3,5.9.9-.7,1.9-1.3,3-1.7Z"/>
</defs>
  <path stroke="url(#gr1)" stroke-width="3" d="M169.9,11.4c.3-.9.1-2-1.1-2.2-2.5-.5-9.3-1.9-10.3-2.1-.4,0-.7,0-.8.5-5.5,21.8-12.6,40.2-21.8,56.3-.2.3,0,.8.3.9l8.8,4.5c.3.2.8,0,.9-.3l3.2-9.5c.2-.3.7-.2.7.2v52.9c0,1.3,1.1,2.4,2.4,2.4h7.8c1.3,0,2.4-1.1,2.4-2.4V37c0-.8.1-1.6.4-2.3.7-2.3,5.5-16.6,7.1-23.3h0ZM233.2,105.7h-20.8c-2.9,0-5.3-2.4-5.3-5.3v-19.8h21.8c.8,0,1.4-.6,1.4-1.4v-1.9c0-.8-.6-1.4-1.4-1.4h-16.5c-2.9,0-5.3-2.4-5.3-5.3v-9.4c0-.4-.3-.7-.7-.7h-11.3c-.4,0-.7.3-.7.7v14.8h-21c-.8,0-1.4.6-1.4,1.4v1.9c0,.8.6,1.4,1.4,1.4h21v25.1h-25.9c-.8,0-1.4.6-1.4,1.4v3.5c0,.8.6,1.4,1.4,1.4h64.8c.8,0,1.4-.6,1.4-1.4v-3.6c0-.8-.6-1.4-1.4-1.4h-.1ZM194.3,27.9v20.8h-23.9c-.8,0-1.4.6-1.4,1.4v3.6c0,.8.6,1.4,1.4,1.4h61.1c.8,0,1.4-.6,1.4-1.4v-3.7c0-.8-.6-1.4-1.4-1.4h-19.1c-2.9,0-5.3-2.4-5.3-5.3v-15.4h20.9c.8,0,1.4-.6,1.4-1.4v-2c0-.8-.6-1.4-1.4-1.4h-15.6c-2.9,0-5.3-2.4-5.3-5.3V7.2c0-.4-.3-.7-.7-.7h-11.3c-.4,0-.7.3-.7.7v15.9h-20.7c-.8,0-1.4.6-1.4,1.4v2c0,.8.6,1.4,1.4,1.4h20.6ZM349.7,112c1.2,0,1.7-1.5.8-2.3-7.9-6.7-13.3-11.6-17-15.1-1.6-1.5-1.7-3.9,0-5.3l7.5-6.5c.3-.2.3-.7,0-1l-5.5-6.3c-.1-.2-.8-.4-1,0l-10.9,9.4c-3.6-4.1-5.8-7-10.2-12.5h28.6c.9,0,1.6-.7,1.6-1.6v-1.7c0-.9-.7-1.6-1.6-1.6h-11.8c-2.1,0-3.8-1.7-3.8-3.8v-10.5h12c.9,0,1.6-.7,1.6-1.6v-1.7c0-.9-.7-1.6-1.6-1.6h-8.3c-2.1,0-3.8-1.7-3.8-3.8v-5.5c0-.4-.3-.7-.7-.7h-11.1c-.4,0-.7.3-.7.7v9.2h-15.3c-2.1,0-3.8-1.7-3.8-3.8v-5.5c0-.4-.3-.7-.7-.7h-11.2c-.4,0-.7.3-.7.7v9.4h-12.2c-.4,0-.7.3-.7.7v3.5c0,.4.3.7.7.7h12.1v14.2h-11.5c-2.4,0-4.4-2-4.4-4.4l.4-29.3h68.3c2.7,0,4.9-2.2,4.9-4.9v-14.1c0-2.7-2.2-4.9-4.9-4.9h-78.9c-1.2,0-2.1.9-2.1,2.1v37.2c0,23.2-2.5,38.4-7.8,60.3-.3,1.2.6,2.4,1.8,2.4h9.1c.9,0,1.6-.6,1.8-1.4,3-12,5.4-26.3,6.7-38h10.4v33.7l-5.3,1.3c-.4,0-.6.5-.5.9l1.4,5.7c.1.4.5.6.9.5l34.6-8.6c.4,0,.6-.5.5-.9l-1.4-5.5c-.1-.4-.5-.5-.9-.5l-12,2.9c-2.3.6-4.6-1.2-4.6-3.6v-26h7.9s35.1,38.3,36.4,39.5h16.7l.2.2ZM266.6,14.8h60.5v14.1h-56.1c-2.5,0-4.4-2-4.4-4.4v-9.6h0ZM298.5,67.5c-2.1,0-3.8-1.7-3.8-3.8v-10.3h19v14.1h-15.2ZM552.7,12.2h-34.1c-.4,0-.7.3-.7.7v86.1c0,5.1,4.1,9.2,9.2,9.2h31.4c.4,0,.7-.3.7-.7V18.6c0-3.6-2.9-6.5-6.5-6.5h0ZM530.5,94.9V17h16.1v86.5h-7.6c-4.7,0-8.5-3.8-8.5-8.5h0ZM468.2,13.9l.6,5.6c0,.4.4.6.8.6l15.2-2v21.3h-17.8c-.9,0-1.7.7-1.7,1.7v1.6c0,.9.7,1.7,1.7,1.7h12c2.2,0,3.7,2.2,3,4.3-5.2,14.6-11.1,27.4-18,39.1-.2.3,0,.8.3.9.7.4,7.2,4.1,7.8,4.4.3.2.7,0,.9-.2,3.2-5.2,7.9-14.7,10.4-19.8.4-.8,1.6-.5,1.6.4v35.8c0,2,1.6,3.6,3.6,3.6h5.4c2,0,3.6-1.6,3.6-3.6v-41.4c0-1.1,1.4-1.6,2.1-.7l9.4,12.8c.2.3.6.4.9.2,1.2-.8,4.4-3.1,6.1-4.3s.4-.6.2-.9c-2.6-3.5-14.5-20-18.6-25.6v-4.2c0-.4.4-.8.8-.8h13.4c.9,0,1.7-.7,1.7-1.7v-1.6c0-.9-.7-1.7-1.7-1.7h-6.6c-4.1,0-7.5-3.3-7.5-7.5v-15.7l13.4-2.4c.4,0,.7-.5.5-.8l-1.3-5.5c0-.4-.4-.6-.8-.5l-40.6,6.2c-.4,0-.7.4-.6.8h-.2ZM365.9,39h4.1c2.4,0,4.3-1.9,4.3-4.3v-11.4h65.1v11.3c0,2.4,1.9,4.3,4.3,4.3h3.9c2.4,0,4.3-1.9,4.3-4.3v-14.5c0-1.9-1.5-3.4-3.4-3.4h-34.8v-7.3c0-2.6-2.1-4.6-4.6-4.6h-3.4c-2.5,0-4.6,2.1-4.6,4.6v7.4h-35.9c-1.9,0-3.4,1.5-3.4,3.4v14.5c0,2.4,1.9,4.3,4.3,4.3h-.2ZM386.7,50.6c-.2.5-.4.6-1,.6h-24.9c-.9,0-1.7.8-1.7,1.7v1.5c0,1,.8,1.7,1.7,1.7h22.6l-12.6,22.4c-.2.4,0,.8.3,1l20.3,8.3c2.3.9,2.4,4.2.1,5.2-9.2,4.1-19.4,6.7-31.5,7.9-1.2,0-2,1.2-1.9,2.3l.8,9.7c0,.4.3.6.7.6,18.3-1.3,36.7-6.7,51.7-17.4h0c11.1-7.8,20.6-18.2,26.3-30.7.8-1.7-.5-3.8-2.4-3.8h-8.1c-1,0-1.9.5-2.3,1.4-3.7,6.8-8.6,12.9-14.8,18.1,0,0-.3,0-.5,0h0c-6.1-2.6-12.4-5.3-18.4-7.9-1-.4-1.4-1.6-1-2.5,1.6-3.5,5.3-11.3,6.9-14.5.3-.5.3-.6.6-.6h54.6c.9,0,1.7-.8,1.7-1.7v-1.4c0-1-.8-1.7-1.7-1.7h-48.2c-1.7,0-2.9-1.7-2.3-3.4l6.1-15.3c.2-.4,0-.8-.4-.9l-10.5-4.3c-.4-.2-.8,0-1,.4l-9.3,22.9v.3ZM456.3,105.7c1.3-1.3.9-3.5-.8-4.3l-26-11.3c-.8-.4-1.7-.2-2.3.4-2.5,2.4-5.5,5.2-8.1,7.5-.5.5-.4,1.3.3,1.6,10.8,4.6,16.7,6.9,28.4,12.1,1,.4,2.1.2,2.9-.5l5.7-5.5h-.1Z"/>
<use xlink:href="#lo" fill="url(#paint0)"/>
<use xlink:href="#lo" fill="url(#gr1)"/>
</svg>