<?xml version="1.0" encoding="UTF-8"?>
<svg id="_圖層_1" data-name="圖層_1" xmlns="http://www.w3.org/2000/svg" version="1.1" viewBox="0 0 361 725">
  <!-- Generator: Adobe Illustrator 30.0.0, SVG Export Plug-In . SVG Version: 2.1.1 Build 123)  -->
  <path d="M34.3,27.5h.2c-3.4,5.1-8.6,8.4-15.3,8.4-10.5,0-14.2-8-12.4-18C8.6,8,15.5,0,26,0s9,1.9,11.2,5.2c1.7,2.5.6,6.4-2.5,7.7,0-7.6-3-12.6-8.8-12.6-7,0-13.2,7.8-14.9,17.7-1.8,9.9,2.6,17,9.6,17s10.1-2.1,13.7-7.4h0ZM64.3,35.8h.7,0c0,.1-11.6.1-11.6.1h0c0-.1.7-.1.7-.1,2.2,0,3.5-.2,3.9-2.3l3.1-17.4c.5-2.6,1.1-5.9-3.4-5.9s-9.9,5.9-9.9,5.9l-3.1,17.5c-.4,2.1.9,2.3,3.1,2.3h.7,0c0,.1-11.6.1-11.6.1h0c0-.1.7-.1.7-.1,2.2,0,3.5-.2,3.9-2.3l5.2-29.2c.3-1.7,0-2.3-3.1-.9h0c0-.1,7.1-3.3,7.1-3.3l-2.8,15.7s5.5-6,10.7-6,6.5,2.7,5.9,6.4l-3.1,17.4c-.4,2.1.9,2.3,3.1,2.3ZM77.5,35.8h0c0,.1-11.6.1-11.6.1h0c0-.1.7-.1.7-.1,2.2,0,3.5-.2,3.9-2.3l3.5-19.6c.3-1.7,0-2.4-3.1-.9h0c0-.1,7.1-3.3,7.1-3.3l-4.1,23.3c-.4,2.5,1,2.8,3.7,2.8h0ZM77.7,1.4c1.1,0,1.9.9,1.7,2.1-.2,1.1-1.3,2.1-2.4,2.1s-1.9-.9-1.7-2.1c.2-1.1,1.3-2.1,2.4-2.1ZM89.3,35.8h.7,0c0,.1-11.6.1-11.6.1h0c0-.1.7-.1.7-.1,2.2,0,3.5-.2,3.9-2.3l5.2-29.2c.3-1.7,0-2.3-3.1-.9h0c0-.1,7.1-3.3,7.1-3.3l-5.9,33.5c-.4,2.1.9,2.3,3.1,2.3h0ZM102,35.8h.7,0c0,.1-11.6.1-11.6.1h0c0-.1.7-.1.7-.1,2.2,0,3.5-.2,3.9-2.3l5.2-29.2c.3-1.7,0-2.3-3.1-.9h0c0-.1,7.1-3.3,7.1-3.3l-5.9,33.5c-.4,2.1.9,2.3,3.1,2.3h0ZM150.6,26.4c-1.2,6.8-8.8,9.6-15,9.6s-8.9-1.4-11-3.7c-1.8-2-1.9-5.9,1-8.2.7,5.7,4.2,11.6,10.1,11.6s10.6-2.7,11.5-7.8c.9-5.1-4.4-7.8-9.1-10-4.7-2.2-9.9-4.6-8.9-9.9.9-5.3,7.4-8,12.5-8s5,.4,7,1.4c2.4,1.1,3.3,4,.3,6.2-.4-3.5-1.9-7.3-7.4-7.3s-9.3,3.1-9.9,6.3c-.6,3.2,1.8,4.8,7.4,7.6,6,3,12.7,5.4,11.5,12.2ZM168.3,32.3h.1c-1,1.4-3.3,3.6-6.1,3.6-4.4,0-5.7-3-5.2-5.7l3.6-20.4h-3.6,0c0,0,0-.2,0-.2,3.5,0,6.9-.9,8-6.9h.2l-1.1,6.5v.4c0,0,6.9,0,6.9,0v.2h-7l-.9,5.3-2.6,14.6c-.6,3.3-.4,5.6,2.5,5.6s4.3-1.6,5.4-3h0ZM204.2,9.7h0c0,0-.5,0-.5,0-2.2,0-3.6.3-4.9,2.4l-14.7,23.8-2.3,3.8c-2,3.3-4.3,5.9-7.8,5.9s-5.4-1.4-5.3-3.8c.1-2.1,1.7-3.3,3-3.9-.1,2.8,0,7.3,3.1,7.3s5.3-3.2,7.1-6.1l2.1-3.4-6.2-23.6c-.6-2.1-1.9-2.4-4.1-2.4h-.5,0c0-.1,11.9-.1,11.9-.1h0c0,.1-.9.1-.9.1-2.2,0-3.4.2-2.9,2.3v-.4c-.1,0,5.1,19.8,5.1,19.8l12-19.5c1.2-2,0-2.3-2.1-2.3h-.9,0c0-.1,8.6-.1,8.6-.1h0ZM211.4,35.8h.7,0c0,.1-11.6.1-11.6.1h0c0-.1.7-.1.7-.1,2.2,0,3.5-.2,3.9-2.3l5.2-29.2c.3-1.7,0-2.3-3.1-.9h0c0-.1,7.1-3.3,7.1-3.3l-5.9,33.5c-.4,2.1.9,2.3,3.1,2.3h0ZM239.3,26.7h.2c-2.2,5.4-6.9,9.3-13.1,9.3s-10.8-5.9-9.6-13.1c1.3-7.2,6.6-13.1,14.2-13.1s9.3,3.7,9.8,8.7l-3.5.9c-2.7.7-6.5,1.6-9.3,2.3-3.2.8-5.7,2.3-6.9,4.3-.8,1.4-1,2.9-.5,4.5,1.2,3,3.6,4.8,6.7,4.8,4.6,0,9.3-2.3,11.9-8.5h0ZM220.3,29c0-1.1.2-2.2.8-3.2,1.2-2,3.7-3.6,7-4.4,2.8-.7,6.6-1.7,9.3-2.3,0-5.4-2.2-9.2-6.4-9.2s-9.6,5.7-10.9,12.9c-.4,2.3-.3,4.4.1,6.2ZM38.8,76.3c-.3.8-1.2,1.2-3.1,1-4,5.8-10.2,13.3-16.9,19.5,10.8,0,24.6-.3,39.3-.6-3.7-4.1-8.1-7.9-12.5-10.4l.5-.8c20,4.1,26.3,12.8,26.3,18.3s-1.8,5-4.2,5-2-.4-3.1-1.1c-1.1-2.9-2.9-6-5.2-8.9-12,2-28.3,4.1-51.4,6.8-.6.9-1.5,1.5-2.3,1.6l-4.2-9.9c3.9,0,9.1,0,13.6,0,4.2-7.8,8.5-17.7,11.1-25l12.2,4.5ZM52.6,112.4l3.5-4.5,9.4,6.6c-.6.7-1.8,1.5-3.5,1.8v24.9c0,0-2.5,2.1-8.5,2.1v-5.2H20.5v3c0,.2-1.1,3-8.2,3v-35.2l8.7,3.5h31.6ZM20.5,136.6h33v-22.6H20.5v22.6ZM101.4,96.2v-22.6l11.2,1.1c-.2,1.1-.8,1.6-3.2,1.9v64.4c0,.9-3.5,2.9-6.5,2.9h-1.6v-17c-3.6,2.6-8.5,5.8-14.7,9.6-.3,1-1.1,1.8-1.9,2.1l-4.9-10c3.9-.6,12.5-2.4,21.6-4.4v-26.3h-20.1l-.5-1.5h20.6ZM149,122.1v11.4c3,1.2,3.4,1.8,3.4,3,0,3.5-2.5,5.1-10.3,5.1h-10.3c-8.9,0-10.6-2.2-10.6-11.1v-56.9l11.3,1c-.2,1.1-.8,1.7-3.2,2v24.9c4.9-4.6,10.2-10.9,12.9-15.1l10.2,6.2c-.2.4-.7.6-1.3.6s-.8,0-1.2-.2c-4.6,3.5-13.2,8.1-20.6,11.1v26.6c0,3.1.3,3.4,2.5,3.4h10.2c1.1,0,2-.2,2.8-1.3.8-1.1,2.2-5.8,3.6-10.8h.7ZM230.9,122.5l-1.5,12.8c1.3,2.8,2,4.8,2,6.2,0,2.3-2.8,2.5-3.5,2.5-7.6,0-13.2-13.4-14.2-16-5.6,6.7-12.4,11.4-20.9,15.2l-.8-1.2c8.2-4.9,14.6-11.4,19.6-20.2-2.7-9.4-3.8-20.3-4.2-32.4h-15.5v14h5.2l2.9-3.6,7.2,5.5c-.5.6-1.4,1-2.8,1.2-.5,22.6-.9,26.7-9.8,26.7,0-3.4-1.5-4.8-5.7-5.6v-1.1c1.9,0,4.8.2,6,.2s.9,0,1.2-.5c1.1-1.5,1.5-7.6,1.8-21.3h-6c0,12.7-1.5,29.2-19.5,39.3l-.8-.8c7.2-7.1,10.4-15.4,11.8-24-4.2,2.8-10.2,6.5-18.6,11.1-.4,1-1.2,1.8-2,2l-4.3-9.9c1.8-.3,4.6-.8,8-1.4v-26.2h-7.2l-.5-1.5h7.6v-20.2l11.1,1c-.2,1.1-1,1.7-3.4,2v17.2h.8l3.5-5.8,5.9,5.5v-8.8l8.9,3.3h14.2c-.2-5.2-.2-10.6-.2-16.1l10.7,1.1c0,1-.7,1.5-2.9,1.8,0,4.5-.2,8.8,0,13.2h5l3.8-4.8h0c-.8-3-3.1-6.2-5.5-8.1l.4-.5c9,.2,12,3.1,12,5.8s-2.1,4.1-4.3,4l5.5,3.8c-.5,1-1.5,1.3-3.6,1.3h-13.2c.2,7.7.6,15,1.8,21.7,1.6-4.4,3.1-9.2,4.4-14.5l9.6,3.2c-.3,1-1.1,1.5-3.1,1.3-2.5,7.7-5.3,14.1-8.6,19.6,2.7,8,6.3,11.7,6.6,11.7.9,0,3.9-7.6,4.8-10.1l.6.2h0ZM174.2,95.2v24.7c3-.6,6.2-1.3,9.4-1.9.5-4.2.7-8.5.7-12.7v-10.7c-.6.5-1.5.6-3,.6h-7.1ZM310.2,84.1c-.6.9-1.5,1.3-3.8,1.3h-28.5v11.3h16.4l3.4-4.4,8.8,6.4c-.5.6-1.6,1.3-3.2,1.6v34.2c0,5.1-1.1,8.6-11,9.7,0-6.1-3.5-7.1-8.5-7.8v-1h9.9c1,0,1.4-.2,1.4-1.1v-36.1h-42.1v42.7c0,.2-1.2,3.1-8.2,3.1v-51l8.9,3.6h15.9v-11.3h-31.1l-.5-1.5h31.6v-11.9l11.6,1.1c-.2,1.1-.9,1.7-3.2,2v8.8h17.9l5-6.3,9.3,6.5h0ZM293.7,124.7c-.5,1-1.6,1.3-3.6,1.3h-12.4v14.8c0,.4-2.5,1.8-6.5,1.8h-1.5v-16.6h-14.2l-.4-1.5h14.6v-10.2h-13.4l-.5-1.5h20.6c1.3-3.8,2.8-9.1,3.6-13l10.1,3c-.3.8-1.1,1.2-2.9,1-2.2,2.7-5.7,6.2-8.9,9h4.5l3.5-4.3,6.8,4.5c-.5,1-1.5,1.3-3.5,1.3h-12v10.2h4.6l3.9-4.9,7.5,5.1h0ZM259.9,100c7.7,1.8,10.2,5.1,10.2,7.8s-2,4.2-4.2,4.2-2.3-.5-3.2-1.7c0-3.2-1.4-7.4-3.4-9.8l.6-.5h0ZM72.8,215.9c-.5.9-1.5,1.3-3.7,1.3h-27.9c6,9.4,18.4,12.7,32.9,13.8v.8c-3.3,1-5.4,3.7-6.2,7.7-14.3-3.5-23.5-9.1-28.3-22.3h-.8c-2.8,10.4-10.2,17.7-36.6,22.4l-.5-1.3c18.8-5.8,25.3-12.4,27.8-21.1H2.3l-.5-1.5h28.1c.8-3.3,1-7,1.2-11l12.2.8c0,1-.8,1.5-3,1.8-.3,2.9-.6,5.7-1.2,8.3h20.2l4.7-6,8.8,6.2h0ZM2.3,202.2h30.2v-9.6H8.9l-.5-1.5h24v-9.6H5.2l-.5-1.5h39c1.8-3.8,3.7-9.1,4.7-12.8l11.2,3.8c-.3.7-.8,1-1.9,1s-.7,0-1.1,0c-2.6,2.5-6.8,5.7-10.7,8.1h11.7l4.5-5.8,8.5,6c-.6,1-1.6,1.3-3.7,1.3h-26v9.6h13.3l4.3-5.5,8.2,5.6c-.5,1.1-1.5,1.4-3.6,1.4h-22.2v9.6h18.6l4.6-6.1,8.6,6.2c-.6.9-1.5,1.3-3.8,1.3H2.7l-.5-1.5h0ZM16.8,167.4c9.1,1.5,12.1,5,12.1,7.9s-2.3,4.7-4.8,4.7-2.5-.5-3.6-1.8c0-3.5-1.9-7.8-4.2-10.3l.5-.5ZM151.6,217.6l-1.7,12.7c1.8,2.8,2.5,4.8,2.5,6.2s-2.2,3.1-4.2,3.1c-3.2,0-6.8-2.1-9.2-4.3-12.9-11.3-17.6-28.6-19-48.8h-38.9l-.5-1.5h39.3c-.4-5.5-.5-11.3-.5-17.2l11.5,1.1c0,1-.7,1.5-2.9,1.8,0,4.8,0,9.6.2,14.2h10.2l4.6-5.7c-.6-.2-1.2-.5-1.8-.8-1.5-3-4.6-6.5-7.6-8.3l.3-.7c10.4-.5,13.8,3,13.8,5.9s-1.6,3.8-3.7,4l8.3,5.8c-.6,1-1.5,1.4-3.7,1.4h-20.3c1,17,4.9,32.3,15.6,40.7.5.5,1,.7,1.4.7s.8-.3,1.2-1.1c1.2-1.9,3.3-6.1,4.6-9.4l.6.2ZM105,203.1v22.7c5.8-.5,12-1,18.5-1.6l.2,1.2c-7.8,2.5-18.9,5.5-36,9.5-.5,1-1.2,1.5-2,1.7l-5.1-9c3.6-.2,9.2-.5,16.2-1.1v-23.4h-13.8l-.4-1.5h24.6l4.5-5.8,8.3,6c-.6,1-1.6,1.3-3.7,1.3h-11.3ZM221.8,226.9l9.6,6.8c-.6.9-1.6,1.3-3.9,1.3h-68.1l-.4-1.5h31.3v-23h-21.5l-.5-1.5h21.9v-21h-14.9c-3.9,6.8-8.6,12.4-13.9,16.6l-.9-.7c4.9-7.4,9.5-20.9,11.9-34.1l12.1,3.3c-.4,1-1,1.5-3.1,1.5-1.5,4.2-3.2,8.2-5.2,11.8h14v-19l11.9,1.1c0,1.1-.9,1.8-3.2,2.1v15.9h13.3l5.1-6.4,9.4,6.5c-.6,1.1-1.6,1.4-3.8,1.4h-24v21h10.6l4.8-6.1,9.1,6.3c-.6,1-1.6,1.3-3.8,1.3h-20.8v23h17.6l5.2-6.6h0ZM238.2,188.4c10.6.6,14.1,4.5,14.1,7.8s-1.9,4.4-4.2,4.4-2.1-.4-3.1-1.2c-1-3.7-3.9-7.9-7.2-10.3l.4-.6h0ZM310.9,193.4c-.6,1-1.6,1.3-3.8,1.3h-18.8v15.8h6.6l3.3-4.3,8.9,6.3c-.5.6-1.6,1.3-3.2,1.6v22.4c0,.2-2.1,2.3-8.2,2.3v-5.4h-23.2v3c0,.2-1.2,2.9-8.1,2.9v-32.3l8.5,3.5h6.9v-15.8h-20.7l-.3-1.2c-2.7,8.2-5.4,16.4-6.1,19.1-.7,2.5-1.3,5-1.3,7.1v.3c.2,3.8,2.8,6.5,2.8,12.6s-3.6,7-6.1,7-3.4-1.2-3.9-3.9c.5-3.2.8-6.2.8-8.8,0-7.1-1.5-8-5.7-8.4v-1.5c2.7,0,3.5,0,3.5,0h0c1.2,0,1.5,0,2.3-1.5,1.2-1.8,1.7-2.9,16.6-35.3l1.3.3-4.3,12.9h20.9v-15.4c-6.4.7-13,1.2-19.2,1.5l-.3-1.1c12.9-2.5,29.1-7.5,37.3-11.4l8.4,8c-.4.3-1,.5-1.8.5s-1.9-.2-3.1-.7c-3.7.8-8.2,1.5-13,2.2v16.4h9.5l4.5-6.3,8.5,6.5h0ZM242,168.6c11.1.6,14.7,4.8,14.7,8.2s-1.9,4.5-4.2,4.5-2.1-.4-3.1-1.2c-1.2-3.8-4.5-8.4-7.8-10.9l.4-.6h0ZM295.8,212.1h-23.2v19.9h23.2v-19.9Z" fill="#fff"/>
  <path d="M18.9,499.3c-.2.4-.5.6-1.1.6s-.5,0-.8,0c-2.4,3.5-6.2,8.2-9.9,12.1,2.2,0,4.6,0,7.1-.2-.5-1.3-1.1-2.4-1.7-3.3l.4-.3c5,1.9,6.7,4.4,6.7,6.3s-1.1,2.7-2.4,2.7-1.4-.3-2-1c0-1-.2-2.1-.6-3.2l-2.4.7v20.6c0,.3-1.4,1.3-3.7,1.3h-.8v-15c-.2.2-.6.3-1.2.3-1.3,4.5-3.3,8.6-5.9,11.1l-.7-.4c1.3-3,2.3-8,2.6-12.8l5.1,1.1v-4.9c-1.4.3-2.9.7-4.6,1.1-.3.6-.8.9-1.3,1l-1.7-4.9c1.2,0,3.1,0,5.3,0,2.6-4.8,5.5-10.8,7.3-15.2l6.1,2.5h0ZM.6,499.2c1.6.3,2.9.8,3.9,1.2.8-2.5,1.8-6.1,2.6-9.2l6.3,2.2c-.2.6-.7.8-1.8.8-1.8,2.4-3.9,5-5.9,7,1.5,1,2.1,2.2,2.1,3.2s-1.1,2.4-2.3,2.4-1.2-.2-1.7-.8c-.4-2.2-2-4.9-3.6-6.5l.3-.4ZM13.8,518.7c4.3,2.4,5.8,4.9,5.8,6.9s-1.2,3-2.5,3-1.3-.3-1.9-1.1c.1-2.7-.8-6.3-2-8.6l.6-.2h0ZM42.7,525.2v4.9c1.7.8,1.9,1,1.9,1.7,0,1.9-1.4,2.8-5.5,2.8h-4.6c-4.7,0-5.5-1.5-5.5-6.4v-7.4h-4.1v3.2c0,0-.8,1.3-4.4,1.3v-20.6l5.9.5c0,.6-.4.8-1.5,1v13.7h4.1v-18.8c-3.5.6-7.1,1-10.6,1.3l-.2-.8c3.4-.8,7.2-1.9,10.8-3.2v-7.1l6.6.6c0,.8-.4,1-1.9,1.3v3.4c2.2-.9,4.1-1.8,5.5-2.7l5,4.3c-.2.2-.6.4-1.1.4s-1,0-1.6-.3c-2.2.7-4.8,1.3-7.7,1.9v19.7h4.3v-15.3l6.2.5c0,.6-.4.8-1.6,1v16.2c0,0-1,1.4-4.6,1.4v-3h-4.3v7.6c0,1.8,0,2,1,2h4.3c.5,0,1,0,1.5-.6.5-.5,1.2-2.6,1.8-4.7h.4ZM48.1,516.5c3.7-5.7,7.6-15.8,9.8-25.3l7.1,2.2c-.2.6-.6.9-1.9.9-1.2,3.2-2.6,6.2-4.1,9l1.8.7c-.1.5-.6.8-1.5.9v29c0,.4-2.1,1.5-4.1,1.5h-.9v-24.7c-1.7,2.3-3.6,4.4-5.7,6.2l-.6-.4h0ZM87.4,528.1l5.5,4c-.4.6-1,.8-2.3.8h-28.6c0-.2,0-.3-.2-.9h12v-14.5h-9.3c0-.1,0-.3-.2-.9h9.6v-13h-10.7l-.2-.9h20.3l2.8-3.7,5.3,3.8c-.4.6-1,.8-2.3.8h-10v13h3.4l2.6-3.5,5,3.6c-.4.6-1,.8-2.3.8h-8.8v14.5h5.3l3-3.9ZM69.5,491.4c8.7.7,11.6,4.1,11.6,6.7s-1.2,3.1-2.8,3.1-1.3-.2-2-.7c-1.1-3.2-4-6.8-6.9-8.8l.2-.4h0ZM96.5,531.3v-1c13.1-11.3,17-17.6,17-24.8s-2.1-7.9-6.1-7.9-6,3.5-8.6,8.4l-.7-.3,1.3-8c1.7-.7,4.4-1.5,8.1-1.5,8.1,0,11.5,4,11.5,9.2s-5.8,13-16.8,21.2h8.9c4.3,0,6.3-2.1,8.4-4.7l.6.2-2.5,9.2h-21,0ZM160.1,515.7l2.6-3.3,4.8,3.4c-.3.7-.9.8-2.2.8h-16.8c-.2,1.8-.6,3.6-1.2,5.3h9.4l2-2.4,5.1,3.7c-.3.4-.8.7-1.7.8-.8,9.7-2.4,11.4-8.6,11.4,0-2.9-.6-3.7-5-4.5v-.7c1.7,0,4.7.1,5.7.1s1.1,0,1.4-.3c.7-.6,1.2-3.2,1.5-7.2h-10.1c-1.9,4.7-6.1,9.2-15.6,12.7l-.5-.7c10.4-5.8,11.6-12.5,11.9-18.3h-8.4c-.8,6.3-3.2,13.1-9.8,18l-.5-.4c5.2-7.6,5.8-17,5.8-25v-10.5l5.7,2.1h22l2-2.6,5.4,3.8c-.3.3-.9.8-1.8.9v7.3c0,0-1.5,1.1-5.1,1.1v-1.9h-23.3c0,1.9,0,4-.3,6.2h11.3v-5.8l6.5.6c0,.5-.4.8-1.6.9v4.3h9.5,0ZM167.6,494.8c-.4.6-.9.8-2.3.8h-39.8l-.3-.9h34.7l2.7-3.5,5,3.6ZM158,501.8h-23.3v6.9h23.3v-6.9ZM174.3,517.9c0-2.4,1.9-4.4,4.3-4.4s4.3,1.9,4.3,4.4-2,4.3-4.3,4.3-4.3-2-4.3-4.3ZM199.2,532c-3.4,0-7-.9-9-2.1l-1.2-7.6.8-.2c3,4.9,5.5,8.4,9.7,8.4s7.3-4.6,7.3-10-2.8-9.3-7.7-9.3-4.6.8-6.1,1.9l-.6-.8,12.8-10.8h-14.9l2-4.7h19.6v.7l-14.9,12.6c.9-.3,2.1-.5,3.4-.5,6,0,11.9,3.5,11.9,10.8s-5.2,11.5-13,11.5h0ZM252.7,515.7l2.5-3.3,4.8,3.4c-.3.7-.9.8-2.2.8h-16.8c-.2,1.8-.6,3.6-1.2,5.3h9.4l2-2.4,5.1,3.7c-.3.4-.8.7-1.7.8-.8,9.7-2.4,11.4-8.6,11.4,0-2.9-.6-3.7-5-4.5v-.7c1.7,0,4.7.1,5.7.1s1.1,0,1.4-.3c.7-.6,1.2-3.2,1.5-7.2h-10.1c-1.9,4.7-6.1,9.2-15.6,12.7l-.5-.7c10.4-5.8,11.6-12.5,11.9-18.3h-8.4c-.8,6.3-3.2,13.1-9.8,18l-.5-.4c5.2-7.6,5.8-17,5.8-25v-10.5l5.7,2.1h22l2-2.6,5.4,3.8c-.3.3-.9.8-1.8.9v7.3c0,0-1.5,1.1-5.1,1.1v-1.9h-23.3c0,1.9,0,4-.3,6.2h11.3v-5.8l6.5.6c0,.5-.4.8-1.6.9v4.3h9.5,0ZM260.1,494.8c-.4.6-.9.8-2.3.8h-39.8l-.3-.9h34.7l2.7-3.5,5,3.6ZM250.5,501.8h-23.3v6.9h23.3v-6.9Z" fill="#fff"/>
</svg>