<svg width="361" height="725" viewBox="0 0 361 725" fill="none" xmlns="http://www.w3.org/2000/svg">
<g clip-path="url(#clip0_20_563)">
<path d="M34.3468 27.5046L34.5742 27.6454C31.1702 32.6505 25.9856 35.9429 19.2716 35.9429C8.7927 35.9429 5.09057 27.8956 6.83967 17.9714C8.59661 8.04726 15.5381 0 25.9856 0C31.2251 0 35.0213 1.90819 37.1783 5.20061C38.8411 7.7188 37.7744 11.5587 34.6841 12.8568C34.7233 5.25535 31.7271 0.281537 25.9307 0.281537C18.95 0.273716 12.7537 8.04726 10.9967 17.9714C9.23978 27.8956 13.6243 34.9497 20.605 34.9497C25.7582 34.9497 30.7309 32.846 34.3389 27.5124L34.3468 27.5046Z" fill="white"/>
<path d="M64.2538 35.8256H64.9441L64.9284 35.935H53.2886L53.3043 35.8256H53.9945C56.1829 35.8256 57.5006 35.6066 57.8771 33.4794L60.9596 16.032C61.4223 13.4356 62.0106 10.0884 57.5163 10.0884C53.0219 10.0884 47.6648 15.9459 47.6648 15.9459L44.5667 33.4481C44.198 35.5518 45.4295 35.7943 47.6178 35.7943H48.308L48.2923 35.9038H36.6526L36.6683 35.7943H37.3585C39.5468 35.7943 40.8645 35.5753 41.241 33.4481L46.4099 4.19959C46.7158 2.48691 46.355 1.85345 43.3509 3.31588L43.3745 3.20639L50.4807 0L47.7119 15.6722C47.7119 15.6722 53.2337 9.67392 58.3947 9.67392C63.5558 9.67392 64.9284 12.4111 64.2852 16.032L61.2027 33.4794C60.8341 35.5831 62.0655 35.8256 64.2538 35.8256Z" fill="white"/>
<path d="M77.4626 35.8022L77.4469 35.9116H65.8071L65.8228 35.8022H66.513C68.7014 35.8022 70.0191 35.5832 70.3956 33.456L73.8546 13.8814C74.1604 12.1687 73.7996 11.5274 70.7956 12.9977L70.8113 12.8882L77.9175 9.68179L73.7996 32.9868C73.3526 35.5284 74.8193 35.8334 77.4547 35.81L77.4626 35.8022ZM77.7292 1.38428C78.8744 1.38428 79.643 2.31491 79.4391 3.4567C79.2352 4.59849 78.1371 5.52913 76.9919 5.52913C75.8468 5.52913 75.0781 4.59849 75.2821 3.4567C75.486 2.31491 76.5762 1.38428 77.7292 1.38428Z" fill="white"/>
<path d="M89.2825 35.8021H89.9727L89.957 35.9116H78.3173L78.333 35.8021H79.0232C81.2115 35.8021 82.5292 35.5831 82.9057 33.456L88.0746 4.2074C88.3805 2.49472 88.0197 1.86126 85.0156 3.32369L85.0391 3.2142L92.1453 0.0078125L86.2235 33.4872C85.8549 35.5909 87.0863 35.8334 89.2746 35.8099L89.2825 35.8021Z" fill="white"/>
<path d="M102.013 35.8021H102.703L102.687 35.9116H91.0474L91.063 35.8021H91.7533C93.9416 35.8021 95.2593 35.5831 95.6358 33.456L100.805 4.2074C101.111 2.49472 100.75 1.86126 97.7457 3.32369L97.7692 3.2142L104.875 0.0078125L98.9536 33.4872C98.585 35.5909 99.8164 35.8334 102.005 35.8099L102.013 35.8021Z" fill="white"/>
<path d="M150.619 26.4019C149.411 33.2291 141.857 35.9663 135.645 35.9663C131.214 35.9663 126.712 34.6134 124.602 32.2907C122.766 30.273 122.743 26.3471 125.574 24.1105C126.257 29.8038 129.755 35.7239 135.692 35.7239C140.681 35.7239 146.289 33.018 147.183 27.9581C148.077 22.8983 142.791 20.1924 138.077 18.0027C133.386 15.8442 128.194 13.3886 129.135 8.07851C130.076 2.73713 136.485 0.03125 141.646 0.03125C144.807 0.03125 146.665 0.477017 148.642 1.38419C151.073 2.51816 151.921 5.41955 148.979 7.63274C148.603 4.12135 147.058 0.304966 141.599 0.304966C136.139 0.304966 132.265 3.40187 131.7 6.57698C131.135 9.75991 133.457 11.3866 139.136 14.2098C145.175 17.1972 151.826 19.5746 150.619 26.4019Z" fill="white"/>
<path d="M168.306 32.3221L168.455 32.4081C167.474 33.7063 165.168 35.943 162.313 35.943C157.96 35.943 156.603 32.9556 157.082 30.2497L160.682 9.87736H157.082L157.097 9.79134L157.113 9.68185C160.603 9.68185 164 8.8216 165.074 2.76855H165.27L164.125 9.23608L164.047 9.68185H170.98L170.949 9.87736H164.015L163.074 15.2109L160.494 29.7805C159.913 33.0416 160.117 35.3408 162.949 35.3408C165.223 35.3408 167.255 33.7063 168.306 32.3299V32.3221Z" fill="white"/>
<path d="M204.237 9.67407L204.221 9.7601H203.75C201.562 9.7601 200.127 10.0104 198.809 12.1375L184.118 35.943L181.789 39.7047C179.773 42.9658 177.475 45.6248 174.031 45.6248C170.588 45.6248 168.651 44.2405 168.768 41.8397C168.894 39.736 170.494 38.5238 171.757 37.9451C171.647 40.7683 171.827 45.2181 174.879 45.2181C177.93 45.2181 180.189 42.0117 181.969 39.1338L184.071 35.7319L177.898 12.1766C177.334 10.0495 175.992 9.7992 173.796 9.7992H173.326L173.341 9.68971H185.287L185.271 9.7992H184.354C182.165 9.7992 180.934 10.0182 181.498 12.1453L181.397 11.7856L186.573 31.5792L198.621 12.0593C199.805 10.0416 198.691 9.79138 196.558 9.79138H195.64L195.656 9.68189H204.221L204.237 9.67407Z" fill="white"/>
<path d="M211.445 35.8021H212.135L212.119 35.9116H200.479L200.495 35.8021H201.185C203.374 35.8021 204.691 35.5831 205.068 33.456L210.237 4.2074C210.543 2.49472 210.182 1.86126 207.178 3.32369L207.201 3.2142L214.308 0.0078125L208.386 33.4872C208.017 35.5909 209.249 35.8334 211.437 35.8099L211.445 35.8021Z" fill="white"/>
<path d="M239.273 26.6758L239.485 26.7305C237.242 32.0641 232.614 35.9352 226.41 35.9352C218.763 35.9352 215.562 30.0464 216.841 22.8046C218.119 15.5629 223.406 9.67407 231.053 9.67407C237.069 9.67407 240.332 13.3262 240.85 18.3861L237.399 19.2463C234.669 19.9345 230.873 20.8808 228.089 21.569C224.841 22.398 222.41 23.9151 221.225 25.9094C220.402 27.2623 220.245 28.8108 220.708 30.3905C221.924 33.3779 224.347 35.2001 227.398 35.2001C232.026 35.2001 236.677 32.9087 239.273 26.6836V26.6758ZM220.292 28.9984C220.237 27.8958 220.48 26.84 221.069 25.8468C222.261 23.7978 224.755 22.2259 228.065 21.397C230.849 20.7088 234.677 19.739 237.375 19.0743C237.414 13.686 235.203 9.86958 231.022 9.86958C225.924 9.86958 221.453 15.5629 220.167 22.8046C219.759 25.096 219.829 27.1997 220.292 28.9984Z" fill="white"/>
<path d="M38.7783 76.2651C38.4724 77.1097 37.6253 77.4929 35.6958 77.2661C31.6956 83.022 25.4522 90.5453 18.7538 96.7626C29.5308 96.6843 43.3902 96.4576 58.0968 96.1447C54.4025 91.9999 50.0102 88.2382 45.6256 85.7044L46.0884 84.938C66.105 89.0829 72.3406 97.7558 72.3406 103.285C72.3406 106.202 70.5679 108.274 68.1835 108.274C67.258 108.274 66.1834 107.891 65.101 107.203C64.0265 104.286 62.1754 101.212 59.8694 98.2954C47.861 100.29 31.5387 102.362 8.43966 105.052C7.82003 105.975 6.97293 106.515 6.13368 106.663L1.89819 96.7626C5.82778 96.8408 10.981 96.8408 15.4517 96.7626C19.6872 88.9343 24.0011 79.0336 26.5346 71.7371L38.7783 76.2651ZM52.6377 112.427L56.183 107.899L65.5795 114.499C64.9598 115.188 63.8068 115.962 62.0342 116.345V141.292C62.0342 141.37 59.4929 143.365 53.4848 143.365V138.148H20.4559V141.144C20.4559 141.3 19.3813 144.139 12.2908 144.139V108.978L20.9892 112.435H52.6299L52.6377 112.427ZM20.4559 136.608H53.4848V113.96H20.4559V136.608Z" fill="white"/>
<path d="M101.448 96.2308V73.5828L112.687 74.6542C112.531 75.7256 111.919 76.2652 109.534 76.5702V140.98C109.534 141.902 106.068 143.897 103.063 143.897H101.448V126.856C97.8319 129.468 92.9767 132.69 86.7412 136.452C86.4353 137.453 85.6666 138.219 84.8195 138.524L79.8938 128.545C83.8234 127.927 92.3649 126.168 101.448 124.095V97.7637H81.3527L80.8899 96.2308H101.448ZM148.956 122.101V133.542C151.96 134.77 152.344 135.31 152.344 136.538C152.344 139.994 149.881 141.683 142.03 141.683H131.716C122.86 141.683 121.088 139.455 121.088 130.555V73.6688L132.406 74.6698C132.249 75.7412 131.637 76.359 129.253 76.664V101.611C134.179 97.0051 139.418 90.7096 142.187 86.4865L152.43 92.7038C152.203 93.087 151.74 93.3216 151.121 93.3216C150.815 93.3216 150.352 93.2434 149.889 93.0948C145.269 96.5515 136.649 101.228 129.253 104.223V130.86C129.253 133.933 129.559 134.238 131.716 134.238H141.881C142.955 134.238 143.881 134.082 144.65 132.932C145.497 131.783 146.807 127.176 148.265 122.109H148.956V122.101Z" fill="white"/>
<path d="M230.873 122.484L229.336 135.302C230.646 138.063 231.336 140.135 231.336 141.519C231.336 143.818 228.567 144.053 227.869 144.053C220.245 144.053 214.7 130.618 213.625 128.084C208.001 134.762 201.233 139.525 192.683 143.287L191.914 142.059C200.08 137.148 206.464 130.696 211.547 121.866C208.849 112.427 207.774 101.525 207.311 89.474H191.836V103.52H197.075L200.001 99.9144L207.162 105.365C206.699 105.983 205.774 106.366 204.315 106.593C203.774 129.163 203.389 133.308 194.534 133.308C194.534 129.929 193.075 128.545 188.84 127.7V126.551C190.761 126.629 193.616 126.707 194.848 126.707C195.468 126.707 195.773 126.629 196.079 126.246C197.154 124.783 197.617 118.644 197.852 104.982H191.844C191.844 117.722 190.307 134.152 172.368 144.288L171.6 143.521C178.839 136.459 181.992 128.17 183.381 119.567C179.224 122.328 173.137 126.089 164.823 130.696C164.439 131.697 163.67 132.463 162.823 132.69L158.509 122.789C160.282 122.484 163.129 122.023 166.517 121.405V95.2299H159.356L158.893 93.6971H166.517V73.5046L177.6 74.5057C177.443 75.6553 176.596 76.1949 174.212 76.4999V93.6971H174.98L178.447 87.9412L184.298 93.3921V84.641L193.154 87.9412H207.319C207.162 82.725 207.092 77.3445 207.092 71.8232L217.79 72.9729C217.712 73.9739 217.1 74.4353 214.865 74.7403C214.786 79.2683 214.708 83.5696 214.786 87.9412H219.79L223.563 83.1786L223.484 83.1004C222.716 80.1833 220.402 76.9613 218.018 75.1157L218.402 74.5761C227.406 74.7325 230.41 77.7199 230.41 80.3319C230.41 82.5607 228.332 84.4768 226.096 84.3204L231.563 88.1602C231.022 89.1612 230.026 89.4662 227.947 89.4662H214.778C214.935 97.1459 215.398 104.513 216.551 111.191C218.167 106.812 219.633 101.979 220.943 96.6845L230.567 99.9065C230.261 100.908 229.493 101.369 227.485 101.213C225.022 108.892 222.175 115.336 218.865 120.787C221.563 128.772 225.179 132.455 225.485 132.455C226.41 132.455 229.336 124.854 230.261 122.32L230.881 122.476L230.873 122.484ZM174.204 95.2299V119.95C177.208 119.333 180.361 118.644 183.6 118.034C184.142 113.811 184.291 109.51 184.291 105.295V94.6277C183.671 95.0891 182.753 95.2455 181.287 95.2455H174.204V95.2299Z" fill="white"/>
<path d="M310.171 84.1015C309.551 85.0243 308.633 85.4075 306.398 85.4075H277.91V96.6924H294.311L297.7 92.313L306.476 98.6866C306.014 99.3045 304.861 99.9927 303.323 100.298V134.457C303.323 139.525 302.249 143.052 292.311 144.131C292.311 138.071 288.766 137.069 283.762 136.381V135.38H293.692C294.695 135.38 295.08 135.153 295.08 134.309V98.2252H252.968V140.909C252.968 141.136 251.737 144.053 244.732 144.053V93.0794L253.588 96.6846H269.526V85.3997H238.418L237.956 83.8669H269.526V71.9719L281.15 73.0433C280.993 74.1147 280.224 74.7325 277.918 75.0375V83.8669H295.856L300.86 77.5714L310.179 84.0936L310.171 84.1015ZM293.699 124.705C293.158 125.706 292.084 126.011 290.084 126.011H277.691V140.823C277.612 141.207 275.228 142.591 271.149 142.591H269.683V126.011H255.439L255.054 124.479H269.683V114.265H256.286L255.823 112.732H276.459C277.769 108.971 279.228 103.598 280.075 99.758L290.162 102.753C289.856 103.598 289.087 103.903 287.236 103.754C285.001 106.445 281.542 109.972 278.303 112.732H282.844L286.381 108.431L293.158 112.959C292.617 113.96 291.621 114.265 289.691 114.265H277.683V124.479H282.303L286.232 119.567L293.699 124.713V124.705ZM259.894 99.9927C267.596 101.838 270.138 105.06 270.138 107.743C270.138 110.042 268.137 111.966 265.902 111.966C264.827 111.966 263.596 111.426 262.671 110.277C262.671 107.055 261.282 102.91 259.282 100.454L259.902 99.9927H259.894Z" fill="white"/>
<path d="M72.8113 215.892C72.2701 216.815 71.3445 217.198 69.117 217.198H41.2491C47.2572 226.637 59.6499 229.937 74.1211 231.016V231.861C70.8112 232.862 68.7327 235.545 67.964 239.541C53.6418 236.084 44.4806 230.406 39.7118 217.206H38.8647C36.0959 227.646 28.6211 234.935 2.29047 239.619L1.74927 238.313C20.5344 232.557 27.0759 225.957 29.5466 217.206H2.28262L1.81986 215.673H29.9231C30.6917 212.372 30.927 208.689 31.0761 204.693L43.3198 205.537C43.2413 206.538 42.5511 207.07 40.3157 207.383C40.0098 210.3 39.6961 213.061 39.1627 215.673H59.3362L64.0344 209.682L72.8113 215.9V215.892ZM2.28262 202.151H32.4644V192.555H8.90253L8.43976 191.023H32.4644V181.427H5.20825L4.74548 179.964H43.7041C45.4767 176.125 47.3984 170.908 48.4023 167.147L59.5636 170.908C59.2577 171.597 58.7165 171.909 57.642 171.909C57.3361 171.909 56.9517 171.909 56.5674 171.831C53.9477 174.365 49.7906 177.509 45.8689 179.964H57.5714L62.1128 174.13L70.6622 180.121C70.0425 181.122 69.0464 181.427 66.9679 181.427H40.9432V191.023H54.2614L58.5753 185.572L66.7404 191.179C66.1992 192.25 65.2031 192.563 63.1246 192.563H40.951V202.159H59.5087L64.1285 196.098L72.7485 202.315C72.1289 203.238 71.2112 203.621 68.9758 203.621H2.74539L2.28262 202.159V202.151ZM16.8323 167.381C25.9151 168.844 28.9191 172.371 28.9191 175.288C28.9191 177.822 26.6131 179.972 24.1424 179.972C22.911 179.972 21.6011 179.433 20.5266 178.127C20.4481 174.592 18.6755 170.298 16.2911 167.843L16.8323 167.381Z" fill="white"/>
<path d="M151.567 217.581L149.873 230.321C151.646 233.159 152.415 235.154 152.415 236.538C152.415 238.454 150.179 239.611 148.179 239.611C145.026 239.611 141.402 237.461 138.939 235.31C126.084 224.025 121.386 206.75 119.919 186.487H81.0388L80.576 184.954H119.841C119.456 179.425 119.299 173.669 119.299 167.757L130.845 168.906C130.767 169.907 130.155 170.369 127.919 170.752C127.841 175.515 127.841 180.348 128.076 184.954H138.241L142.861 179.276C142.242 179.12 141.708 178.815 141.089 178.432C139.622 175.437 136.469 171.98 133.465 170.142L133.771 169.454C144.163 168.914 147.552 172.449 147.552 175.366C147.552 177.439 145.936 179.206 143.857 179.355L152.171 185.11C151.552 186.111 150.634 186.495 148.477 186.495H128.155C129.159 203.535 133.08 218.817 143.787 227.177C144.328 227.638 144.791 227.865 145.175 227.865C145.559 227.865 145.944 227.56 146.328 226.794C147.481 224.878 149.638 220.733 150.948 217.425L151.567 217.581ZM104.993 203.074V225.8C110.766 225.339 117.001 224.799 123.472 224.189L123.629 225.339C115.856 227.873 104.687 230.868 87.6744 234.856C87.2116 235.857 86.443 236.389 85.6743 236.546L80.5917 227.568C84.2076 227.411 89.8314 227.028 96.7572 226.496V203.082H82.9762L82.5918 201.549H107.228L111.691 195.793L120.005 201.784C119.386 202.785 118.39 203.09 116.311 203.09H104.993V203.074Z" fill="white"/>
<path d="M221.79 226.872L231.414 233.707C230.795 234.63 229.799 235.013 227.563 235.013H159.427L159.042 233.48H190.377V210.449H168.894L168.431 208.916H190.377V187.879H175.522C171.592 194.714 166.972 200.313 161.584 204.458L160.658 203.77C165.584 196.325 170.204 182.889 172.518 169.688L184.604 172.989C184.22 173.99 183.6 174.522 181.522 174.522C179.985 178.745 178.29 182.733 176.361 186.346H190.377V167.311L202.237 168.382C202.158 169.532 201.311 170.15 199.005 170.455V186.346H212.323L217.406 179.972L226.802 186.495C226.183 187.566 225.187 187.879 223.03 187.879H199.013V208.916H209.641L214.488 202.855L223.571 209.151C222.951 210.152 221.955 210.457 219.798 210.457H199.013V233.488H216.645L221.806 226.887L221.79 226.872Z" fill="white"/>
<path d="M238.183 188.411C248.811 189.029 252.27 192.939 252.27 196.161C252.27 198.538 250.349 200.533 248.035 200.533C247.031 200.533 245.956 200.149 244.952 199.305C243.948 195.621 241.023 191.398 237.791 189.021L238.176 188.403L238.183 188.411ZM310.869 193.4C310.249 194.401 309.253 194.706 307.096 194.706H288.311V210.519H294.931L298.241 206.218L307.175 212.514C306.634 213.131 305.559 213.82 303.943 214.125V236.538C303.943 236.694 301.865 238.837 295.778 238.837V233.465H272.601V236.46C272.601 236.616 271.369 239.377 264.514 239.377V207.055L273.063 210.512H279.989V194.699H259.275L258.969 193.549C256.271 201.76 253.58 209.98 252.89 212.662C252.2 215.118 251.58 217.652 251.58 219.724V220.029C251.737 223.791 254.427 226.551 254.427 232.62C254.427 238.689 250.811 239.604 248.349 239.604C246.576 239.604 244.96 238.454 244.419 235.686C244.96 232.464 245.266 229.468 245.266 226.856C245.266 219.794 243.799 218.872 239.572 218.488V216.956C242.27 216.956 243.117 216.877 243.117 216.877V216.956C244.27 216.956 244.576 216.956 245.423 215.345C246.654 213.499 247.117 212.428 262.051 180.035L263.361 180.34L259.047 193.236H279.989V177.885C273.597 178.573 266.977 179.112 260.741 179.347L260.435 178.197C273.369 175.664 289.535 170.674 297.778 166.834L306.171 174.819C305.786 175.124 305.167 175.359 304.398 175.359C303.551 175.359 302.547 175.132 301.316 174.67C297.621 175.437 293.158 176.203 288.303 176.899V193.252H297.849L302.39 186.956L310.861 193.408L310.869 193.4ZM241.956 168.609C253.039 169.227 256.663 173.372 256.663 176.821C256.663 179.277 254.741 181.349 252.427 181.349C251.423 181.349 250.349 180.966 249.345 180.121C248.113 176.281 244.882 171.753 241.572 169.219L241.956 168.602V168.609ZM295.778 212.06H272.601V231.94H295.778V212.06Z" fill="white"/>
<path d="M18.9264 499.313C18.7382 499.736 18.4087 499.923 17.7969 499.923C17.5616 499.923 17.3263 499.876 16.9969 499.83C14.5889 503.31 10.8162 508.064 7.12979 511.975C9.30244 511.928 11.7575 511.881 14.2595 511.787C13.7889 510.52 13.1771 509.339 12.5104 508.448L12.934 508.166C17.9381 510.098 19.5931 512.593 19.5931 514.469C19.5931 516.026 18.4636 517.152 17.1851 517.152C16.4792 517.152 15.7655 516.87 15.2007 516.12C15.2007 515.134 14.9654 514.047 14.636 512.921L12.2281 513.625V534.193C12.2281 534.521 10.8084 535.507 8.54946 535.507H7.74943V520.491C7.51412 520.679 7.13763 520.773 6.5729 520.773C5.30226 525.246 3.31786 529.383 0.721661 531.878L0.0157471 531.456C1.28639 528.492 2.28252 523.408 2.659 518.653L7.75727 519.733V514.79C6.3376 515.119 4.83165 515.494 3.17667 515.916C2.89431 516.526 2.37664 516.855 1.90603 516.949L0.203991 512.053C1.42757 512.053 3.2708 512.053 5.4905 512.006C8.13376 507.251 11.0123 501.182 12.8085 496.803L18.9421 499.298L18.9264 499.313ZM0.564791 499.22C2.17271 499.548 3.44335 499.97 4.48654 500.44C5.33363 497.898 6.32976 494.371 7.12979 491.258L13.4516 493.425C13.2634 493.988 12.7928 494.269 11.6555 494.222C9.81226 496.67 7.73374 499.259 5.75718 501.19C7.27097 502.223 7.88277 503.404 7.88277 504.436C7.88277 505.804 6.80036 506.884 5.616 506.884C5.05127 506.884 4.43947 506.649 3.8669 506.086C3.49041 503.873 1.8825 501.143 0.235365 499.595L0.564791 499.22ZM13.7811 518.653C18.1264 521.007 19.5853 523.596 19.5853 525.575C19.5853 527.318 18.4087 528.539 17.1302 528.539C16.4714 528.539 15.8047 528.21 15.24 527.459C15.3811 524.777 14.4399 521.156 13.2085 518.896L13.7732 518.661L13.7811 518.653ZM42.6686 525.199L42.7157 530.095C44.3707 530.892 44.5589 531.127 44.5589 531.839C44.5589 533.77 43.1863 534.662 39.0842 534.662H34.4565C29.7818 534.662 28.9347 533.199 28.9347 528.265V520.827H24.8718V524.026C24.8718 524.12 24.1188 525.293 20.4323 525.293V504.678L26.3777 505.147C26.3307 505.711 26.0012 505.992 24.8639 506.133V519.873H28.9268V501.05C25.4365 501.66 21.7971 502.082 18.3538 502.363L18.1656 501.613C21.6089 500.815 25.3894 499.681 28.9268 498.414V491.352L35.484 491.962C35.4369 492.713 35.0605 492.994 33.5467 493.229V496.615C35.7193 495.677 37.6096 494.778 39.0214 493.933L43.9785 498.219C43.7432 498.453 43.3667 498.594 42.849 498.594C42.3784 498.594 41.8608 498.5 41.2411 498.265C39.0685 498.922 36.4252 499.587 33.5467 500.197V519.873H37.7978V504.577L43.9785 505.093C43.8844 505.656 43.602 505.937 42.4176 506.125V522.36C42.4176 522.454 41.4294 523.776 37.79 523.776V520.812H33.5388V528.437C33.5388 530.275 33.6329 530.462 34.5742 530.462H38.9195C39.3901 530.462 39.9548 530.368 40.3862 529.899C40.8568 529.43 41.5627 527.264 42.2294 525.191H42.653L42.6686 525.199Z" fill="white"/>
<path d="M48.1436 516.542C51.8222 510.849 55.791 500.776 57.9636 491.266L65.0933 493.433C64.9051 494.043 64.4815 494.371 63.2031 494.324C61.9795 497.523 60.6069 500.534 59.1401 503.357L60.9363 504.014C60.7951 504.483 60.3716 504.764 59.4696 504.952V533.989C59.4225 534.365 57.344 535.499 55.3596 535.499H54.4183V510.794C52.6692 513.101 50.7868 515.173 48.7553 516.956L48.1436 516.534V516.542ZM87.4159 528.116L92.8907 532.12C92.5142 532.73 91.9024 532.965 90.6239 532.965H62.0187C62.0187 532.777 61.9716 532.637 61.7834 532.027H73.8231V517.527H64.4737C64.4737 517.387 64.4266 517.246 64.2384 516.636H73.8231V503.646H63.156L62.9207 502.755H83.2667L86.0982 499.04L91.3847 502.848C91.0082 503.458 90.3964 503.646 89.0709 503.646H79.1096V516.636H82.5059L85.1491 513.109L90.1533 516.73C89.7768 517.34 89.165 517.527 87.8865 517.527H79.1096V532.027H84.3962L87.4159 528.116ZM69.5249 491.36C78.2547 492.064 81.0862 495.505 81.0862 498.093C81.0862 499.837 79.8626 501.198 78.2547 501.198C77.6429 501.198 76.937 501.011 76.2703 500.494C75.1879 497.296 72.2544 493.714 69.3288 491.743L69.5171 491.368L69.5249 491.36Z" fill="white"/>
<path d="M96.475 531.268V530.282C109.55 518.99 113.464 512.632 113.464 505.476C113.464 500.674 111.338 497.569 107.33 497.569C103.322 497.569 101.291 501.096 98.7418 505.945L98.0359 505.664L99.3065 497.616C101.009 496.959 103.699 496.107 107.425 496.107C115.495 496.107 118.939 500.064 118.939 505.335C118.939 512.209 113.135 518.372 102.138 526.56H111.009C115.26 526.56 117.284 524.487 119.409 521.852L120.021 522.087L117.472 531.268H96.4672H96.475Z" fill="white"/>
<path d="M160.148 515.69L162.698 512.397L167.466 515.783C167.137 516.44 166.525 516.628 165.247 516.628H148.493C148.258 518.419 147.928 520.202 147.316 521.946H156.76L158.791 519.498L163.89 523.213C163.607 523.588 163.043 523.87 162.188 524.011C161.435 533.755 159.827 535.397 153.552 535.397C153.552 532.48 152.987 531.729 148.548 530.924V530.267C150.203 530.314 153.27 530.408 154.211 530.408C154.964 530.408 155.34 530.408 155.631 530.126C156.336 529.563 156.807 526.974 157.144 522.877H146.995C145.058 527.584 140.908 532.105 131.418 535.538L130.9 534.881C141.285 529.047 142.461 522.407 142.799 516.62H134.351C133.551 522.877 131.19 529.751 124.531 534.646L124.013 534.224C129.206 526.646 129.818 517.23 129.818 509.23V498.735L135.528 500.854H157.568L159.552 498.266L164.933 502.027C164.651 502.356 163.992 502.825 163.09 502.966V510.262C163.09 510.356 161.623 511.388 158.038 511.388V509.504H134.767C134.767 511.388 134.72 513.461 134.484 515.666H145.763V509.832L152.226 510.442C152.132 510.958 151.803 511.193 150.666 511.381V515.666H160.156L160.148 515.69ZM167.608 494.84C167.231 495.45 166.666 495.685 165.341 495.685H125.504L125.221 494.746H159.913L162.603 491.266L167.608 494.84ZM158.023 501.761H134.751V508.636H158.023V501.761Z" fill="white"/>
<path d="M174.306 517.856C174.306 515.408 176.196 513.476 178.604 513.476C181.012 513.476 182.902 515.408 182.902 517.856C182.902 520.116 180.918 522.141 178.604 522.141C176.29 522.141 174.306 520.116 174.306 517.856Z" fill="white"/>
<path d="M199.225 531.979C195.828 531.979 192.189 531.088 190.259 529.907L189.036 522.282L189.789 522.094C192.809 527.037 195.264 530.517 199.515 530.517C204.613 530.517 206.786 525.95 206.786 520.491C206.786 514.235 203.954 511.216 199.044 511.216C196.448 511.216 194.464 512.061 192.958 513.148L192.346 512.35L205.139 501.526H190.22L192.252 496.819H211.845V497.522L196.926 510.137C197.868 509.808 199.052 509.668 200.323 509.668C206.362 509.668 212.221 513.195 212.221 520.444C212.221 527.271 206.982 531.972 199.24 531.972L199.225 531.979Z" fill="white"/>
<path d="M252.654 515.69L255.204 512.397L259.972 515.783C259.643 516.44 259.031 516.628 257.753 516.628H240.999C240.764 518.419 240.434 520.202 239.822 521.946H249.266L251.297 519.498L256.396 523.213C256.113 523.588 255.549 523.87 254.694 524.011C253.941 533.755 252.333 535.397 246.058 535.397C246.058 532.48 245.493 531.729 241.054 530.924V530.267C242.709 530.314 245.776 530.408 246.717 530.408C247.47 530.408 247.846 530.408 248.137 530.126C248.842 529.563 249.313 526.974 249.65 522.877H239.501C237.564 527.584 233.414 532.105 223.924 535.538L223.406 534.881C233.791 529.047 234.967 522.407 235.297 516.62H226.849C226.049 522.877 223.688 529.751 217.029 534.646L216.512 534.224C221.704 526.646 222.316 517.23 222.316 509.23V498.735L228.026 500.854H250.066L252.05 498.266L257.431 502.027C257.149 502.356 256.49 502.825 255.588 502.966V510.262C255.588 510.356 254.121 511.388 250.537 511.388V509.504H227.265C227.265 511.388 227.218 513.461 226.983 515.666H238.262V509.832L244.732 510.442C244.638 510.958 244.309 511.193 243.172 511.381V515.666H252.662L252.654 515.69ZM260.114 494.84C259.737 495.45 259.172 495.685 257.847 495.685H218.01L217.727 494.746H252.419L255.109 491.266L260.114 494.84ZM250.529 501.761H227.257V508.636H250.529V501.761Z" fill="white"/>
</g>
<defs>
<clipPath id="clip0_20_563">
<rect width="360.291" height="724.957" fill="white"/>
</clipPath>
</defs>
</svg>
