<?xml version="1.0" encoding="UTF-8"?>
<svg id="_圖層_2" data-name="圖層 2" xmlns="http://www.w3.org/2000/svg" viewBox="0 0 643.12 180.16">
  <defs>
    <style>
      .cls-1 {
        fill: #fff;
      }
    </style>
  </defs>
  <g id="_圖層_1-2" data-name="圖層 1">
    <g>
      <path class="cls-1" d="M72.19,56.4h.36c2.41-8.21,10.62-34.09,13.74-45.51.89-3.3.98-4.55.98-5.71,0-1.61-.98-2.68-5.09-2.68-.45,0-.8-.27-.8-.62,0-.45.45-.62,1.52-.62,4.55,0,8.3.27,9.1.27.62,0,4.46-.27,7.23-.27.8,0,1.25.18,1.25.54,0,.45-.27.71-.8.71-.36,0-2.05.09-3.03.45-2.68.98-4.1,4.73-5.8,9.64-3.93,11.33-12.94,39.71-16.42,49.7-2.32,6.6-2.77,7.67-3.75,7.67-.89,0-1.43-1.16-2.68-4.64L50.51,15.71h-.18c-3.21,8.57-15.44,41.23-18.65,49.52-1.43,3.75-1.87,4.73-2.94,4.73-.89,0-1.34-.98-3.12-7.05L9.73,9.99c-1.43-4.73-2.59-6.07-4.91-6.96-1.16-.45-3.39-.54-4.02-.54-.45,0-.8-.09-.8-.62,0-.45.54-.62,1.43-.62,4.64,0,9.55.27,10.53.27.8,0,4.73-.27,9.19-.27,1.25,0,1.61.27,1.61.62,0,.54-.45.62-.89.62-.71,0-2.41,0-3.48.54-.54.27-1.16.98-1.16,2.14s.8,4.28,1.7,8.21c1.34,5.71,10.62,38.46,11.96,43.19h.18L49.97,5.71c1.34-3.66,1.7-4.1,2.23-4.1.62,0,1.16,1.16,2.23,4.19l17.76,50.59Z"/>
      <path class="cls-1" d="M115.02,27.13c0-13.92,0-16.42-.18-19.27-.18-3.03-.89-4.46-3.84-5.09-.71-.18-2.23-.27-3.03-.27-.36,0-.71-.18-.71-.54,0-.54.45-.71,1.43-.71,2.05,0,4.46,0,6.42.09l3.66.18c.62,0,18.38,0,20.43-.09,1.7-.09,3.12-.27,3.84-.45.45-.09.8-.45,1.25-.45.27,0,.36.36.36.8,0,.62-.45,1.7-.71,4.19-.09.89-.27,4.82-.45,5.89-.09.45-.27.98-.62.98-.54,0-.71-.45-.71-1.16,0-.62-.09-2.14-.54-3.21-.62-1.43-1.52-2.5-6.33-3.03-1.52-.18-11.24-.27-12.23-.27-.36,0-.54.27-.54.89v24.63c0,.62.09.89.54.89,1.16,0,12.14,0,14.19-.18,2.14-.18,3.39-.36,4.19-1.25.62-.71.98-1.16,1.34-1.16.27,0,.45.18.45.71s-.45,2.05-.71,5c-.18,1.79-.36,5.09-.36,5.71,0,.71,0,1.7-.62,1.7-.45,0-.62-.36-.62-.8,0-.89,0-1.78-.36-2.94-.36-1.25-1.16-2.77-4.64-3.12-2.41-.27-11.24-.45-12.76-.45-.45,0-.62.27-.62.62v7.85c0,3.03-.09,13.39,0,15.26.27,6.16,1.61,7.32,10.35,7.32,2.32,0,6.25,0,8.57-.98,2.32-.98,3.39-2.77,4.02-6.42.18-.98.36-1.34.8-1.34.54,0,.54.71.54,1.34,0,.71-.71,6.78-1.16,8.66-.62,2.32-1.34,2.32-4.82,2.32-6.69,0-11.6-.18-15.08-.27-3.48-.18-5.62-.27-6.96-.27-.18,0-1.7,0-3.57.09-1.79,0-3.84.18-5.18.18-.98,0-1.43-.18-1.43-.71,0-.27.18-.54.71-.54.8,0,1.87-.18,2.68-.36,1.79-.36,2.23-2.32,2.59-4.91.45-3.75.45-10.8.45-19.36v-15.71Z"/>
      <path class="cls-1" d="M176.95,43.01c0,13.12.36,18.83,1.96,20.43,1.43,1.43,3.75,2.05,10.71,2.05,4.73,0,8.66-.09,10.8-2.68,1.16-1.43,2.05-3.66,2.32-5.35.09-.71.27-1.16.8-1.16.45,0,.54.36.54,1.34s-.62,6.34-1.34,8.92c-.62,2.05-.89,2.41-5.62,2.41-6.42,0-11.06-.18-14.81-.27-3.75-.18-6.51-.27-9.1-.27-.36,0-1.87.09-3.66.09-1.78.09-3.75.18-5.09.18-.98,0-1.43-.18-1.43-.71,0-.27.18-.54.71-.54.8,0,1.87-.18,2.68-.36,1.78-.36,2.23-2.32,2.59-4.91.45-3.75.45-10.8.45-19.36v-15.71c0-13.92,0-16.42-.18-19.27-.18-3.03-.89-4.46-3.84-5.09-.71-.18-2.23-.27-3.03-.27-.36,0-.71-.18-.71-.54,0-.54.45-.71,1.43-.71,4.02,0,9.64.27,10.08.27s6.96-.27,9.64-.27c.98,0,1.43.18,1.43.71,0,.36-.36.54-.71.54-.62,0-1.87.09-2.94.27-2.59.45-3.3,1.96-3.48,5.09-.18,2.86-.18,5.35-.18,19.27v15.88Z"/>
      <path class="cls-1" d="M220.77,60.32c-8.66-7.76-10.8-17.94-10.8-26.41,0-5.98,2.05-16.42,9.99-24.36,5.35-5.35,13.47-9.55,27.22-9.55,3.57,0,8.57.27,12.94,1.07,3.39.62,6.25,1.16,9.1,1.34.98.09,1.16.45,1.16.98,0,.71-.27,1.78-.45,5-.18,2.94-.18,7.85-.27,9.19-.09,1.34-.27,1.87-.8,1.87-.62,0-.71-.62-.71-1.87,0-3.48-1.43-7.14-3.75-9.1-3.12-2.68-9.99-5.09-17.85-5.09-11.87,0-17.4,3.48-20.52,6.51-6.51,6.25-8.03,14.19-8.03,23.29,0,17.04,13.12,32.66,32.21,32.66,6.69,0,11.96-.8,15.53-4.46,1.87-1.96,3.03-5.89,3.3-7.5.18-.98.36-1.34.89-1.34.45,0,.62.62.62,1.34,0,.62-1.07,8.39-1.96,11.42-.54,1.7-.71,1.87-2.32,2.59-3.57,1.43-10.35,2.05-16.06,2.05-13.38,0-22.4-3.3-29.45-9.64Z"/>
      <path class="cls-1" d="M316.07,0c20.08,0,35.07,12.67,35.07,33.46s-14.1,36.5-35.6,36.5c-24.45,0-34.62-19.01-34.62-35.07,0-14.46,10.53-34.89,35.16-34.89ZM317.95,66.57c8.03,0,24.63-4.64,24.63-30.61,0-21.42-13.03-32.93-27.13-32.93-14.9,0-26.06,9.82-26.06,29.36,0,20.79,12.49,34.18,28.55,34.18Z"/>
      <path class="cls-1" d="M438.24,57.2c.36,3.21.98,8.21,4.82,9.46,2.59.8,4.91.8,5.8.8.45,0,.71.09.71.45,0,.54-.8.8-1.87.8-1.96,0-11.6-.27-14.9-.54-2.05-.18-2.5-.45-2.5-.89,0-.36.18-.54.62-.62.45-.09.54-1.61.36-3.21l-4.28-46.04h-.27l-21.86,46.4c-1.87,3.93-2.14,4.73-2.94,4.73-.62,0-1.07-.89-2.77-4.1-2.32-4.37-9.99-19.81-10.44-20.7-.8-1.61-10.8-23.02-11.78-25.43h-.36l-3.57,41.4c-.09,1.43-.09,3.03-.09,4.55,0,1.34.98,2.5,2.32,2.77,1.52.36,2.86.45,3.39.45.36,0,.71.18.71.45,0,.62-.54.8-1.61.8-3.3,0-7.58-.27-8.3-.27-.8,0-5.09.27-7.5.27-.89,0-1.52-.18-1.52-.8,0-.27.45-.45.89-.45.71,0,1.34,0,2.68-.27,2.94-.54,3.21-4.02,3.57-7.41l6.42-58.18c.09-.98.45-1.61.98-1.61s.89.36,1.34,1.34l27.31,56.13L429.85,1.43c.36-.8.71-1.43,1.34-1.43s.89.71,1.07,2.41l5.98,54.79Z"/>
      <path class="cls-1" d="M465.54,27.13c0-13.92,0-16.42-.18-19.27-.18-3.03-.89-4.46-3.84-5.09-.71-.18-2.23-.27-3.03-.27-.36,0-.71-.18-.71-.54,0-.54.45-.71,1.43-.71,2.05,0,4.46,0,6.42.09l3.66.18c.62,0,18.38,0,20.43-.09,1.7-.09,3.12-.27,3.84-.45.45-.09.8-.45,1.25-.45.27,0,.36.36.36.8,0,.62-.45,1.7-.71,4.19-.09.89-.27,4.82-.45,5.89-.09.45-.27.98-.62.98-.54,0-.71-.45-.71-1.16,0-.62-.09-2.14-.54-3.21-.62-1.43-1.52-2.5-6.34-3.03-1.52-.18-11.24-.27-12.22-.27-.36,0-.54.27-.54.89v24.63c0,.62.09.89.54.89,1.16,0,12.13,0,14.19-.18,2.14-.18,3.39-.36,4.19-1.25.62-.71.98-1.16,1.34-1.16.27,0,.45.18.45.71s-.45,2.05-.71,5c-.18,1.79-.36,5.09-.36,5.71,0,.71,0,1.7-.62,1.7-.45,0-.62-.36-.62-.8,0-.89,0-1.78-.36-2.94-.36-1.25-1.16-2.77-4.64-3.12-2.41-.27-11.24-.45-12.76-.45-.45,0-.62.27-.62.62v7.85c0,3.03-.09,13.39,0,15.26.27,6.16,1.61,7.32,10.35,7.32,2.32,0,6.25,0,8.57-.98,2.32-.98,3.39-2.77,4.02-6.42.18-.98.36-1.34.8-1.34.54,0,.54.71.54,1.34,0,.71-.71,6.78-1.16,8.66-.62,2.32-1.34,2.32-4.82,2.32-6.69,0-11.6-.18-15.08-.27-3.48-.18-5.62-.27-6.96-.27-.18,0-1.7,0-3.57.09-1.78,0-3.84.18-5.17.18-.98,0-1.43-.18-1.43-.71,0-.27.18-.54.71-.54.8,0,1.87-.18,2.68-.36,1.78-.36,2.23-2.32,2.59-4.91.45-3.75.45-10.8.45-19.36v-15.71Z"/>
      <path class="cls-1" d="M19.27,166.78c.18,7.32,1.07,9.64,3.48,10.35,1.7.45,3.66.54,4.46.54.45,0,.71.18.71.54,0,.54-.54.71-1.61.71-5.09,0-8.66-.27-9.46-.27s-4.55.27-8.57.27c-.89,0-1.43-.09-1.43-.71,0-.36.27-.54.71-.54.71,0,2.32-.09,3.66-.54,2.23-.62,2.68-3.21,2.68-11.33l.09-51.13c0-3.48.27-4.46.98-4.46s2.23,1.96,3.12,2.86c1.34,1.52,14.63,15.88,28.38,30.61,8.83,9.46,18.56,20.35,21.42,23.29l-.98-45.33c-.09-5.8-.71-7.76-3.48-8.48-1.61-.36-3.66-.45-4.37-.45-.62,0-.71-.27-.71-.62,0-.54.71-.62,1.79-.62,4.02,0,8.3.27,9.28.27s3.93-.27,7.58-.27c.98,0,1.61.09,1.61.62,0,.36-.36.62-.98.62-.45,0-1.07,0-2.14.27-2.94.62-3.3,2.59-3.3,7.94l-.18,52.29c0,5.89-.18,6.34-.8,6.34-.71,0-1.78-.98-6.51-5.71-.98-.89-13.83-14.01-23.29-24.18-10.35-11.15-20.43-22.4-23.29-25.61l1.16,42.74Z"/>
      <path class="cls-1" d="M101.37,137.33c0-13.92,0-16.42-.18-19.27-.18-3.03-.89-4.46-3.84-5.09-.71-.18-2.23-.27-3.03-.27-.36,0-.71-.18-.71-.54,0-.54.45-.71,1.43-.71,2.05,0,4.46,0,6.42.09l3.66.18c.62,0,18.38,0,20.43-.09,1.7-.09,3.12-.27,3.84-.45.45-.09.8-.45,1.25-.45.27,0,.36.36.36.8,0,.62-.45,1.7-.71,4.19-.09.89-.27,4.82-.45,5.89-.09.45-.27.98-.62.98-.54,0-.71-.45-.71-1.16,0-.62-.09-2.14-.54-3.21-.62-1.43-1.52-2.5-6.34-3.03-1.52-.18-11.24-.27-12.22-.27-.36,0-.54.27-.54.89v24.63c0,.62.09.89.54.89,1.16,0,12.13,0,14.19-.18,2.14-.18,3.39-.36,4.19-1.25.62-.71.98-1.16,1.34-1.16.27,0,.45.18.45.71s-.45,2.05-.71,5c-.18,1.79-.36,5.09-.36,5.71,0,.71,0,1.7-.62,1.7-.45,0-.62-.36-.62-.8,0-.89,0-1.78-.36-2.94-.36-1.25-1.16-2.77-4.64-3.12-2.41-.27-11.24-.45-12.76-.45-.45,0-.62.27-.62.62v7.85c0,3.03-.09,13.39,0,15.26.27,6.16,1.61,7.32,10.35,7.32,2.32,0,6.25,0,8.57-.98,2.32-.98,3.39-2.77,4.02-6.42.18-.98.36-1.34.8-1.34.54,0,.54.71.54,1.34,0,.71-.71,6.78-1.16,8.66-.62,2.32-1.34,2.32-4.82,2.32-6.69,0-11.6-.18-15.08-.27-3.48-.18-5.62-.27-6.96-.27-.18,0-1.7,0-3.57.09-1.78,0-3.84.18-5.17.18-.98,0-1.43-.18-1.43-.71,0-.27.18-.54.71-.54.8,0,1.87-.18,2.68-.36,1.78-.36,2.23-2.32,2.59-4.91.45-3.75.45-10.8.45-19.36v-15.71Z"/>
      <path class="cls-1" d="M213.81,166.6h.36c2.41-8.21,10.62-34.09,13.74-45.51.89-3.3.98-4.55.98-5.71,0-1.61-.98-2.68-5.09-2.68-.45,0-.8-.27-.8-.62,0-.45.45-.62,1.52-.62,4.55,0,8.3.27,9.1.27.62,0,4.46-.27,7.23-.27.8,0,1.25.18,1.25.54,0,.45-.27.71-.8.71-.36,0-2.05.09-3.03.45-2.68.98-4.1,4.73-5.8,9.64-3.93,11.33-12.94,39.71-16.42,49.7-2.32,6.6-2.77,7.67-3.75,7.67-.89,0-1.43-1.16-2.68-4.64l-17.49-49.61h-.18c-3.21,8.57-15.44,41.23-18.65,49.53-1.43,3.75-1.87,4.73-2.94,4.73-.89,0-1.34-.98-3.12-7.05l-15.88-52.92c-1.43-4.73-2.59-6.07-4.91-6.96-1.16-.45-3.39-.54-4.02-.54-.45,0-.8-.09-.8-.62,0-.45.54-.62,1.43-.62,4.64,0,9.55.27,10.53.27.8,0,4.73-.27,9.19-.27,1.25,0,1.61.27,1.61.62,0,.54-.45.62-.89.62-.71,0-2.41,0-3.48.54-.54.27-1.16.98-1.16,2.14s.8,4.28,1.7,8.21c1.34,5.71,10.62,38.46,11.96,43.19h.18l18.92-50.86c1.34-3.66,1.7-4.1,2.23-4.1.62,0,1.16,1.16,2.23,4.19l17.76,50.59Z"/>
      <path class="cls-1" d="M340.97,166.6h.36c2.41-8.21,10.62-34.09,13.74-45.51.89-3.3.98-4.55.98-5.71,0-1.61-.98-2.68-5.09-2.68-.45,0-.8-.27-.8-.62,0-.45.45-.62,1.52-.62,4.55,0,8.3.27,9.1.27.62,0,4.46-.27,7.23-.27.8,0,1.25.18,1.25.54,0,.45-.27.71-.8.71-.36,0-2.05.09-3.03.45-2.68.98-4.1,4.73-5.8,9.64-3.93,11.33-12.94,39.71-16.42,49.7-2.32,6.6-2.77,7.67-3.75,7.67-.89,0-1.43-1.16-2.68-4.64l-17.49-49.61h-.18c-3.21,8.57-15.44,41.23-18.65,49.53-1.43,3.75-1.87,4.73-2.94,4.73-.89,0-1.34-.98-3.12-7.05l-15.88-52.92c-1.43-4.73-2.59-6.07-4.91-6.96-1.16-.45-3.39-.54-4.02-.54-.45,0-.8-.09-.8-.62,0-.45.54-.62,1.43-.62,4.64,0,9.55.27,10.53.27.8,0,4.73-.27,9.19-.27,1.25,0,1.61.27,1.61.62,0,.54-.45.62-.89.62-.71,0-2.41,0-3.48.54-.54.27-1.16.98-1.16,2.14s.8,4.28,1.7,8.21c1.34,5.71,10.62,38.46,11.96,43.19h.18l18.92-50.86c1.34-3.66,1.7-4.1,2.23-4.1.62,0,1.16,1.16,2.23,4.19l17.76,50.59Z"/>
      <path class="cls-1" d="M408.79,110.2c20.08,0,35.07,12.67,35.07,33.46s-14.1,36.5-35.6,36.5c-24.45,0-34.62-19.01-34.62-35.07,0-14.46,10.53-34.89,35.16-34.89ZM410.66,176.77c8.03,0,24.63-4.64,24.63-30.61,0-21.42-13.03-32.93-27.13-32.93-14.9,0-26.06,9.82-26.06,29.36,0,20.79,12.49,34.18,28.55,34.18Z"/>
      <path class="cls-1" d="M462.77,137.33c0-13.92,0-16.42-.18-19.27-.18-3.03-.89-4.46-3.84-5.09-.71-.18-2.23-.27-3.03-.27-.36,0-.71-.18-.71-.54,0-.54.45-.71,1.43-.71,4.02,0,9.64.27,10.08.27.98,0,7.76-.27,10.53-.27,5.62,0,11.6.54,16.33,3.93,2.23,1.61,6.16,5.98,6.16,12.14,0,6.6-2.77,13.21-10.8,20.61,7.32,9.37,13.38,17.31,18.56,22.84,4.82,5.09,8.66,6.07,10.89,6.42,1.7.27,2.94.27,3.48.27.45,0,.8.27.8.54,0,.54-.54.71-2.14.71h-6.34c-5,0-7.23-.45-9.55-1.7-3.84-2.05-6.96-6.42-12.05-13.12-3.75-4.91-7.94-10.89-9.73-13.21-.36-.36-.62-.54-1.16-.54l-10.98-.18c-.45,0-.62.27-.62.71v2.14c0,8.57,0,15.62.45,19.36.27,2.59.8,4.55,3.48,4.91,1.25.18,3.21.36,4.02.36.54,0,.71.27.71.54,0,.45-.45.71-1.43.71-4.91,0-10.53-.27-10.98-.27-.09,0-5.71.27-8.39.27-.98,0-1.43-.18-1.43-.71,0-.27.18-.54.71-.54.8,0,1.87-.18,2.68-.36,1.79-.36,2.23-2.32,2.59-4.91.45-3.75.45-10.8.45-19.36v-15.71ZM469.91,145.09c0,.45.18.8.62,1.07,1.34.8,5.44,1.43,9.37,1.43,2.14,0,4.64-.27,6.69-1.7,3.12-2.14,5.44-6.96,5.44-13.74,0-11.15-5.89-17.85-15.44-17.85-2.68,0-5.09.27-5.98.54-.45.18-.71.54-.71,1.07v29.18Z"/>
      <path class="cls-1" d="M537.55,153.21c0,13.12.36,18.83,1.96,20.43,1.43,1.43,3.75,2.05,10.71,2.05,4.73,0,8.66-.09,10.8-2.68,1.16-1.43,2.05-3.66,2.32-5.35.09-.71.27-1.16.8-1.16.45,0,.54.36.54,1.34s-.62,6.33-1.34,8.92c-.62,2.05-.89,2.41-5.62,2.41-6.42,0-11.06-.18-14.81-.27-3.75-.18-6.51-.27-9.1-.27-.36,0-1.87.09-3.66.09-1.78.09-3.75.18-5.09.18-.98,0-1.43-.18-1.43-.71,0-.27.18-.54.71-.54.8,0,1.87-.18,2.68-.36,1.78-.36,2.23-2.32,2.59-4.91.45-3.75.45-10.8.45-19.36v-15.71c0-13.92,0-16.42-.18-19.27-.18-3.03-.89-4.46-3.84-5.09-.71-.18-2.23-.27-3.03-.27-.36,0-.71-.18-.71-.54,0-.54.45-.71,1.43-.71,4.02,0,9.64.27,10.08.27s6.96-.27,9.64-.27c.98,0,1.43.18,1.43.71,0,.36-.36.54-.71.54-.62,0-1.87.09-2.94.27-2.59.45-3.3,1.96-3.48,5.09-.18,2.86-.18,5.35-.18,19.27v15.88Z"/>
      <path class="cls-1" d="M582.89,137.33c0-13.92,0-16.42-.18-19.27-.18-3.03-.89-4.46-3.84-5.09-.71-.18-2.23-.27-3.03-.27-.36,0-.71-.18-.71-.54,0-.54.45-.71,1.43-.71,4.02,0,9.64.27,10.08.27,1.07,0,6.69-.27,12.05-.27,8.83,0,25.16-.8,35.78,10.17,4.46,4.64,8.66,12.05,8.66,22.67,0,11.24-4.64,19.9-9.64,25.16-3.84,4.02-11.87,10.26-27.04,10.26-3.84,0-8.57-.27-12.4-.54-3.93-.27-6.96-.54-7.41-.54-.18,0-1.7,0-3.57.09-1.78,0-3.84.18-5.17.18-.98,0-1.43-.18-1.43-.71,0-.27.18-.54.71-.54.8,0,1.87-.18,2.68-.36,1.78-.36,2.23-2.32,2.59-4.91.45-3.75.45-10.8.45-19.36v-15.71ZM590.38,146.97c0,9.46.09,17.67.18,19.36.09,2.23.27,5.8.98,6.78,1.16,1.7,4.64,3.57,15.17,3.57,8.3,0,15.97-3.03,21.24-8.3,4.64-4.55,7.14-13.12,7.14-21.33,0-11.33-4.91-18.65-8.57-22.49-8.39-8.83-18.56-10.08-29.18-10.08-1.78,0-5.09.27-5.8.62-.8.36-1.07.8-1.07,1.79-.09,3.03-.09,12.13-.09,19.01v11.07Z"/>
    </g>
  </g>
</svg>