<?xml version="1.0" encoding="UTF-8"?>
<svg id="_圖層_2" data-name="圖層 2" xmlns="http://www.w3.org/2000/svg" viewBox="0 0 207.04 58.63">
  <defs>
    <style>
      .cls-1 {
        fill: #fff;
      }
    </style>
  </defs>
  <g id="_圖層_1-2" data-name="圖層 1">
    <g>
      <path class="cls-1" d="M44.81,18.35h.12c.78-2.67,3.46-11.09,4.47-14.81.29-1.07.32-1.48.32-1.86,0-.52-.32-.87-1.66-.87-.15,0-.26-.09-.26-.2,0-.15.15-.2.49-.2,1.48,0,2.7.09,2.96.09.2,0,1.45-.09,2.35-.09.26,0,.41.06.41.17,0,.15-.09.23-.26.23-.12,0-.67.03-.99.15-.87.32-1.34,1.54-1.89,3.14-1.28,3.69-4.21,12.92-5.34,16.17-.75,2.15-.9,2.5-1.22,2.5-.29,0-.46-.38-.87-1.51l-5.69-16.15h-.06c-1.05,2.79-5.02,13.42-6.07,16.12-.46,1.22-.61,1.54-.96,1.54-.29,0-.44-.32-1.02-2.29L24.48,3.25c-.46-1.54-.84-1.97-1.6-2.26-.38-.15-1.1-.17-1.31-.17-.15,0-.26-.03-.26-.2,0-.15.17-.2.46-.2,1.51,0,3.11.09,3.43.09.26,0,1.54-.09,2.99-.09.41,0,.52.09.52.2,0,.17-.15.2-.29.2-.23,0-.78,0-1.13.17-.17.09-.38.32-.38.7s.26,1.39.55,2.67c.44,1.86,3.46,12.52,3.89,14.06h.06L37.58,1.86c.44-1.19.55-1.34.73-1.34.2,0,.38.38.73,1.36l5.78,16.47Z"/>
      <path class="cls-1" d="M58.74,8.83c0-4.53,0-5.34-.06-6.27-.06-.99-.29-1.45-1.25-1.66-.23-.06-.73-.09-.99-.09-.12,0-.23-.06-.23-.17,0-.17.15-.23.46-.23.67,0,1.45,0,2.09.03l1.19.06c.2,0,5.98,0,6.65-.03.55-.03,1.02-.09,1.25-.15.15-.03.26-.14.41-.14.09,0,.12.12.12.26,0,.2-.15.55-.23,1.36-.03.29-.09,1.57-.15,1.92-.03.14-.09.32-.2.32-.17,0-.23-.14-.23-.38,0-.2-.03-.7-.17-1.05-.2-.46-.49-.81-2.06-.99-.49-.06-3.66-.09-3.98-.09-.12,0-.17.09-.17.29v8.02c0,.2.03.29.17.29.38,0,3.95,0,4.62-.06.7-.06,1.1-.12,1.36-.41.2-.23.32-.38.44-.38.09,0,.15.06.15.23s-.15.67-.23,1.63c-.06.58-.12,1.66-.12,1.86,0,.23,0,.55-.2.55-.15,0-.2-.12-.2-.26,0-.29,0-.58-.12-.96-.12-.41-.38-.9-1.51-1.02-.78-.09-3.66-.15-4.15-.15-.15,0-.2.09-.2.2v2.56c0,.99-.03,4.36,0,4.97.09,2,.52,2.38,3.37,2.38.75,0,2.03,0,2.79-.32.75-.32,1.1-.9,1.31-2.09.06-.32.12-.44.26-.44.17,0,.17.23.17.44,0,.23-.23,2.21-.38,2.82-.2.76-.44.76-1.57.76-2.18,0-3.78-.06-4.91-.09-1.13-.06-1.83-.09-2.27-.09-.06,0-.55,0-1.16.03-.58,0-1.25.06-1.68.06-.32,0-.46-.06-.46-.23,0-.09.06-.17.23-.17.26,0,.61-.06.87-.12.58-.12.73-.76.84-1.6.15-1.22.15-3.51.15-6.3v-5.11Z"/>
      <path class="cls-1" d="M78.9,14c0,4.27.12,6.13.64,6.65.46.46,1.22.67,3.48.67,1.54,0,2.82-.03,3.51-.87.38-.46.67-1.19.75-1.74.03-.23.09-.38.26-.38.15,0,.17.12.17.44s-.2,2.06-.44,2.9c-.2.67-.29.78-1.83.78-2.09,0-3.6-.06-4.82-.09-1.22-.06-2.12-.09-2.96-.09-.12,0-.61.03-1.19.03-.58.03-1.22.06-1.66.06-.32,0-.46-.06-.46-.23,0-.09.06-.17.23-.17.26,0,.61-.06.87-.12.58-.12.73-.76.84-1.6.15-1.22.15-3.51.15-6.3v-5.11c0-4.53,0-5.34-.06-6.27-.06-.99-.29-1.45-1.25-1.66-.23-.06-.73-.09-.99-.09-.12,0-.23-.06-.23-.17,0-.17.15-.23.46-.23,1.31,0,3.14.09,3.28.09s2.27-.09,3.14-.09c.32,0,.46.06.46.23,0,.12-.12.17-.23.17-.2,0-.61.03-.96.09-.84.15-1.07.64-1.13,1.66-.06.93-.06,1.74-.06,6.27v5.17Z"/>
      <path class="cls-1" d="M93.15,19.63c-2.82-2.53-3.51-5.84-3.51-8.6,0-1.95.67-5.34,3.25-7.93,1.74-1.74,4.38-3.11,8.86-3.11,1.16,0,2.79.09,4.21.35,1.1.2,2.03.38,2.96.44.32.03.38.15.38.32,0,.23-.09.58-.15,1.63-.06.96-.06,2.56-.09,2.99-.03.44-.09.61-.26.61-.2,0-.23-.2-.23-.61,0-1.13-.46-2.32-1.22-2.96-1.02-.87-3.25-1.66-5.81-1.66-3.86,0-5.66,1.13-6.68,2.12-2.12,2.03-2.61,4.62-2.61,7.58,0,5.55,4.27,10.63,10.48,10.63,2.18,0,3.89-.26,5.05-1.45.61-.64.99-1.92,1.07-2.44.06-.32.12-.44.29-.44.15,0,.2.2.2.44,0,.2-.35,2.73-.64,3.72-.17.55-.23.61-.76.84-1.16.46-3.37.67-5.23.67-4.36,0-7.29-1.07-9.58-3.14Z"/>
      <path class="cls-1" d="M124.17,0c6.53,0,11.41,4.12,11.41,10.89s-4.59,11.88-11.59,11.88c-7.96,0-11.27-6.19-11.27-11.41,0-4.7,3.43-11.35,11.44-11.35ZM124.78,21.66c2.61,0,8.02-1.51,8.02-9.96,0-6.97-4.24-10.72-8.83-10.72-4.85,0-8.48,3.19-8.48,9.55,0,6.77,4.07,11.12,9.29,11.12Z"/>
      <path class="cls-1" d="M163.92,18.61c.12,1.05.32,2.67,1.57,3.08.84.26,1.6.26,1.89.26.15,0,.23.03.23.15,0,.17-.26.26-.61.26-.64,0-3.78-.09-4.85-.17-.67-.06-.81-.14-.81-.29,0-.12.06-.17.2-.2.15-.03.17-.52.12-1.05l-1.39-14.98h-.09l-7.11,15.1c-.61,1.28-.7,1.54-.96,1.54-.2,0-.35-.29-.9-1.34-.76-1.42-3.25-6.45-3.4-6.74-.26-.52-3.51-7.49-3.83-8.28h-.12l-1.16,13.47c-.03.46-.03.99-.03,1.48,0,.44.32.81.76.9.49.12.93.14,1.1.14.12,0,.23.06.23.15,0,.2-.17.26-.52.26-1.07,0-2.47-.09-2.7-.09-.26,0-1.66.09-2.44.09-.29,0-.49-.06-.49-.26,0-.09.14-.15.29-.15.23,0,.44,0,.87-.09.96-.17,1.05-1.31,1.16-2.41l2.09-18.93c.03-.32.15-.52.32-.52s.29.12.44.44l8.89,18.27L161.19.46c.12-.26.23-.46.44-.46s.29.23.35.78l1.95,17.83Z"/>
      <path class="cls-1" d="M172.81,8.83c0-4.53,0-5.34-.06-6.27-.06-.99-.29-1.45-1.25-1.66-.23-.06-.73-.09-.99-.09-.12,0-.23-.06-.23-.17,0-.17.15-.23.46-.23.67,0,1.45,0,2.09.03l1.19.06c.2,0,5.98,0,6.65-.03.55-.03,1.02-.09,1.25-.15.15-.03.26-.14.41-.14.09,0,.12.12.12.26,0,.2-.15.55-.23,1.36-.03.29-.09,1.57-.15,1.92-.03.14-.09.32-.2.32-.17,0-.23-.14-.23-.38,0-.2-.03-.7-.17-1.05-.2-.46-.49-.81-2.06-.99-.49-.06-3.66-.09-3.98-.09-.12,0-.17.09-.17.29v8.02c0,.2.03.29.17.29.38,0,3.95,0,4.62-.06.7-.06,1.1-.12,1.36-.41.2-.23.32-.38.44-.38.09,0,.14.06.14.23s-.14.67-.23,1.63c-.06.58-.12,1.66-.12,1.86,0,.23,0,.55-.2.55-.14,0-.2-.12-.2-.26,0-.29,0-.58-.12-.96-.12-.41-.38-.9-1.51-1.02-.78-.09-3.66-.15-4.15-.15-.15,0-.2.09-.2.2v2.56c0,.99-.03,4.36,0,4.97.09,2,.52,2.38,3.37,2.38.76,0,2.03,0,2.79-.32s1.1-.9,1.31-2.09c.06-.32.12-.44.26-.44.17,0,.17.23.17.44,0,.23-.23,2.21-.38,2.82-.2.76-.44.76-1.57.76-2.18,0-3.78-.06-4.91-.09-1.13-.06-1.83-.09-2.26-.09-.06,0-.55,0-1.16.03-.58,0-1.25.06-1.68.06-.32,0-.46-.06-.46-.23,0-.09.06-.17.23-.17.26,0,.61-.06.87-.12.58-.12.73-.76.84-1.6.15-1.22.15-3.51.15-6.3v-5.11Z"/>
      <path class="cls-1" d="M4.04,54.27c.06,2.38.35,3.14,1.13,3.37.55.15,1.19.17,1.45.17.15,0,.23.06.23.17,0,.17-.17.23-.52.23-1.66,0-2.82-.09-3.08-.09s-1.48.09-2.79.09c-.29,0-.46-.03-.46-.23,0-.12.09-.17.23-.17.23,0,.75-.03,1.19-.17.73-.2.87-1.05.87-3.69l.03-16.64c0-1.13.09-1.45.32-1.45s.73.64,1.02.93c.44.49,4.76,5.17,9.23,9.96,2.87,3.08,6.04,6.62,6.97,7.58l-.32-14.75c-.03-1.89-.23-2.53-1.13-2.76-.52-.12-1.19-.15-1.42-.15-.2,0-.23-.09-.23-.2,0-.17.23-.2.58-.2,1.31,0,2.7.09,3.02.09s1.28-.09,2.47-.09c.32,0,.52.03.52.2,0,.12-.12.2-.32.2-.15,0-.35,0-.7.09-.96.2-1.07.84-1.07,2.58l-.06,17.02c0,1.92-.06,2.06-.26,2.06-.23,0-.58-.32-2.12-1.86-.32-.29-4.5-4.56-7.58-7.87-3.37-3.63-6.65-7.29-7.58-8.33l.38,13.91Z"/>
      <path class="cls-1" d="M30.75,44.69c0-4.53,0-5.34-.06-6.27-.06-.99-.29-1.45-1.25-1.66-.23-.06-.73-.09-.99-.09-.12,0-.23-.06-.23-.17,0-.17.15-.23.46-.23.67,0,1.45,0,2.09.03l1.19.06c.2,0,5.98,0,6.65-.03.55-.03,1.02-.09,1.25-.15.15-.03.26-.14.41-.14.09,0,.12.12.12.26,0,.2-.15.55-.23,1.36-.03.29-.09,1.57-.15,1.92-.03.14-.09.32-.2.32-.17,0-.23-.14-.23-.38,0-.2-.03-.7-.17-1.05-.2-.46-.49-.81-2.06-.99-.49-.06-3.66-.09-3.98-.09-.12,0-.17.09-.17.29v8.02c0,.2.03.29.17.29.38,0,3.95,0,4.62-.06.7-.06,1.1-.12,1.36-.41.2-.23.32-.38.44-.38.09,0,.15.06.15.23s-.15.67-.23,1.63c-.06.58-.12,1.66-.12,1.86,0,.23,0,.55-.2.55-.15,0-.2-.12-.2-.26,0-.29,0-.58-.12-.96-.12-.41-.38-.9-1.51-1.02-.78-.09-3.66-.15-4.15-.15-.15,0-.2.09-.2.2v2.56c0,.99-.03,4.36,0,4.97.09,2,.52,2.38,3.37,2.38.75,0,2.03,0,2.79-.32.75-.32,1.1-.9,1.31-2.09.06-.32.12-.44.26-.44.17,0,.17.23.17.44,0,.23-.23,2.21-.38,2.82-.2.76-.44.76-1.57.76-2.18,0-3.78-.06-4.91-.09-1.13-.06-1.83-.09-2.27-.09-.06,0-.55,0-1.16.03-.58,0-1.25.06-1.68.06-.32,0-.46-.06-.46-.23,0-.09.06-.17.23-.17.26,0,.61-.06.87-.12.58-.12.73-.76.84-1.6.15-1.22.15-3.51.15-6.3v-5.11Z"/>
      <path class="cls-1" d="M67.34,54.21h.12c.78-2.67,3.46-11.09,4.47-14.81.29-1.07.32-1.48.32-1.86,0-.52-.32-.87-1.66-.87-.15,0-.26-.09-.26-.2,0-.15.15-.2.49-.2,1.48,0,2.7.09,2.96.09.2,0,1.45-.09,2.35-.09.26,0,.41.06.41.17,0,.15-.09.23-.26.23-.12,0-.67.03-.99.15-.87.32-1.34,1.54-1.89,3.14-1.28,3.69-4.21,12.92-5.34,16.17-.75,2.15-.9,2.5-1.22,2.5-.29,0-.46-.38-.87-1.51l-5.69-16.15h-.06c-1.05,2.79-5.02,13.42-6.07,16.12-.46,1.22-.61,1.54-.96,1.54-.29,0-.44-.32-1.02-2.29l-5.17-17.22c-.46-1.54-.84-1.97-1.6-2.26-.38-.15-1.1-.17-1.31-.17-.15,0-.26-.03-.26-.2,0-.15.17-.2.46-.2,1.51,0,3.11.09,3.43.09.26,0,1.54-.09,2.99-.09.41,0,.52.09.52.2,0,.17-.15.2-.29.2-.23,0-.78,0-1.13.17-.17.09-.38.32-.38.7s.26,1.39.55,2.67c.44,1.86,3.46,12.52,3.89,14.06h.06l6.16-16.55c.44-1.19.55-1.34.73-1.34.2,0,.38.38.73,1.36l5.78,16.47Z"/>
      <path class="cls-1" d="M108.72,54.21h.12c.78-2.67,3.46-11.09,4.47-14.81.29-1.07.32-1.48.32-1.86,0-.52-.32-.87-1.66-.87-.15,0-.26-.09-.26-.2,0-.15.15-.2.49-.2,1.48,0,2.7.09,2.96.09.2,0,1.45-.09,2.35-.09.26,0,.41.06.41.17,0,.15-.09.23-.26.23-.12,0-.67.03-.99.15-.87.32-1.34,1.54-1.89,3.14-1.28,3.69-4.21,12.92-5.34,16.17-.76,2.15-.9,2.5-1.22,2.5-.29,0-.46-.38-.87-1.51l-5.69-16.15h-.06c-1.05,2.79-5.02,13.42-6.07,16.12-.46,1.22-.61,1.54-.96,1.54-.29,0-.44-.32-1.02-2.29l-5.17-17.22c-.46-1.54-.84-1.97-1.6-2.26-.38-.15-1.1-.17-1.31-.17-.15,0-.26-.03-.26-.2,0-.15.17-.2.46-.2,1.51,0,3.11.09,3.43.09.26,0,1.54-.09,2.99-.09.41,0,.52.09.52.2,0,.17-.15.2-.29.2-.23,0-.78,0-1.13.17-.17.09-.38.32-.38.7s.26,1.39.55,2.67c.44,1.86,3.46,12.52,3.89,14.06h.06l6.16-16.55c.44-1.19.55-1.34.73-1.34.2,0,.38.38.73,1.36l5.78,16.47Z"/>
      <path class="cls-1" d="M130.79,35.86c6.53,0,11.41,4.12,11.41,10.89s-4.59,11.88-11.59,11.88c-7.96,0-11.27-6.19-11.27-11.41,0-4.7,3.43-11.35,11.44-11.35ZM131.4,57.52c2.61,0,8.02-1.51,8.02-9.96,0-6.97-4.24-10.72-8.83-10.72-4.85,0-8.48,3.19-8.48,9.55,0,6.77,4.07,11.12,9.29,11.12Z"/>
      <path class="cls-1" d="M148.36,44.69c0-4.53,0-5.34-.06-6.27-.06-.99-.29-1.45-1.25-1.66-.23-.06-.73-.09-.99-.09-.12,0-.23-.06-.23-.17,0-.17.15-.23.46-.23,1.31,0,3.14.09,3.28.09.32,0,2.53-.09,3.43-.09,1.83,0,3.78.17,5.31,1.28.73.52,2,1.95,2,3.95,0,2.15-.9,4.3-3.51,6.71,2.38,3.05,4.36,5.63,6.04,7.43,1.57,1.66,2.82,1.97,3.54,2.09.55.09.96.09,1.13.09.15,0,.26.09.26.17,0,.17-.17.23-.7.23h-2.06c-1.63,0-2.35-.15-3.11-.55-1.25-.67-2.27-2.09-3.92-4.27-1.22-1.6-2.58-3.54-3.17-4.3-.12-.12-.2-.17-.38-.17l-3.57-.06c-.15,0-.2.09-.2.23v.7c0,2.79,0,5.08.15,6.3.09.84.26,1.48,1.13,1.6.41.06,1.05.12,1.31.12.17,0,.23.09.23.17,0,.15-.15.23-.46.23-1.6,0-3.43-.09-3.57-.09-.03,0-1.86.09-2.73.09-.32,0-.46-.06-.46-.23,0-.09.06-.17.23-.17.26,0,.61-.06.87-.12.58-.12.73-.76.84-1.6.15-1.22.15-3.51.15-6.3v-5.11ZM150.68,47.22c0,.15.06.26.2.35.44.26,1.77.46,3.05.46.7,0,1.51-.09,2.18-.55,1.02-.7,1.77-2.26,1.77-4.47,0-3.63-1.92-5.81-5.02-5.81-.87,0-1.66.09-1.95.17-.14.06-.23.17-.23.35v9.5Z"/>
      <path class="cls-1" d="M172.69,49.86c0,4.27.12,6.13.64,6.65.46.46,1.22.67,3.48.67,1.54,0,2.82-.03,3.51-.87.38-.46.67-1.19.76-1.74.03-.23.09-.38.26-.38.15,0,.17.12.17.44s-.2,2.06-.44,2.9c-.2.67-.29.78-1.83.78-2.09,0-3.6-.06-4.82-.09-1.22-.06-2.12-.09-2.96-.09-.12,0-.61.03-1.19.03-.58.03-1.22.06-1.66.06-.32,0-.46-.06-.46-.23,0-.09.06-.17.23-.17.26,0,.61-.06.87-.12.58-.12.73-.76.84-1.6.15-1.22.15-3.51.15-6.3v-5.11c0-4.53,0-5.34-.06-6.27-.06-.99-.29-1.45-1.25-1.66-.23-.06-.73-.09-.99-.09-.12,0-.23-.06-.23-.17,0-.17.15-.23.46-.23,1.31,0,3.14.09,3.28.09s2.26-.09,3.14-.09c.32,0,.46.06.46.23,0,.12-.12.17-.23.17-.2,0-.61.03-.96.09-.84.15-1.07.64-1.13,1.66-.06.93-.06,1.74-.06,6.27v5.17Z"/>
      <path class="cls-1" d="M187.44,44.69c0-4.53,0-5.34-.06-6.27-.06-.99-.29-1.45-1.25-1.66-.23-.06-.73-.09-.99-.09-.12,0-.23-.06-.23-.17,0-.17.15-.23.46-.23,1.31,0,3.14.09,3.28.09.35,0,2.18-.09,3.92-.09,2.87,0,8.19-.26,11.64,3.31,1.45,1.51,2.82,3.92,2.82,7.38,0,3.66-1.51,6.48-3.14,8.19-1.25,1.31-3.86,3.34-8.8,3.34-1.25,0-2.79-.09-4.04-.17-1.28-.09-2.26-.17-2.41-.17-.06,0-.55,0-1.16.03-.58,0-1.25.06-1.68.06-.32,0-.46-.06-.46-.23,0-.09.06-.17.23-.17.26,0,.61-.06.87-.12.58-.12.73-.76.84-1.6.15-1.22.15-3.51.15-6.3v-5.11ZM189.88,47.83c0,3.08.03,5.75.06,6.3.03.73.09,1.89.32,2.21.38.55,1.51,1.16,4.94,1.16,2.7,0,5.2-.99,6.91-2.7,1.51-1.48,2.32-4.27,2.32-6.94,0-3.69-1.6-6.07-2.79-7.32-2.73-2.88-6.04-3.28-9.5-3.28-.58,0-1.66.09-1.89.2-.26.12-.35.26-.35.58-.03.99-.03,3.95-.03,6.19v3.6Z"/>
    </g>
  </g>
</svg>