<svg width="543" height="143" viewBox="0 0 543 143" fill="none" xmlns="http://www.w3.org/2000/svg">
<path d="M0 4.02003H33.95V7.13003H0V4.02003ZM2.07 29.74H32.11V56.8H25.95V53.45H8.29V57.11H2.07V29.75V29.74ZM4.94 11.34H29.2V25.05H4.94V11.34ZM14.14 39.61V32.78H8.29V39.61H14.14ZM14.14 50.4V42.6H8.29V50.4H14.14ZM23.28 21.94V14.38H10.91V21.94H23.28ZM25.96 39.61V32.78H20.05V39.61H25.96ZM25.96 50.4V42.6H20.05V50.4H25.96ZM35.1 51.92C44.18 53.14 44.97 52.71 44.97 48.75V0.910034H50.94V50.27C50.94 58.07 45.58 59.23 34.48 54.41L35.09 51.91L35.1 51.92ZM35.71 7.19003H41.26V42.72H35.71V7.19003Z" fill="white"/>
<path d="M84.35 20.48H92.52V23.59H81.85C79.96 25.72 78.07 27.61 76.06 29.32H89.22V56.93H83.31V52.66H73.56V57.17H67.71V35.23C65.27 36.63 62.9 37.91 60.52 39.01L59.36 36.69C65.52 33.16 70.94 28.83 75.45 23.59H61.13V20.48H71.61V12.62H63.63V9.51003H71.61V0.910034H77.77V9.50003H84.35C85.08 7.79003 85.75 6.09003 86.36 4.26003L91.84 6.58003C89.77 12 87.21 16.57 84.34 20.47L84.35 20.48ZM83.31 32.42H73.56V39.18H83.31V32.42ZM83.31 42.11H73.56V49.61H83.31V42.11ZM77.95 20.48C79.78 18.04 81.36 15.42 82.83 12.62H77.71V20.48H77.95ZM100.62 45.89L101.35 43.39C107.38 44.91 108.54 43.69 108.11 37.72C107.74 33.76 105.86 28.52 102.62 23.58C104.14 18.95 105.91 12.73 106.58 7.25003H99.94V57.29H94.03V2.68003L99.7 4.14003H105.86L107.57 2.98003L113.42 5.66003C110.86 13.7 108.36 18.82 105.25 23.52C109.7 28.4 113.05 32.78 113.84 38.51C115.67 50.33 106.22 50.64 100.62 45.89Z" fill="white"/>
<path d="M121.1 42.4201C125.43 37.1201 128.17 31.7501 130.3 22.0001L132.92 22.3701C132.98 32.2401 130.91 40.5301 127.86 46.6201L121.1 42.4101V42.4201ZM137.55 46.5601V13.7101H144.25V44.7301C144.25 47.7801 144.86 48.5101 148.09 48.7501C150.41 48.9301 153.64 48.9901 156.26 48.7501C160.4 48.3801 160.65 47.4101 160.83 36.3201H163.51C166.56 49.7301 166.37 54.2401 157.66 55.0301C153.88 55.4001 149.92 55.2701 146.57 55.0301C139.26 54.4801 137.55 53.9901 137.55 46.5601ZM140.42 2.62005L141.76 0.180054C148.89 2.68005 155.47 6.15005 160.71 10.4801L155.59 16.3901C150.53 10.6601 146.27 7.00005 140.42 2.62005ZM161.87 21.5701L164.19 20.2301C169.55 26.2001 174.19 33.7001 176.74 39.9801L169.67 43.0301C167.54 35.4701 165.16 28.5901 161.87 21.5801V21.5701Z" fill="white"/>
<path d="M209.04 26.21V57.17H203.07V47.3C198.01 49.62 191.74 51.63 185.21 53.03L183.56 46.63C185.02 46.57 186.61 46.51 188.25 46.39V26.22H182.77V23.11H236.22V26.22H209.04V26.21ZM227.69 19.32H191.61V3.41003H227.69V19.32ZM203.07 26.21H194.17V30.42H203.07V26.21ZM194.17 37.72H203.07V33.27H194.17V37.72ZM203.07 44.37V40.59H194.17V45.77C197.46 45.4 200.57 44.86 203.07 44.37ZM197.64 6.40003V9.94003H221.65V6.40003H197.64ZM221.65 16.39V12.92H197.64V16.39H221.65ZM233.17 56.8C229.57 55.22 225.92 53.08 222.75 50.1C219.4 53.02 215.32 55.4 210.26 56.99L209.22 54.8C213.73 52.36 217.14 49.74 219.76 46.94C216.77 43.22 214.46 38.53 213.36 32.56H210.56V29.63H226.22L227.56 28.53L233.65 30.97C232.37 36.52 230.05 41.82 226.4 46.33C229.45 48.22 232.86 49.56 236.46 50.54L233.17 56.82V56.8ZM222.51 43.27C224.52 40.1 225.74 36.57 226.41 32.54H215.74C217.39 37.17 219.7 40.65 222.5 43.27H222.51Z" fill="white"/>
<path d="M298.57 49.55L293.88 57.17C287.05 53.94 275.72 42.54 272.43 23.16C269.2 41.2 258.47 52.96 244.27 57.65L243.05 55.21C254.57 49.05 263.1 39.36 265.72 20.59H245.06V16.87H266.09C266.21 15.59 266.33 14.25 266.39 12.91C266.63 9.12997 266.69 4.79997 266.69 0.719971H273.82C273.82 5.65997 273.64 10.17 273.39 14.8C273.33 15.47 273.33 16.2 273.27 16.87H296V20.59H274.67C279.24 37.17 289.42 45.46 298.56 49.54L298.57 49.55Z" fill="white"/>
<path d="M335.38 7.67996C333.98 11.03 332.09 14.69 330.08 17.92H351.17V57.05H344.59V51.81H318.45V57.11H311.87V17.92H326.31C326.8 15 327.22 10.97 327.53 7.67996H304.8V4.20996H358V7.67996H335.39H335.38ZM344.58 21.09H318.44V32.43H344.58V21.09ZM344.58 35.53H318.44V48.63H344.58V35.53Z" fill="white"/>
<path d="M384.8 40.22L386.99 40.71C386.62 46.5 385.65 51.19 382.6 55.34L377.79 51.8V57.1H371.76V26.63C370.11 28.95 368.22 31.14 366.09 33.15L364.32 31.44C370.17 23.03 374.01 9.74 375.78 0.42L382.36 2.13C381.32 6.15 379.86 10.91 377.79 15.72V51.49C381.2 48.63 383.4 44.85 384.8 40.22ZM388.15 9.69H382.79V6.64H398.7C396.2 5.05 393.76 3.65 391.2 2.19L391.93 0C395.34 0.55 399.67 1.46 403.88 3.23L401.99 6.64H416.07V9.69H409.31L410.83 10.24C409.25 12.74 407.54 15.12 405.89 16.94H418.75V19.99H380.23V16.94H392.18C390.72 14.38 389.19 12.25 387.67 10.24L388.16 9.69H388.15ZM414.91 37.79H383.89V22.74H414.91V37.79ZM409.42 42.84C412.95 52.35 411.37 55.46 405.46 55.94C401.86 56.18 398.63 56.18 394.86 55.94C391.57 55.82 388.7 55.21 388.7 50.03V39.91H394.43V47.77C394.43 50.27 394.98 50.57 396.99 50.76C399 50.88 402.17 50.88 404.3 50.7C407.1 50.4 407.41 49.54 407.1 42.84H409.42ZM409 25.66H389.8V28.83H409V25.66ZM409 31.51H389.8V34.86H409V31.51ZM405.04 9.69H391.02C393.34 11.09 395.53 12.86 397.36 14.87L394.86 16.94H402.9C403.81 14.56 404.42 12.13 405.03 9.69H405.04ZM395.16 40.22L396.32 38.33C399.18 39.49 402.78 41.19 406.01 43.94L402.6 48.21C400.28 45.41 397.12 42.12 395.17 40.23L395.16 40.22ZM420.39 51.8L415.03 54.05C413.93 49.91 412.29 44.97 410.46 40.83L412.41 39.79C415.82 43.2 418.99 48.38 420.39 51.8Z" fill="white"/>
<path d="M481.22 48.39L479.57 55.1501C472.87 55.6401 460.8 55.7 454.89 55.39C445.99 54.9 441.24 53.4401 437.28 46.43C435.21 50.21 432.28 54.47 429.11 57.64L425.27 53.43C428.44 51.11 432.1 47.94 433.86 45.39V31.68H426.18V28.57H440.02V44.7201C443.19 49.4101 447.33 49.72 454.71 49.84C463.12 50.02 473.85 49.3501 481.22 48.3801V48.39ZM435.63 24.4401C433.56 21.6401 429.84 17.31 427.22 14.57L428.62 12.5C431.85 13.96 436.73 16.71 440.02 19.57L435.63 24.4501V24.4401ZM430.88 2.86005L432.22 0.790049C435.39 2.13005 440.51 4.75005 443.68 7.49005L439.48 12.3C436.98 9.13005 433.81 5.66005 430.89 2.85005L430.88 2.86005ZM446.23 20.2901L444.28 18.89C447.27 13.28 448.24 7.37005 448.97 1.64005L455.13 2.80005C454.76 4.69005 454.03 7.37005 452.81 10.11H458.11V0.550049H464.57V10.12H476.03V13.23H464.57V21.64H479.26V24.75H442.94V21.64H458.11V13.23H451.35C449.95 15.79 448.24 18.29 446.23 20.3V20.2901ZM447.15 44.73V28.7001H475.43V44.73H447.15ZM453.37 41.69H469.28V31.76H453.37V41.69Z" fill="white"/>
<path d="M509.49 48.57C504.86 50.95 494.56 54.54 488.65 55.7L486.88 49.54C489.68 49.3 492.91 48.93 496.14 48.44V29.73H487.67V26.68H496.14V20.16H490.96V19.37C489.92 20.41 488.83 21.26 487.73 22.11L486.21 20.16C490.84 14.98 494.74 7.35999 496.94 -0.0100098L503.16 2.05999C502.79 2.90999 502.43 3.76999 502 4.61999C505.23 6.56999 509.31 9.67999 512.06 12.42L507.79 16.5C505.6 13.21 502.79 9.54999 500.66 7.04999C498.71 10.52 496.15 14.06 493.22 17.11H507.79V20.16H501.82V26.68H510.53V29.73H501.82V47.59C504.44 47.16 506.88 46.68 508.83 46.25L509.5 48.57H509.49ZM495.17 44.43L490.29 45.59C490.05 41.81 489.38 37.24 488.58 32.91L490.65 32.3C492.66 36.08 494.31 40.65 495.16 44.43H495.17ZM510.17 33.27C509.07 36.74 507 41.44 504.5 45.03L502.55 44.24C503.71 40.34 504.56 36.13 504.99 31.93L510.17 33.27ZM518.09 45.52L523.76 48.99C518.76 53.07 509.56 56.73 504.2 57.89L503.29 55.51C508.29 53.32 513.29 50.39 518.1 45.51L518.09 45.52ZM521.87 9.44999H510.41V6.33999H522.11L522.66 0.24999L528.63 0.61999C528.45 2.44999 528.33 4.39999 528.08 6.34999H540.7V9.45999H527.78C527.6 11.04 527.41 12.63 527.17 14.15H537.1V42.18H541.12V45.23H509V42.24H512.72V14.14H521.31L521.86 9.44999H521.87ZM531.43 17.19H518.33V20.85H531.43V17.19ZM531.43 23.83H518.33V27.73H531.43V23.83ZM531.43 30.71H518.33V34.85H531.43V30.71ZM531.43 37.85H518.33V42.18H531.43V37.85ZM542.83 52.17L539.23 57.78C534.84 54.06 529.91 51.02 525.39 48.15L526.55 45.77C531.67 47.05 538.01 49.3 542.82 52.17H542.83Z" fill="white"/>
<path d="M6.6 88.01V141.1H4.42V88.01H6.6Z" fill="white"/>
<path d="M94.23 141.89C89.45 140.26 85.64 135.84 82.92 129.68C77.54 134.82 71.01 138.75 63.33 141.23L62.54 139.48C69.92 136.27 76.27 131.92 81.47 126.06C78.99 118.98 77.6 110.22 77.24 100.96H56.74V110.03H72.64C72.46 119.1 72.28 124.3 71.91 127.57C71.31 132.59 66.47 133.92 57.52 129.69L58 127.88C66.59 129.57 67.74 129.15 67.92 126.25C68.1 123.95 68.34 119.11 68.52 112.46H56.73V112.7C56.73 128.6 54.25 136.4 47.84 142.63L46.45 141.36C51.11 135.01 52.44 130.11 52.44 113V98.43H77.17C76.99 94.62 76.93 90.33 76.93 86.7H81.04C81.04 90.27 81.1 94.56 81.16 98.43H92.11C89.99 95.04 87.21 91.17 84.73 88.33L86 87C89.45 89.42 92.89 92.87 95.43 95.71L92.29 98.43H100.63V100.97H81.22C81.52 109.01 82.73 116.27 84.55 122.2C87.88 117.54 90.6 112.04 92.71 105.63L96.82 107.32C94.34 114.58 90.77 121.05 86.06 126.43C88.42 132.11 91.5 136.11 95.01 137.68C97.25 138.71 98.03 137.56 97.73 124.44H99.54C102.08 138.59 100.63 144.09 94.22 141.92L94.23 141.89Z" fill="white"/>
<path d="M156.28 117.82V142.37H152.05V137.47H127.26V142.49H123.09V121.93C117.65 123.99 112.27 125.5 107.43 126.53L106.89 124.6C125.76 119.28 140.69 110.63 149.22 96.3H130.05C128.36 98.05 126.54 99.69 124.67 101.2C127.51 103.13 131.02 105.98 133.56 108.58L129.99 111.85C127.93 108.83 125.09 105.32 122.79 102.72C118.68 105.8 114.32 108.28 109.97 110.1L109.06 108.35C118.8 103.09 127.02 94.93 132.4 85.61L136.69 87.79C135.36 89.91 133.85 92.02 132.15 93.96H148.96L150.9 92.87L155.37 95.59C149.5 105.99 140.98 113.01 132.03 117.84H156.28V117.82ZM152.05 135.12V120.24H127.26V135.12H152.05Z" fill="white"/>
<path d="M221.65 97.2599V100.04H189.18C187.06 104.52 184.52 108.63 181.8 112.26V142.68H177.57V117.46C174.43 120.97 171.16 123.87 168.02 125.99L166.87 124.36C171.77 120.25 179.08 111.6 184.35 100.05H168.75V97.2699H185.56C187.01 93.8199 188.22 90.1899 189.13 86.3199L193.91 87.5899C193 90.9199 191.85 94.1799 190.46 97.2599H221.66H221.65ZM204.06 137.11H220.39V139.83H184.47V137.11H199.83V119.21H186.83V116.73H199.83V103.55H204.06V116.73H217.12V119.21H204.06V137.11Z" fill="white"/>
<path d="M234.48 96.78H228.61V94.42H243.06C241.06 91.88 238.83 89.28 236.77 87.16L237.98 85.71C240.82 87.34 244.15 89.88 246.63 92.36L244.57 94.42H256.48V96.78H238.34V107.91C238.34 110.15 239.07 110.69 241.3 110.87C243.78 111.11 245.96 111.17 248.68 110.87C250.49 110.63 251.89 110.33 253.34 109.24L255.15 111.96C253.7 113.23 252.19 114.02 249.04 114.26C246.62 114.44 243.29 114.44 240.7 114.26C236.04 113.96 234.47 112.93 234.47 108.03V96.78H234.48ZM281.77 137.96V140.32H228.92V137.96H253.23V130.28H232.73V127.92H253.23V121.51C246.82 122.11 240.23 122.36 234.3 122.3L234.06 120.42C249.66 119.94 263.33 117.46 272.52 113.95L276.15 117.34C271.43 118.97 264.66 120.24 257.22 121.09V127.92H277.9V130.28H257.22V137.96H281.77ZM265.2 85.65L269.19 87.04C268.28 88.85 267.13 90.67 265.8 92.42H276.38L277.77 91.57L281.46 93.38C276.56 105.66 267.37 113.4 253.83 116.96L253.17 115.21C263.99 111.76 272.52 104.33 276.63 94.77H263.93C263.38 95.44 262.84 96.04 262.24 96.65C264.84 97.98 267.74 99.79 270.28 101.73L267.98 104.39C265.86 102.15 263.32 99.98 260.9 98.04C260.11 98.83 259.27 99.55 258.42 100.28C260.48 101.91 263.14 104.27 265.19 106.69L262.59 108.99C260.78 106.21 258.84 103.61 256.97 101.49C255.22 102.82 253.4 104.03 251.59 105L250.68 103.49C257.09 99.02 262.23 91.76 265.19 85.65H265.2Z" fill="white"/>
<path d="M301.73 96.78L291.57 101.13V97.38L303.06 93.15H306.51V137.54H302.04V96.78H301.74H301.73Z" fill="white"/>
<path d="M320.48 137.6L320.12 135.18C334.21 136.21 340.92 131.49 341.16 122.6C341.34 115.34 337.95 112.5 333 112.5C329.01 112.5 326.65 113.89 325.08 115.58L321.75 115.04L322.54 93.21H343.83V96.41H326.47L325.93 112.01L326.17 112.19C327.98 110.8 330.77 109.47 334.03 109.47C340.68 109.47 346 114.19 346 121.75C346 133.3 337.23 139.29 320.48 137.59V137.6Z" fill="white"/>
<path d="M367.83 119.88V123.39H352.05V119.88H367.83Z" fill="white"/>
<path d="M400.85 105.06C400.85 112.56 395.1 119.94 384.83 129.25L379.75 133.91V134.21H402V137.42H373.58V134.88L378.18 130.77C390.03 120.25 395.96 112.02 396.02 105.25C396.08 98.78 392.39 95.39 386.22 95.39C381.62 95.39 378 97.27 374.91 99.81V95.7C378.05 93.77 382.35 92.37 387 92.37C395.28 92.37 400.85 97.09 400.85 105.07V105.06Z" fill="white"/>
<path d="M418.51 114.32V113.96C413.61 112.39 410.53 108.52 410.53 104.29C410.59 97.58 415.91 92.14 423.83 92.14C431.75 92.14 436.23 97.94 436.29 103.45C436.29 108.35 433.33 112.34 428.37 113.91V114.27C434.05 116.27 437.98 121.1 437.92 126.48C437.86 134.52 432.24 138.76 423.35 138.76C414.94 138.7 409.08 133.8 409.02 126.79C409.02 121.04 412.65 116.75 418.51 114.33V114.32ZM423.47 135.36C429.03 135.42 433.33 131.79 433.33 126.59C433.33 120.85 428.79 116.61 422.81 115.83C417.49 116.98 413.68 121.39 413.68 126.17C413.68 131.49 417.97 135.3 423.48 135.36H423.47ZM431.87 104.04C431.81 99.26 428.54 95.39 423.4 95.39C418.68 95.39 414.87 99.32 414.87 103.92C414.87 108.82 419.22 111.78 424.3 112.75C429.02 111.66 431.86 108.03 431.86 104.04H431.87Z" fill="white"/>
<path d="M465.56 122.18L466.23 123.87C460.67 127.08 451.78 130.88 445.73 132.88L444.4 128.34C446.4 127.98 449.72 127.19 453.29 126.16V105.78H445V103.36H453.29V86.79H457.22V103.36H465.32V105.78H457.22V124.95C460.18 124.04 463.09 123.08 465.56 122.17V122.18ZM498.45 117.34V119.7H482.36V142.62H478.31V119.7H462.16V117.34H478.31V93.03H464.1V90.67H496.39V93.03H482.36V117.34H498.45ZM474.81 112.02L470.76 113.47C469.37 108.33 467.25 102.1 465.38 97.51L467.01 96.66C469.67 100.53 472.88 106.52 474.81 112.02ZM484.97 113.05C487.09 108.7 489.57 101.8 490.77 96.24L495.06 97.93C493 103.19 489.13 110.45 486.59 113.89L484.96 113.04L484.97 113.05Z" fill="white"/>
<path d="M537.1 88.01V141.1H534.92V88.01H537.1Z" fill="white"/>
</svg>
