<?xml version="1.0" encoding="UTF-8"?>
<svg id="_圖層_1" data-name="圖層_1" xmlns="http://www.w3.org/2000/svg" version="1.1" viewBox="0 0 800 114">
  <!-- Generator: Adobe Illustrator 29.3.1, SVG Export Plug-In . SVG Version: 2.1.0 Build 151)  -->
  <defs>
    <style>
      .st0 {
        fill: #595757;
      }

      .st1 {
        fill: #b28247;
      }
    </style>
  </defs>
  <path class="st0" d="M125.3,113.8v-.8c3.6.3,6.9-2.8,6.8-6.4,0,0,0-15,0-15h.8v15c.1,4-3.6,7.5-7.6,7.2h0ZM139.2,111.8c-1.4-1.4-2.2-3.2-2.2-5.2v-15h.8v15c0,3.5,3.1,6.7,6.6,6.6,3.5.1,6.7-3,6.6-6.6,0,0,0-15,0-15h.8v15c0,2-.7,3.8-2.2,5.2-2.8,2.9-7.7,2.9-10.5,0h0ZM158.8,111.8c-1.4-1.4-2.2-3.2-2.2-5.2v-15h.8v15c0,3.5,3.1,6.7,6.6,6.6,3.5.1,6.7-3,6.6-6.6,0,0,0-15,0-15h.8v15c0,2-.7,3.8-2.2,5.2-2.8,2.9-7.7,2.9-10.5,0h0ZM196.7,91.6l-6.7,11.3v10.7h-.8v-10.7l-6.7-11.3h.9l6,10.2h.3l6-10.2h.9,0ZM201.6,113.6h-.8v-22h.8v22ZM230.5,91.6v22h-.8v-5.8h-10l-3.7,5.8h-1l4.1-6.5h0c0-.1,0-.1,0-.1l9.7-15.3h1.6,0ZM220.2,106.9h9.5v-14.9l-9.5,14.9ZM240.5,91.6c14.6.5,14.6,21.5,0,22,0,0-5.1,0-5.1,0v-22h5.1ZM240.5,112.8c13.5-.4,13.5-20,0-20.3,0,0-4.3,0-4.3,0v20.3h4.3ZM256.7,91.7v21.5l12.7-21.5h.9l-12.9,21.9h-1.6v-21.9h.8,0ZM285.1,91.6v.8h-10.4v9.7h8.4v.8h-8.4v9.8h10.4v.8h-11.3v-22h11.3ZM302.1,113.6l-5.5-10.5h-6.7v10.5h-.8v-22h7.8c7.1,0,7.7,10.6.6,11.4l5.5,10.6h-.9,0ZM289.9,102.3h6.9c2.6,0,5-2.2,4.9-4.9,0-2.6-2.3-5-4.9-4.9,0,0-6.9,0-6.9,0v9.8ZM318.9,91.6v.8h-6.8v21.2h-.8v-21.2h-6.8v-.8h14.4,0ZM323.6,113.6h-.8v-22h.8v22ZM333.9,113.8c-2.6,0-5.6-1.6-6.5-4l.8-.3c1.9,5.1,11.7,4.6,12.2-1.2.4-4.9-8.2-4.9-11.2-7.8-2.7-2.3-1.8-6.5.9-8,2.8-1.8,7.9-1.3,10.2,1.2l-.6.6c-3-3.3-11.1-2.8-11.2,2.7-.1,2.4,1.9,4.1,6.1,5.3,3.5,1.1,6.7,2.6,6.7,6.1-.2,3.5-3.9,5.7-7.3,5.5ZM345.9,113.6h-.8v-22h.8v22ZM365.5,91.6v22h-1.3l-12.7-21.2v21.2h-.8v-22h1.3l12.7,21.2v-21.2h.8ZM372.5,110.5c-8.7-8.7,1-23,12.3-18.3l-.3.8c-6.6-3-14.7,2.3-14.5,9.6-.2,7.1,7.7,12.5,14.3,9.7v-9.3h-5.5v-.8h6.4v10.7c-4.2,1.9-9.4,1.1-12.6-2.3h0ZM410,113c1.5,0,2.9-.3,4.2-.9v.9c-7.1,3.1-15.7-2.6-15.5-10.4-.3-7.8,8.4-13.5,15.5-10.4v.9c-6.6-3.2-14.9,2.2-14.7,9.5-.1,5.6,4.8,10.5,10.4,10.4h0ZM418,110.5c-7.2-6.8-1.9-19.4,7.9-19.1,6-.1,11.4,5.2,11.3,11.2.2,9.8-12.4,15.1-19.2,7.9ZM418.6,95.2c-6.6,6.3-1.7,17.9,7.4,17.7,5.6.1,10.6-4.8,10.4-10.4.2-9.1-11.5-13.9-17.8-7.3ZM442.3,112.9c0,1.2-1.8,1.2-1.8,0,0-1.2,1.9-1.2,1.8,0ZM447.4,91.6v21.2h10.4v.8h-11.3v-22h.8ZM470.1,91.6v.8h-6.8v21.2h-.8v-21.2h-6.8v-.8h14.4,0ZM479,91.6c14.6.5,14.6,21.5,0,22,0,0-5.1,0-5.1,0v-22h5.1ZM479,112.8c13.5-.4,13.5-20,0-20.3,0,0-4.3,0-4.3,0v20.3h4.3Z"/>
  <path class="st1" d="M28.1,61.7H2.5c-.8,0-1.5.8-1.3,1.6.6,2.5,1.3,5,2.2,7.4.2.5.7.8,1.2.8h23.4c.7,0,1.3-.6,1.3-1.3v-7.2c0-.7-.6-1.3-1.3-1.3h0ZM102.9,53.4c1.4,0,1.3-.6,1.3-1.3,0-1.9-.1-3.8-.3-5.6,0-.7-.7-1.2-1.3-1.2h-55.9c-.7,0-1.3.6-1.3,1.3v5.4c0,.7.6,1.3,1.3,1.3h4.3c.7,0,1.3.6,1.3,1.3v3.8c0,.7-.6,1.3-1.3,1.3h-4.3c-.7,0-1.3.6-1.3,1.3v6.4c0,.7.6,1.3,1.3,1.3h16.5c.7,0,1.3.6,1.3,1.3v3.8c0,.7-.6,1.3-1.3,1.3h-16.5c-.7,0-1.3.6-1.3,1.3v6.9c0,.7.6,1.3,1.3,1.3h16.5c.7,0,1.3.6,1.3,1.3v15c0,.9.8,1.5,1.7,1.3,2.3-.6,4.4-1.4,6.6-2.3.5-.2.8-.7.8-1.2v-12.7c0-.7.6-1.3,1.3-1.3h17.3c.4,0,.8-.2,1.1-.5,1.8-2.2,3.3-4.6,4.7-7.1.5-.9-.2-1.9-1.2-1.9h-21.8c-.7,0-1.3-.6-1.3-1.3v-3.8c0-.7.6-1.3,1.3-1.3h25.7c.6,0,1.1-.4,1.3-.9.7-2.1,1.2-4.3,1.6-6.6.1-.8-.5-1.5-1.3-1.5h-9.2c-.7,0-1.3-.6-1.3-1.3v-3.8c0-.7.6-1.3,1.3-1.3h10ZM80.9,59.8h-18.2c-.7,0-1.3-.6-1.3-1.3v-3.8c0-.7.6-1.3,1.3-1.3h18.2c.7,0,1.3.6,1.3,1.3v3.8c0,.7-.6,1.3-1.3,1.3ZM34.2,3.6c-10.8,4-19.9,11.4-26,20.9-.6.9.1,2,1.1,2h8.5c.4,0,.8-.2,1.1-.5,2.2-2.9,4.3-4.7,5.8-5.8.9-.6,2.1,0,2.1,1.1v22.3c0,.7-.6,1.3-1.3,1.3h-12.7c-.8,0-1.4-.7-1.3-1.4.3-3.7,1.1-6.4,1.8-8,.4-.9-.3-1.8-1.2-1.8h-7.6c-.6,0-1.1.3-1.3.9C1.1,40.4-.2,48.4,0,53.3c.1,1.1.6,1.3,1.3,1.3h29.8c.7,0,1.3.6,1.3,1.3v32c0,1-1.1,1.7-1.9,1.2-2.3-1.3-6.3-4.1-10.9-9.9-.2-.3-.6-.5-1-.5h-10.1c-.8,0-.9.7-.7,1,7.1,11.4,18.6,19.9,32.1,23.2.8.2,1.6-.4,1.6-1.3v-55c0-.7-.6-1.3-1.3-1.3h-3c-.7,0-1.3-.6-1.3-1.3V4.9c0-.9-.9-1.6-1.8-1.3h0ZM52.2.4c-1.9,0-3.8.1-5.6.3-.7,0-1.2.7-1.2,1.3v35.5c0,.7.6,1.3,1.3,1.3h54c.9,0,1.5-.9,1.3-1.7C95.5,15.9,75.6.4,52.2.4h0ZM73.2,28.4v-8.5c0-.7-.6-1.3-1.3-1.3h-6.5c-.7,0-1.3.6-1.3,1.3v8.5c0,.7-.6,1.3-1.3,1.3h-6.8c-.7,0-1.3-.6-1.3-1.3V11.1c0-.8.7-1.4,1.4-1.3,12.6,1.2,23.9,7.8,31.1,17.8.6.9,0,2-1.1,2h-11.5c-.7,0-1.3-.6-1.3-1.3h0Z"/>
  <path d="M145.1,18.3c.2.2.5.6.7.9,1.1,2.4,2.5,5,3.8,6.8.7,1,1.8,2.2,2.7,3.1,1.3,1.2,1.3,2.9-.5,3-2.1-.5-6.3-4.6-7.9-6.5-1.3-1.5-1.7-1.7-2.5-.2-2,2.8-3.9,5.2-6.8,8.2-1.6,1.6-3.4,3.6-5.1,4-1.7,0-1.8-1.7-.6-2.9,3.5-3.7,6.2-8,8.2-13,.7-1.8,1.3-2.9,1.8-3.4,1.1-1.2,4.9-1.3,6.2,0h0ZM144.4,44.8h6.6c.9,0,1.8.4,1.7,1.4,0,1-.9,1.4-1.7,1.4,0,0-6.6,0-6.6,0v17.2l8.4-1.8c.9,0,1.4.5,1.4,1.4s-.4,1.1-1.3,1.4c-1.9.7-4.2,1.5-6.7,2.3-4.6,1.4-10.9,3.6-15.2,4.4-3.1.3-3.4-5-.1-5.2,0,0,7.4-1.2,7.4-1.2v-18.5h-7.5c-.8,0-1.8-.4-1.7-1.4,0-1,.9-1.4,1.7-1.4,0,0,7.5,0,7.5,0v-7c-.8,0-3.6.2-4.3-.2-.9-.3-.9-2,0-2.3.3-.1.7-.3,1.1-.2,0,0,13.5,0,13.5,0,.2,0,.4,0,.6,0,1.6.2,1.5,2.5,0,2.7-.1.1-4.4,0-4.7,0v7h.1ZM132.4,62.6c-.3-.4-.4-1.1-.6-1.7-.4-2.2-1.2-4.6-2.4-7.3,0-.3-.3-.8-.3-1.1,0-1.7,1.7-1.9,3.1-.2,1.9,1.7,5.4,6.8,5.1,8.3.3,2.9-3.3,4.2-4.9,2.1h0ZM150.4,59.1c-1.2,1.6-2.1,2.4-2.6,2.4-1,0-1.5-.4-1.5-1.3.3-1.4,1.3-4.4,1.7-5.8.5-1.7.5-4.7,3.1-4.6,5.2,1,2.9,4.6-.6,9.2h0ZM177,27.9c4.3,0,6.3,2.1,6.1,5.8,0,5.1-.3,12-.6,17.2-.2,3.7-.5,6.9-.8,9.5-.7,4.7-.7,7.8-3.4,10.5-1.3,1.1-3.2,1.7-5.6,1.7-.2,0-8.5,0-8.3,0-1.9-.3-1.3-3,.6-2.7,6.8-.2,9.1,1.7,10.1-7.1.7-5.3,1.1-11.9,1.3-18,0,0,.2-11.7.2-11.7,0-1.3-.5-2.2-1.7-2.3-.1,0-.3,0-.4,0h-12.1c-1.9,2.7-4.4,6.2-6.6,8.3-.8.7-1.3,1.1-1.7,1.1-1.4,0-1.8-1.2-1-2.4,0,0,2.6-4.2,2.6-4.2,2.6-4.6,3.6-8.9,4.7-13.8.9-5.1,9.4-2.8,6.7,2.1-.6,1.7-2,4.4-3,6h12.9,0ZM157.9,56.1c2.9-.5,6.8-1.5,9.9-2.4.5-.1,3.6-1.2,4.1-1.2.9,0,1.4.4,1.4,1.3s-.2.9-.7,1.2c-.4.3-1.7.9-3.7,1.9-3.3,1.5-8.2,4-11.4,4.7-1.6,0-2.4-1-2.4-2.9s1-2.4,2.9-2.7h0ZM159.1,43.6c-1.9.2-2.4-2.4-.5-2.7.2,0,.3,0,.5,0h12.1c.4,0,.8,0,1.1.2,1.3.9.4,2.7-1.1,2.5,0,0-12.1,0-12.1,0ZM193.9,57.2c-.3,6.1.7,13.4-2.9,13.4-2,0-3.2-1.4-2.6-3.4.2-.6.8-2.1,1-2.7.9-2.1,1.4-6.3,1.8-8.7.1-.8.6-1.2,1.3-1.2s1.4.8,1.4,2.4h0ZM206.8,40.6v7.4s3.2,0,3.2,0c7,.2,4.5,6.5,4.1,12.5-1.2,6.5-.8,12.9-9,12.3-.2,0-6.4,0-6.3,0-1.7-.2-1.5-3,.5-2.7,7.6.2,7.8-.1,9-8.7-1.5.6-2-.5-2.8-2.9-.1-.5-1.5-4.3-1.5-4.7,0-.7.4-1,1.1-1,1.2.2,2.9,3.4,3.7,4.7l.2-4.6c0-1.3-.6-2-1.8-2h-11.1c-3.7,0-5.5-1.6-5.5-4.8v-22.3c0-3.2,1.8-4.8,5.5-4.8h15.8c1.9-.2,2.5,2.3.6,2.7-.2,0-5.3,0-5.6,0v6.6h4.2c.8,0,1.8.4,1.7,1.4,0,1-.9,1.4-1.7,1.4,0,0-4.2,0-4.2,0v6.8h4.2c.8,0,1.8.4,1.7,1.4,0,1-.9,1.4-1.7,1.4,0,0-4.2,0-4.2,0h0ZM197.9,55.7c1.3,3.2,4.8,12.2.3,12-1.2,0-2-.7-2-1.9-.1-2.7,0-5.7-.5-8.5-.1-.5-.1-.8-.2-1.3-.1-1.5,1.9-1.7,2.4-.4h0ZM201.3,28.2v-6.6h-2.3c-1.7,0-2.5.8-2.5,2.5v4.1h4.8ZM201.3,37.8v-6.8h-4.8v6.8h4.8ZM196.5,40.6v4.8c0,1.7.8,2.5,2.5,2.5h2.3v-7.4h-4.8ZM202.5,55.2c1.2,2.6,5.1,9.6.8,9.6-.7,0-1.1-.2-1.3-.7-.6-1.9-1.4-6.9-2.1-9.1,0-1.6,1.8-1.5,2.6.2h0ZM243.8,43.1c1.5-.2,2.5,1.7,1.1,2.5-.7.4-3.5.2-4.3.2.3.2.7.5.8.9,1.6,2.7-2.5,4.9-4.7,6.3l-.5.3c.8,0,7-.2,7.6.2,1.1.6.6,2.5-.6,2.5-.2,0-.3,0-.5,0h-9.4v5.8h8.5c.2,0,.3,0,.5,0,1.6.1,1.6,2.5,0,2.7-.2,0-.3,0-.5,0h-8.5c-.2,2.7,1.2,8.6-3.2,8.4-2.2,0-3.2-1.2-3.2-3.7v-4.7h-8.5c-.8,0-1.8-.4-1.7-1.4,0-1,.9-1.4,1.7-1.4,0,0,8.5,0,8.5,0v-5.8h-9.8c-.2,0-.4,0-.6,0-1.6-.1-1.5-2.6,0-2.7-.2-.1,6.3,0,6.4,0-1.2-1.1-1-1.4-2.1-3.7,0,0-1.3-2.5-1.3-2.5-.3-.5-.2-.9,0-1.3h-3.5c-.9,0-1.8-.4-1.8-1.4,0-1,.9-1.4,1.8-1.4,0,0,10.8,0,10.8,0v-4.9h-9.2c-.9,0-1.7-.4-1.7-1.4,0-1,.9-1.4,1.7-1.4,0,0,9.2,0,9.2,0v-4.4h-6.5c-3,0-4.7-1.1-5.1-3.7v-4.7c.3-2.6,2.1-3.7,5.1-3.7,0,0,18.8,0,18.8,0,6,0,5,4.1,5.1,8.4-.3,2.6-2,3.7-5.1,3.7,0,0-5.8,0-5.8,0v4.4h8.8c.9,0,1.7.4,1.7,1.4,0,1-.8,1.4-1.7,1.4,0,0-8.8,0-8.8,0v4.9h10.5,0ZM223.9,21.6c-2.4.1-2.9-.3-3.1,2.1,0,.9-.3,3.8.6,4.2.3.2,1.1.3,2.4.3v-6.6ZM222.5,45.9c2.3,1.2,6,3.5,5.1,6.1l-.4.7c-.3.3-.5.4-.9.7h7.4l-.2-.4c-.3-.6.7-2,1.1-3v-.3c.4-.6,1.5-3.5,1.9-3.8h-14ZM231.4,21.6h-3.2v6.6h3.2v-6.6ZM235.6,28.2c1.7.1,3.4,0,3.3-2.2,0-3,.5-4.7-3.3-4.4v6.6h0ZM258.7,46.7c-1.4,1.1-5.5,4.8-7.6,5.4-1,0-1.5-.4-1.5-1.3.4-1.4,1.1-1.6,2.8-3.2,4.3-3.8,7.7-8.2,10-13.1,1.6-3.2,3-4.7,4.3-4.7,1.6,0,3.8,1.3,3.7,3,0,.6-.2,1.3-.7,2-.9,1.3-2.6,3.3-4.9,5.9v29.4c0,.6-.1,1.4-.4,1.9-.8,1.9-4.7,1.8-5.5,0-.2-.5-.4-1.3-.4-1.9,0,0,0-23.3,0-23.3h0ZM269.2,20.5c-.7,4.2-13.5,13.5-17.8,15.1-1.8,0-1.8-1.9-.4-2.9,4.8-4.1,8.2-7.9,11.2-13.1,1.6-3.7,7.2-2.9,7,.9h0ZM295.5,67.3c0,4.3-2.3,5.5-6.4,5.5,0,0-9.8.2-9.4-.2-1.3-.5-.7-2.5.6-2.5h5.6c2.1,0,3.2-1,3.2-3.1v-26h-18c-.3,0-.8-.1-1.1-.2-1.4-.9-.5-2.7,1.1-2.5,0,0,33.6,0,33.6,0,1.9-.2,2.5,2.4.5,2.7-.2,0-.3,0-.5,0h-9v26.4h0ZM274.1,23.5c-2.3.1-2.3-2.9,0-2.8,0,0,27.8,0,27.8,0,2.3-.1,2.3,2.9,0,2.8,0,0-27.8,0-27.8,0h0ZM327.4,18.3c.4.4,1.1,1.6,2,3.6,1.2,2.5,2.8,5.1,4.9,7.6.4.4.6.8.6,1.2-.6,4.7-8.3-4.2-9.6-5.8-.7-.5-1-.2-1.6.7-1.8,3.2-8.3,11.1-11.3,11.9-1.6,0-1.8-1.7-.7-2.8,3.5-3.8,6.1-8.1,7.9-13,.6-1.6,1.1-2.7,1.6-3.2,1-1.3,5.1-1.6,6.4-.3h0ZM320.6,47.8h-6.9c-.8,0-1.8-.4-1.7-1.4,0-1,.9-1.4,1.7-1.4,0,0,6.9,0,6.9,0v-7.7c-.4,0-3.1,0-3.5,0-.2,0-.4,0-.6-.2-1.3-.9-.4-2.6,1.1-2.5,0,0,12.3,0,12.3,0,1.5-.2,2.5,1.7,1,2.5-.2.1-.3.2-.6.2-.2.1-3.5,0-3.8,0v7.7c.8,0,6-.2,6.6.2,1.1.5.7,2.6-.6,2.5,0,.1-5.9,0-6,0v17.1l6.9-1.6c1.6-.2,1.8,2.4.3,2.7-6.1,2.2-13.9,5.2-20,6.4-2.6.2-3.5-4.1-.9-4.7,1.1-.2,6.7-1.3,7.6-1.5v-18.4h0ZM314.9,63.1c-.9-1.8-1-3.9-1.8-5.9,0,0-1.3-3.4-1.3-3.4-.8-1.4,0-2.7,1.4-2.4,1.1.4,2.6,2.8,3.6,4,1.1,1.5,2.8,4.2,2.8,5.5.3,2.8-3.1,4.1-4.8,2.1h0ZM334.7,54.9c-.5,1.2-2.1,3.4-2.9,4.6-.7,1-1.2,1.8-1.9,2.4-1,.4-2.2,0-2.1-1.3.6-2.1,1.8-6.6,2.3-8.7.4-.7.9-1.2,1.7-1.3,2.8-.5,4.4,1.8,2.9,4.3h0ZM343.7,27.4c-1.7,1.8-3.8,3.8-5.9,5.4,0,0-.8.6-.8.6-1,.6-2.1,0-2-1.2,0-.5,1.3-2.5,1.6-3,1.8-2.7,2.7-5.7,4.3-8.3,1.9-1.4,5.4,0,5.3,2.5,0,.8-.8,2.1-2.4,3.9h0ZM347.7,34.4v-13.4c0-2.3,1-3.5,3.1-3.5s3.1,1.2,3.1,3.5v13.4c4.7,0,11.3-1.1,11.2,5.4,0,0,0,27.5,0,27.5,0,3.6-2,5.4-6.1,5.4-.1,0-6.2,0-6.1,0-1.3,0-1.7-1.9-.6-2.5.6-.4,3.2-.2,3.9-.2,1.7,0,2.6-.9,2.6-2.6v-8.2h-15.3v10.3c.3,5.1-6.6,4.8-6.2,0,0,0,0-29.6,0-29.6,0-6.2,5.7-5.4,10.4-5.4h0ZM343.6,45.3h15.3v-5.5c0-1.7-.9-2.6-2.6-2.6h-10c-1.8,0-2.6.9-2.6,2.6v5.5ZM358.9,48.1h-15.3v8.2h15.3v-8.2ZM363.9,33c-2.4,0-3.7-4.9-5.2-6.8-.4-.8-2.9-3.5-2.8-4.4.2-4.4,8.3,3.1,10.1,5.1,2.6,2.6,1.6,6.3-2.1,6.2h0ZM426.4,65.3c0,4.3-2.3,6.5-6.9,6.5h-38.5c-2.7,0-4.6-.7-5.7-1.9-.8-1-1.3-2.5-1.3-4.5V25c0-4.3,2.3-6.5,7-6.5h38.5c2.7,0,4.6.7,5.7,2,.8,1,1.2,2.5,1.2,4.4,0,0,0,40.3,0,40.3ZM420,24.5c0-2.2-1.1-3.2-3.2-3.2h-33.4c-2.1,0-3.2,1.1-3.2,3.2v41.1c0,2.2,1.1,3.2,3.2,3.2h33.4c2.2,0,3.2-1.1,3.2-3.2V24.5ZM416.5,55.8c.2,0,.3,0,.4,0,1.5,0,1.5,2.5,0,2.5-.1,0-.3,0-.4,0h-6.2v4.6c0,2.8-1.7,4.2-4.9,4.2-.2,0-6.2,0-6.1,0-.2,0-.4,0-.6-.2-.8-.4-.8-1.9,0-2.3.7-.4,2.7-.2,3.5-.2,1.5,0,2.3-.7,2.3-2.3v-3.8h-15c2,.5,7.7,2.6,7.8,5.1,0,2-1,3-3,3s-1.9-.9-3.3-2.7l-2.8-3.1c-.3-.3-.4-.7-.4-1.2.2-.6.6-.9,1.3-1-.1,0-6.2,0-6.1,0-1.5,0-1.4-2.6,0-2.5.1,0,.3,0,.4,0h21c-.1-1.9.6-4.1,2.9-4,2.4-.1,3,2.1,2.9,4h6.3ZM415.9,25.7c.2,0,.3,0,.5,0,1.5,0,1.5,2.5,0,2.6h-13.4v3h6.7c3.3,0,4.9,1.4,4.9,4.3v5.3c0,2.4-.9,3.8-3.4,4.2,2.3,1.4,7.2,5.2,7.1,7.1.3,2.4-2.6,3.6-4.4,2.3l-.4-.5-1.4-2.8c-6.9.6-15.3,1.3-21.8,1.7-2.6.1-4.6.2-6,.2-1.3,0-2-.6-2.1-1.7-.3-1.8.9-2.5,2.7-2.4,3.2,0,9.4,0,12.2,0v-3.7h-6.5c-3.3,0-4.9-1.4-4.9-4.3v-5.3c0-2.9,1.7-4.3,4.9-4.3h6.5v-3h-12.8c-.2,0-.3,0-.5,0-1.6,0-1.5-2.5,0-2.5.2,0,.3,0,.5,0h12.8c0-.4,0-.8,0-1.2-.1-2.8,4.2-3.6,5.4-1.2.3.5.4,1.7.4,2.4h12.9,0ZM397.2,33.9h-4.2c-2.6,0-2.1.6-2.3,3.2h6.4v-3.2h0ZM397.2,39.5h-6.4c-.1,1.8.2,3.4,2.3,3.3,0,0,4.2,0,4.2,0v-3.3h0ZM403.1,37.1h6.5c-.2-2.5.3-3.1-2.3-3.2,0,0-4.3,0-4.3,0v3.2ZM403.1,42.8h4.3c2.1,0,2.4-1.6,2.3-3.3h-6.5v3.3ZM403.1,48.8c2.6,0,5.1-.2,7.4-.4-.8-1.1-1.9-2.3-.5-3.1h-6.9v3.5h0ZM471.5,32.1c-1.4,2-3.4,4.2-5.3,5.9,6.8,6.4,10.8,15.8,10.7,25,0,3.6-.6,6.2-1.8,7.7-1.1,1.5-3.1,2.2-6,2.2h-6.9c-.2,0-.4,0-.6,0-1.6-.2-1.5-2.5,0-2.7.2-.1,4,0,4.3,0,5.4.2,4.3-7.5,4.4-11.8-4.7,3.8-11.4,7.6-17.2,10-2.1.8-3.6,1.6-3.8-.6,0-.6.5-1.1,1.6-1.7,6-2.8,14.9-9.1,18.7-14-.5-1.9-.9-3.4-1.3-4.2-3.7,3.4-8.4,6.4-13,8.3-1.5.6-1.7.8-2.6-.2-.6,7.1-4.5,6.9-9.8,6.7-.8,0-1.8-.4-1.7-1.4,0-.9.9-1.4,2.7-1.4,2.5,0,3-4,2.9-6.1,0-4.4-1.4-8.9-4-12.6,0-.2-.2-.3-.3-.4-.3-.4-.6-.9-.7-1.3-.3-.6-.2-1.1,0-1.7,0,0,5-14,5-14,.4-.7,0-1.4-.8-1.5-2.1,0-5.6-.7-5.5,2.5,0,0,0,45.2,0,45.2,0,.2,0,.4,0,.6,0,3.7-5.7,3.8-5.7,0-.2-1,0-45.4,0-46.3,0-3.2,1.8-4.8,5.6-4.8h9.3c3-.1,4.6,2.6,3.4,5.1,0,0-6.5,14-6.5,14v.4c-.1.1,0,.7.3.8,3.5,4.3,5.9,9.1,6,14.7,4.6-2.9,10.4-6.7,13.2-11.3-.9-1.4-1.7-2.5-2.3-3.3-1.6,1-11.9,9.1-11.8,4.7,0-.5.4-1,1.1-1.5,1.8-1.2,3.5-2.4,5-3.8,2.5-2.2,4.6-4.6,6.2-7.4h-10.4c-.2,0-.3,0-.5,0-1.6-.1-1.7-2.6,0-2.6.2,0,.3,0,.5,0h9.6c-1.3-.2-2.2-1.1-2.8-2.9-.9-2.6-1.8-4.9-2.6-6.7-.6-1.1-.3-2.4,1-2.3.6-.2,3.6,2.5,4.5,3.5,3.2,2.7,6.1,7.1.6,8.5h23.4c.2,0,.4,0,.6,0,1.6,0,1.5,2.6,0,2.6-.2,0-.3,0-.5,0h-9.8c.1,3,.2,6.4.7,9.4,1.8-1.5,3.1-2.9,4-4.1.8-1.1,1.7-1.7,2.6-1.7,2.1,0,3.1,1.1,3.1,3.2-.1,3.1-6.3,4.5-9,6,1.6,7.7,4.3,14.6,8.9,20.4,1.1,1.1.9,2.8-.7,2.7-1.3-.3-2.5-1.9-3.7-3.2-7.8-9.1-11.2-21-12.1-32.8h-.2,0ZM483.3,20.5c-.3,2.3-3,4.7-5.2,6.7-2,1.8-3.9,3-4.3.7l1.7-4.7c.6-1.8,1.2-4.6,1.8-5,2-1.9,6.4-.6,6,2.3ZM573.8,19.4c2.3,5.2,4.3,7.5,5.8,9.2.6.7.9,1.1.9,1.6-.6,4.1-6.2-1.9-9.2-5.3-.8-1-1.2-1.3-1.4-1.3-.4,0-.5.3-1.9,2.3-2.8,4.2-9.2,11.5-10.8,11.5-1.8-.2-1.6-2-.5-3,3.5-3.9,6.2-8.5,8.1-13.4,1.3-3.3,1.7-4.5,5-4.5s3.4,1.4,4.1,3h0ZM572,44.7h6.5c.6,0,1.7.2,1.7,1.4s-1.1,1.4-1.7,1.4h-6.5v17.8c1.5-.3,8-1.8,8.3-1.8,1.8,0,2.1,2.1.1,2.9-8,3.1-20.3,6.9-21.5,6.9-3-.1-3.3-5.3-.1-5.3.7-.1,5.2-.8,7.2-1.3v-19.1h-7.4c-.5,0-1.7-.1-1.7-1.4s1.2-1.4,1.7-1.4h7.4v-7.2h-3.2c-2.2.1-2.3-3,0-2.9,0,0,13.2,0,13.2,0,2.3-.1,2.2,3.1,0,2.9,0,0-4.1,0-4.1,0v7.2h0ZM559.6,61.2c-.4-2.9-1.8-5.4-2.6-8.5,0-.9.7-1.4,1.4-1.4,1.3,0,6.6,7.2,6.6,9.8s-1.4,3.2-2.8,3.2-2.3-1.8-2.6-3ZM577.8,59.6c-1.3,1.9-1.9,2.5-2.6,2.5s-1.4-.7-1.4-1.3,1.4-5,1.6-6c.4-1.6.5-4.8,3-4.7.9,0,3,.6,3,3s-1.6,3.8-3.6,6.6h0ZM603.9,27.3c6,0,6,4.1,6,6,0,7.8-.7,28.1-2.7,34.9-.8,2.6-2.2,5.4-7.6,5.4h-7.6c-2.2,0-2.2-2.9,0-2.9h5.4c2.7,0,3.7-1.1,4.6-7.3,1.4-10.7,1.6-28.7,1.6-30.8s-1.6-2.5-2.3-2.5h-11.6c-1.7,2.7-6.6,9.8-8.2,9.8s-1.4-.8-1.4-1.4,2.5-4.5,2.9-5.3c2.7-5.2,3.3-8.1,4.6-14.3.4-2,1.6-3,3.3-3,7.3.5,1.8,8.4.3,11.4h12.7ZM585.2,56.4c4.7-.9,9-2.5,13.8-3.7.7,0,1.4.6,1.4,1.4s-.5,1.3-4.4,3.2c-1.9,1-9.8,5-11.3,4.9-2.4-.1-4.2-4.7.5-5.8ZM586.4,43.5c-2.3.1-2.2-3,0-2.9,0,0,11.9,0,11.9,0,2.3-.1,2.2,3.1,0,2.9,0,0-11.9,0-11.9,0ZM638,54.5v5.1c1.1-.2,6.9-1.6,7.3-1.6,1.6,0,1.7,2.4.4,2.8-1.3.6-5.5,1.9-7.7,2.6v4.9c0,4.2-1.1,5.7-6,5.7h-5.2c-2.4.3-2.5-3.2,0-2.9,6.1.3,4.8-1,5-6-1.4.4-10,2.9-10.7,2.9-3.3-.3-2.8-5.6,0-5.5,1.7-.3,9.2-1.5,10.7-1.8v-6.3h-11.5c-2.1,0-2.1-2.9,0-2.9h11.5v-3.9c-2.4.2-6.7.5-9.1.5s-1.7-1.3-1.7-1.4c0-1.3,1.1-1.4,2.3-1.5,1.4-.1,10.2-1.1,15.9-3.5.6-.2,1.4-.6,2.1-.6,1.6,0,2.8,1.5,2.8,2.9,0,2.2-2,2.5-6.1,3v4.6h13c-.2-3.9-2.2-10.4,2.6-10.3,2.5,0,3.3,1.7,3.3,3.4,0,2.6,0,4.4.3,6.9h14.9c2.1,0,2.1,2.9,0,2.9h-14.5c.5,2.9,1,4.7,1.6,6.5,1.5-1.4,2.3-2.6,3.4-4,2.2-3.5,7.9,1,4.9,3.8-.6.7-2.8,2.6-6.1,4.8,1.2,1.8,2.3,2.9,3.6,2.9,2.5.1,2.9-5.7,5.3-5.2,1.7,0,2.9,1.4,2.9,2.7-1.4,7.5-10.2,12.8-16.8,2.4-7.5,3.8-13,5-13.4,5-1.6,0-1.9-2.4,0-2.8,5-1.9,7.2-3,11.5-5.9-1.4-3-2.2-6.3-3-10.3h-13.5v.2ZM652.6,22.5c-1.4-1,0-2.3.8-3.8,1.6-2.7,1.9-3,3.5-3s4.1,1,4.1,2.8-3.7,3.5-5.3,4h14.3c2.1,0,2.1,2.9,0,2.9h-20.5s0,4.5,0,4.5h16.3c2.2,0,2.2,2.9,0,2.9h-16.3v4.6h22.8c2.2,0,2.2,2.8,0,2.8h-51.7c-2.2,0-2.2-2.8,0-2.8h22.7s0-4.6,0-4.6h-16c-2.2,0-2.2-2.9,0-2.9h16v-4.5h-20.3c-2.2,0-2.2-2.9,0-2.9h13.2c-.8-.9-3.6-4.4-4-5.5,0-.8.6-1.4,1.5-1.4,1.8.1,11.8,3.5,5.9,6.8h13.1,0ZM667.1,50.4c-1.2,0-1.4-.3-3.1-3-1.1-1.6-1.4-2-2.8-3.6-.9-.8-.3-2.3,1-2.3.7,0,3.3,1.4,4.4,2,3.5,2,3.8,2.6,3.8,3.8,0,1.4-1.5,3.1-3.4,3.1ZM706.2,21.4v-2c0-4.4,6.4-4.4,6.4,0v2h22.3c2.2,0,2.2,2.8,0,2.8h-40.3c-2.4,0-2.8.8-2.8,3,0,29.9-.6,34.4-8.8,45.1s-2.2-.1-2.2-1c4.1-7.6,4.6-19.8,4.6-25.6v-18.4c0-4.4,1.9-5.9,6.3-5.9h14.5,0ZM710.6,44h-16.5c-2.2.2-2.3-3,0-2.9,0,0,40.6,0,40.6,0,2.2,0,2.2,2.9,0,2.9h-18.2v3.1h9.7c4.5,0,5.2,2.2,5.2,4.9v7.7c.1,5-3.3,5-8,4.9,4,2.9,6.8,5.1,11.6,6.8,1.4.4,1.2,2.7-.4,2.8-1.4,0-10.5-2.5-13.6-4.2-2.2-.8-2-4.4.7-5.3h-16c4.3,2.5,2.4,5.4-2.5,6.7-3,1.1-9.4,3.1-10.4,3.1-1.7-.2-1.8-2.4-.1-3,5.3-1.9,6.4-3.3,11.5-6.9-4.8.1-8.4.1-8.3-4.9,0,0,0-7.7,0-7.7,0-2.9.9-4.9,5.2-4.9h9.4v-3.1h0ZM719.4,29.2c-.1-2.2.2-5,3-5,2.8,0,3.3,2.6,3.1,5h7.6c2.2,0,2.2,2.9,0,2.9h-7.6c.1,3.5-.2,6.5-5.2,6.4,0,0-13.4,0-13.4,0-5.3,0-5.3-3-5.2-6.4h-7.2c-2.2,0-2.2-2.9,0-2.9h7.2c-.1-2.2.2-5,3-5,2.8,0,3.2,2.7,3.1,5h11.7ZM710.6,50h-6.2c-3.1-.3-2.4,2-2.4,4.3h8.7v-4.4h0ZM710.6,57.1h-8.7c.1,2.3-.8,4.8,2.4,4.5,0,0,6.2,0,6.2,0v-4.5ZM707.7,32.2c0,2.2-.2,3.8,2.4,3.6,0,0,6.8,0,6.8,0,2.6.2,2.4-1.4,2.4-3.6h-11.7,0ZM716.5,54.4h8.9c0-2.3.6-4.6-2.4-4.3,0,0-6.5,0-6.5,0v4.4h0ZM716.5,61.6h6.5c3.2.2,2.3-2.2,2.4-4.5h-8.9v4.5ZM769.1,19.5c0-4.5,6.6-4.5,6.6,0v6.1h18.3c2.1,0,2.1,2.9,0,2.9h-18.3v12.1h22.5c2.2-.1,2.3,3,0,2.9,0,0-52,0-52,0-2.3.1-2.2-3,0-2.9,0,0,22.9,0,22.9,0v-12.1h-12.3c-3.2,4.5-7.8,9.4-8.9,9.4-1.5-.3-1.7-1.4-.7-2.8,3.6-6,5.2-11.7,5.8-13.9.6-2.2,1.1-4,3.8-4,4.8.6,5.2,3.9,1.9,8.5h10.3v-6.1ZM793.1,67c0,4.9-2.6,5.9-6.3,5.9h-29.4c-4.3,0-6.3-1.4-6.3-5.9v-10c0-4.8,2.4-6,6.3-6h29.4c4.4,0,6.3,1.6,6.3,6v10ZM786.5,56.9c0-2.3-.5-3-2.8-3h-23.1c-2.3,0-2.8.6-2.8,3v10.3c0,2.2.4,3,2.8,3h23.1c2.4,0,2.8-.8,2.8-3v-10.3ZM542.6,41.5v4h-35.1v-4h35.1Z"/>
</svg>