<?xml version="1.0" encoding="UTF-8"?>
<svg id="_圖層_1" data-name="圖層 1" xmlns="http://www.w3.org/2000/svg" xmlns:xlink="http://www.w3.org/1999/xlink" viewBox="0 0 1920 1080">
  <defs>
    <style>
      .cls-1 {
        fill: #fff;
      }

      .cls-2 {
        stroke: #fff;
        stroke-miterlimit: 10;
        stroke-width: .5px;
      }

      .cls-2, .cls-3 {
        fill: none;
      }

      .cls-4 {
        clip-path: url(#clippath-1);
      }

      .cls-5 {
        clip-path: url(#clippath);
      }
    </style>
    <clipPath id="clippath">
      <rect class="cls-3" x="-1986.23" y="-1491.02" width="1942.88" height="1092.87"/>
    </clipPath>
    <clipPath id="clippath-1">
      <rect class="cls-3" x="549.41" y="-1321.24" width="1942.88" height="1092.87"/>
    </clipPath>
    <image id="image" width="6000" height="3870" xlink:href="../Links/shutterstock_2064456848.jpg"/>
  </defs>
  <line class="cls-2" x1="1563.17" y1="665.39" x2="1563.17" y2="538.95"/>
  <line class="cls-2" x1="1517.47" y1="623.18" x2="1517.47" y2="549.39"/>
  <path class="cls-1" d="M1564.53,666.23c0,.77-.62,1.39-1.39,1.39s-1.39-.62-1.39-1.39.62-1.39,1.39-1.39,1.39.62,1.39,1.39Z"/>
  <line class="cls-2" x1="1649.33" y1="703.82" x2="1649.33" y2="538.95"/>
  <path class="cls-1" d="M1650.69,704.67c0,.77-.62,1.39-1.39,1.39s-1.39-.62-1.39-1.39.62-1.39,1.39-1.39,1.39.62,1.39,1.39Z"/>
  <path class="cls-1" d="M1518.83,624.05c0,.77-.62,1.39-1.39,1.39s-1.39-.62-1.39-1.39.62-1.39,1.39-1.39,1.39.62,1.39,1.39Z"/>
  <g>
    <path class="cls-1" d="M1651.41,469.22v2.42h3.42v9.25h-1.56v-1.16h-7.81v1.2h-1.57v-9.29h3.19v-2.42h-4.11v-.84h12.7v.84h-4.27ZM1653.28,478.96v-2.07h-1.78c-1.33,0-1.59-.39-1.59-1.57v-2.91h-1.3c-.04,2.88-.83,4.46-2.74,5.71l-.37-.52c1.24-1.42,1.6-2.61,1.63-5.19h-1.66v6.55h7.81ZM1649.91,469.22h-1.3v2.42h1.3v-2.42ZM1653.28,472.41h-1.91v2.4c0,.58.16.76.77.76h1.14v-3.16Z"/>
    <path class="cls-1" d="M1643.6,482.67h5.19v5.44h-3.68v7.65h-1.51v-13.09ZM1647.31,484.95v-1.53h-2.19v1.53h2.19ZM1647.31,487.37v-1.66h-2.19v1.66h2.19ZM1651.1,494.33c2.15.47,2.56.25,2.56-.73v-5.5h-3.65v-5.44h5.17v11.34c0,1.91-1.5,2.55-4.27.92l.18-.59ZM1653.66,484.95v-1.53h-2.16v1.53h2.16ZM1653.66,487.37v-1.66h-2.16v1.66h2.16Z"/>
    <path class="cls-1" d="M1655.86,499.45h-3.7l.8.3c-.46.7-1.02,1.35-1.54,1.84h3.66v7.47c0,1.62-1.27,2.03-3.96,1.08l.09-.62c2.19.21,2.34.15,2.34-.8v-3.88h-1.63c-1.56,0-1.87-.36-1.87-1.44v-1.05h-1.14c-.21,1.71-1.68,2.8-3.51,3.23l-.06-.16v5.23h-1.51v-9.06h3.2c-.27-.65-.62-1.35-.95-1.93l.28-.21h-3.51v-.76h6.61c-.71-.47-1.69-1.05-2.34-1.39l.21-.59c1.02.15,2.45.5,3.35.95l-.56,1.04h5.75v.76ZM1647.48,502.34h-2.15v2.54c1.39-.64,2.03-1.17,2.15-2.54ZM1652.27,508.61h-5.65v-3.31h5.65v3.31ZM1651.28,499.45h-4.31c.59.49,1.11,1.11,1.54,1.76l-.68.37h2.67c.3-.64.58-1.44.79-2.13ZM1650.89,506.04h-2.88v1.82h2.88v-1.82ZM1653.55,502.34h-2.19v.83c0,.37.18.55.68.55h1.51v-1.38Z"/>
    <path class="cls-1" d="M1655.27,512.28v13.22h-1.48v-.7h-8.82v.74h-1.48v-13.27h11.78ZM1644.96,513.04v7.34c.79-.59,1.56-1.39,2.19-2.43h-1.81v-.7h2.21c.13-.25.25-.53.37-.81h-2.19v-.68h1.13c-.25-.59-.62-1.32-.98-1.97l.44-.31c.61.52,1.2,1.13,1.62,1.73l-.85.55h1.08c.25-.77.44-1.62.55-2.55l1.42.25c-.19.86-.4,1.62-.65,2.3h1.1l-.22-.18c.36-.56.82-1.44,1.05-2.15l1.17.58c-.47.68-1.14,1.36-1.62,1.75h1.96v.68h-3.71c-.12.28-.25.56-.39.81h4.57v.7h-2.28c.8.8,1.79,1.32,2.65,1.63v-6.54h-8.82ZM1653.78,524.04v-4.02l-.55.89c-.52-.28-1.19-.77-1.85-1.59,0,.7-.03,1.08-.07,1.54-.12,1.02-1.26,1.27-2.7.28l.13-.49c1.2.36,1.35.18,1.39-.18.01-.25.03-.5.03-.96h-2.06v2.12c0,.61.09.74.71.8.83.09,1.59.07,2.4-.03.62-.09.71-.28.76-1.48h.52c.49,1.79.25,2.49-.95,2.56-1.01.06-2,.07-2.98.01-1.35-.09-1.72-.4-1.72-1.51v-2.18c-.5.44-1.07.83-1.68,1.19l-.21-.31v3.35h8.82ZM1648.45,517.95c-.19.31-.4.59-.62.86h3.17c-.18-.25-.36-.55-.53-.86h-2.02Z"/>
  </g>
  <line class="cls-2" x1="1012.66" y1="703.82" x2="1012.66" y2="534"/>
  <path class="cls-1" d="M1014.02,704.67c0,.77-.62,1.39-1.39,1.39s-1.39-.62-1.39-1.39.62-1.39,1.39-1.39,1.39.62,1.39,1.39Z"/>
  <g>
    <path class="cls-1" d="M1006.29,472.57l-.33-.52c1.59-1.41,2.58-3.38,3.2-5l1.59.67c-.27.47-.61,1.01-.99,1.53h3.44c-.46-.58-.99-1.17-1.48-1.66l.31-.52c.76.3,1.78.89,2.46,1.48l-.64.7h4.71v.74h-4.74v.82h3.72v.73h-3.72v.85h3.74v.73h-3.74v1.07h4.94v.74h-9.26v.65h-1.53v-4.28c-.53.5-1.1.95-1.67,1.29ZM1019.46,478.91l-.77,1.54c-1.23-.34-3.72-1.27-5.19-2.94v3.53h-1.54v-3.41c-1.19,1.22-3.71,2.48-5.78,2.91l-.16-.59c1.6-.58,3.48-1.63,4.76-2.95h-4.4v-.77h5.59v-.95h1.54v.95h5.6v.77h-5.22c1.87,1.27,4.12,1.65,5.57,1.91ZM1012.34,469.99h-2.85v.82h2.85v-.82ZM1012.34,471.53h-2.85v.85h2.85v-.85ZM1012.34,473.1h-2.85v1.07h2.85v-1.07Z"/>
    <path class="cls-1" d="M1019.49,494.12l-.77,1.75c-1.57-.25-4.54-1.22-5.75-4.05-.93,2.31-3.11,3.63-6.74,4.14l-.18-.59c3.05-.79,4.56-1.99,5.25-3.65h-4.76v-.77h5.01c.12-.46.19-.95.24-1.47l1.69.13c-.04.47-.12.92-.22,1.33h5.62v.77h-5.2c1.54,1.9,4.08,2.24,5.83,2.4ZM1019.03,489.22h-12.63v-.77h5.43v-1.35h-3.96v-.76h3.96v-1.3h-4.89v-.77h3.53c-.53-.62-1.27-1.39-1.78-1.84l.34-.55c.86.33,2.28,1.07,3.01,1.63l-.7.76h2.12c.5-.73.95-1.71,1.2-2.48l1.65.79c-.52.64-1.14,1.2-1.79,1.69h3.97v.77h-5.05v1.3h4.15v.76h-4.15v1.35h5.6v.77Z"/>
    <path class="cls-1" d="M1019.19,499.45h-3.7l.8.3c-.46.7-1.02,1.35-1.54,1.84h3.66v7.47c0,1.62-1.27,2.03-3.96,1.08l.09-.62c2.19.21,2.34.15,2.34-.8v-3.88h-1.63c-1.56,0-1.87-.36-1.87-1.44v-1.05h-1.14c-.21,1.71-1.68,2.8-3.51,3.23l-.06-.16v5.23h-1.51v-9.06h3.2c-.27-.65-.62-1.35-.95-1.93l.28-.21h-3.51v-.76h6.61c-.71-.47-1.69-1.05-2.34-1.39l.21-.59c1.02.15,2.45.5,3.35.95l-.56,1.04h5.75v.76ZM1010.81,502.34h-2.15v2.54c1.39-.64,2.03-1.17,2.15-2.54ZM1015.6,508.61h-5.65v-3.31h5.65v3.31ZM1014.61,499.45h-4.31c.59.49,1.11,1.11,1.54,1.76l-.68.37h2.67c.3-.64.58-1.44.79-2.13ZM1014.22,506.04h-2.88v1.82h2.88v-1.82ZM1016.88,502.34h-2.19v.83c0,.37.18.55.68.55h1.51v-1.38Z"/>
    <path class="cls-1" d="M1018.6,512.28v13.22h-1.48v-.7h-8.82v.74h-1.48v-13.27h11.78ZM1008.29,513.04v7.34c.79-.59,1.56-1.39,2.19-2.43h-1.81v-.7h2.21c.13-.25.25-.53.37-.81h-2.19v-.68h1.13c-.25-.59-.62-1.32-.98-1.97l.44-.31c.61.52,1.2,1.13,1.62,1.73l-.85.55h1.08c.25-.77.44-1.62.55-2.55l1.42.25c-.19.86-.4,1.62-.65,2.3h1.1l-.22-.18c.36-.56.82-1.44,1.05-2.15l1.17.58c-.47.68-1.14,1.36-1.62,1.75h1.96v.68h-3.71c-.12.28-.25.56-.39.81h4.57v.7h-2.28c.8.8,1.79,1.32,2.65,1.63v-6.54h-8.82ZM1017.11,524.04v-4.02l-.55.89c-.52-.28-1.19-.77-1.85-1.59,0,.7-.03,1.08-.07,1.54-.12,1.02-1.26,1.27-2.7.28l.13-.49c1.2.36,1.35.18,1.39-.18.01-.25.03-.5.03-.96h-2.06v2.12c0,.61.09.74.71.8.83.09,1.59.07,2.4-.03.62-.09.71-.28.76-1.48h.52c.49,1.79.25,2.49-.95,2.56-1.01.06-2,.07-2.98.01-1.35-.09-1.72-.4-1.72-1.51v-2.18c-.5.44-1.07.83-1.68,1.19l-.21-.31v3.35h8.82ZM1011.78,517.95c-.19.31-.4.59-.62.86h3.17c-.18-.25-.36-.55-.53-.86h-2.02Z"/>
  </g>
  <line class="cls-2" x1="963.71" y1="819.04" x2="963.71" y2="533.01"/>
  <path class="cls-1" d="M965.07,819.88c0,.77-.62,1.39-1.39,1.39s-1.39-.62-1.39-1.39.62-1.39,1.39-1.39,1.39.62,1.39,1.39Z"/>
  <g>
    <path class="cls-1" d="M961.49,476.99v4h-1.47v-3.6c-.55.83-1.39,1.81-2.64,2.65l-.39-.47c1.01-.9,2.13-2.53,2.7-3.96h-2.25v-.73h2.58v-1.38h1.47v1.38h2.37v.73h-2.37v.46c.76.43,1.63,1.07,2.37,1.78l-1.01.99c-.46-.68-.92-1.29-1.36-1.85ZM964.08,473.21h-6.85v-.74h1.82c-.24-.74-.59-1.62-.89-2.25l.5-.33c.59.55,1.29,1.44,1.69,2.13l-.84.44h1.66c.27-.82.52-1.87.61-2.59l1.42.47c-.33.67-.83,1.5-1.32,2.12h2.19v.74ZM963.77,469.84h-6.33v-.74h3.01c-.5-.52-1.04-1.01-1.59-1.48l.3-.52c.77.25,1.69.64,2.53,1.2l-.61.8h2.68v.74ZM970.29,472.85h-1.44v8.09h-1.48v-8.09h-1.5v.49c0,3.79-.77,6.26-2.67,7.81l-.44-.4c1.36-1.73,1.62-3.74,1.62-6.86v-5.51l1.32.34c1.1-.33,2.16-.82,3.13-1.47l1.22,1.2c-1.3.58-2.76.79-4.17.89v2.74h4.42v.77Z"/>
    <path class="cls-1" d="M963.92,492.73l.21.64c-1.81,1.1-5.17,2.05-6.71,2.36l-.44-1.59c1.02-.12,2.53-.39,4-.7v-5.31h-3.85v-.83h3.85v-5.1h1.57v10.88c.5-.12.98-.24,1.38-.36ZM968.69,495.25c-.64.03-1.5.03-2.4,0-1.63-.06-1.84-.49-1.84-2.28v-10.78h1.56v5.69c.95-.67,2.02-1.5,3.07-2.55l1.19,1.29c-1.24.9-3.02,1.72-4.25,2.15v4.02c0,.73.09.95.85,1.01.53.04,1.2.03,1.73-.02.71-.09.74-.47.77-3.25h.61c.7,3.65.73,4.61-1.27,4.71Z"/>
    <path class="cls-1" d="M970.56,508.8l-1.14,1.85c-1.66-.79-4.42-3.56-5.22-8.27-.79,4.39-3.39,7.25-6.85,8.39l-.3-.59c2.8-1.5,4.88-3.85,5.51-8.42h-5.03v-.9h5.11c.03-.31.06-.64.07-.96.06-.92.07-1.97.07-2.96h1.73c0,1.2-.04,2.3-.1,3.42-.01.16-.01.34-.03.5h5.53v.9h-5.19c1.11,4.03,3.59,6.05,5.81,7.04Z"/>
    <path class="cls-1" d="M961.13,519.49l-.79-1.54v7.46h-1.39v-6.45c-.47,1.29-1.1,2.4-1.59,3.11l-.47-.34c.7-1.44,1.44-3.37,1.85-6.18h-1.57v-.76h1.78v-2.96h1.39v2.96h1.36v.76h-1.36v1.24c.56.52,1.16,1.14,1.79,1.94l-1.01.76ZM970.59,516.7l-.68,1.38c-.61-.27-1.19-.64-1.72-1.11v1.63h-4.74v-1.6c-.52.36-1.1.67-1.73.93l-.31-.52c1.2-.71,2-1.39,2.65-2.42h-2.16v-.74h2.58c.1-.24.22-.47.33-.74-.96.07-1.87.12-2.64.12l-.12-.59c2.18-.22,4.59-.67,6.24-1.35l1.13,1.1c-.9.24-1.94.41-2.99.55-.1.31-.24.62-.4.92h4.06v.74h-2.7c1.11,1.02,2.21,1.41,3.22,1.7ZM961.93,519.16h7.87v4.82c0,1.75-1.68,1.78-3.51.92l.12-.55c1.7.22,1.99.16,1.99-.71v-3.73h-5.06v5.53h-1.41v-6.27ZM967.68,523.58h-3.71v-2.98h3.71v2.98ZM964.67,516h2.61c-.22-.31-.46-.64-.67-1.01h-1.07c-.25.36-.53.68-.87,1.01ZM966.91,516.73h-2.24v1.14h2.24v-1.14ZM966.54,521.29h-1.42v1.59h1.42v-1.59Z"/>
  </g>
  <line class="cls-2" x1="891.47" y1="744.97" x2="891.47" y2="547.1"/>
  <path class="cls-1" d="M892.83,745.82c0,.77-.62,1.39-1.39,1.39s-1.39-.62-1.39-1.39.62-1.39,1.39-1.39,1.39.62,1.39,1.39Z"/>
  <g>
    <path class="cls-1" d="M885.11,478.81h12.73v1.1h-12.73v-1.1ZM886.18,468.36h10.58v1.08h-10.58v-1.08ZM887.22,473.22h8.51v1.05h-8.51v-1.05Z"/>
    <path class="cls-1" d="M898.01,494.57v.76h-13.03v-.76h5.69v-1.29h-4.57v-.77h4.57v-1.14h-3.99v-4.65h3.99v-1.05h-5.4v-.77h5.4v-1.05c-1.6.07-3.16.1-4.33.09l-.1-.62c2.89-.12,6.15-.55,8.82-1.38l1.3,1.27c-1.1.25-2.58.43-4.14.55v1.14h5.6v.77h-5.6v1.05h4.03v4.65h-4.03v1.14h4.64v.77h-4.64v1.29h5.78ZM890.67,487.47h-2.46v1.17h2.46v-1.17ZM890.67,489.38h-2.46v1.23h2.46v-1.23ZM892.23,487.47v1.17h2.5v-1.17h-2.5ZM894.73,489.38h-2.5v1.23h2.5v-1.23Z"/>
    <path class="cls-1" d="M893.27,506.15h-3.9l-1.04,3.28h-1.59l3.74-10.88h1.94l3.81,10.88h-1.94l-1.02-3.28ZM891.36,500.01h-.09c-.16.56-.39,1.29-.59,1.91l-.99,3.22h3.28l-1.1-3.35c-.19-.59-.39-1.26-.5-1.78Z"/>
    <path class="cls-1" d="M894.64,516.31c0,1.97-1.57,3.85-3.81,5.91l-.86.79v.09h4.94v1.11h-7.04v-.89l1.19-1.02c2.39-2.09,3.82-4.24,3.85-5.83.03-1.57-.55-2.33-2.1-2.33-1.04-.01-1.99.49-2.64,1.04v-1.29c.65-.34,1.78-.74,2.93-.74,2.34,0,3.54,1.14,3.54,3.16Z"/>
    <path class="cls-1" d="M890.66,536.16l.21.58c-1.22.83-3.74,1.84-5.62,2.36l-.49-1.72c.93-.09,2.13-.28,3.36-.55.33-1.57.68-3.96.83-6.06l1.6.3c-.31,1.99-1.01,4.08-1.63,5.57.59-.15,1.17-.3,1.73-.47ZM891.34,530.37h-6.34v-.76h6.34v.76ZM885.72,531.08l.56-.16c.79,1.68,1.39,3.71,1.6,5.25l-1.56.27c-.07-1.45-.31-3.62-.61-5.35ZM887.62,529.58c-.22-.93-.53-1.99-.86-2.92l.58-.25c.71.8,1.33,1.82,1.7,2.65l-1.42.52ZM894.72,530.71v3.01h2.82v6.46h-1.51v-1.16h-3.54v1.2h-1.51v-6.51h2.19v-7.14h1.56v3.37h3.37v.77h-3.37ZM892.48,534.47v3.79h3.54v-3.79h-3.54Z"/>
  </g>
  <line class="cls-2" x1="848.82" y1="780.82" x2="848.82" y2="518.65"/>
  <path class="cls-1" d="M850.18,781.66c0,.77-.62,1.39-1.39,1.39s-1.39-.62-1.39-1.39.62-1.39,1.39-1.39,1.39.62,1.39,1.39Z"/>
  <g>
    <path class="cls-1" d="M855.36,479.75v.76h-13.03v-.76h5.69v-1.29h-4.57v-.77h4.57v-1.14h-3.99v-4.65h3.99v-1.05h-5.4v-.77h5.4v-1.05c-1.6.07-3.16.1-4.33.09l-.1-.62c2.89-.12,6.15-.55,8.82-1.38l1.3,1.27c-1.1.25-2.58.43-4.14.55v1.14h5.6v.77h-5.6v1.05h4.03v4.65h-4.03v1.14h4.64v.77h-4.64v1.29h5.78ZM848.02,472.65h-2.46v1.17h2.46v-1.17ZM848.02,474.56h-2.46v1.23h2.46v-1.23ZM849.58,472.65v1.17h2.5v-1.17h-2.5ZM852.08,474.56h-2.5v1.23h2.5v-1.23Z"/>
    <path class="cls-1" d="M846.6,491.81v4h-1.47v-3.6c-.55.83-1.39,1.81-2.64,2.65l-.39-.47c1.01-.9,2.13-2.53,2.7-3.96h-2.25v-.73h2.58v-1.38h1.47v1.38h2.37v.73h-2.37v.46c.76.43,1.63,1.07,2.37,1.78l-1.01.99c-.46-.68-.92-1.29-1.36-1.85ZM849.19,488.03h-6.85v-.74h1.82c-.24-.74-.59-1.62-.89-2.25l.5-.33c.59.55,1.29,1.44,1.69,2.13l-.84.44h1.66c.27-.82.52-1.87.61-2.59l1.42.47c-.33.67-.83,1.5-1.32,2.12h2.19v.74ZM848.88,484.67h-6.33v-.74h3.01c-.5-.52-1.04-1.01-1.59-1.48l.3-.52c.77.25,1.69.64,2.53,1.2l-.61.8h2.68v.74ZM855.4,487.68h-1.44v8.09h-1.48v-8.09h-1.5v.49c0,3.79-.77,6.26-2.67,7.81l-.44-.4c1.36-1.73,1.62-3.74,1.62-6.86v-5.51l1.32.34c1.1-.33,2.16-.82,3.13-1.47l1.22,1.2c-1.3.58-2.76.79-4.17.89v2.74h4.42v.77Z"/>
    <path class="cls-1" d="M846.24,504.66l-.79-1.54v7.46h-1.39v-6.45c-.47,1.29-1.1,2.4-1.59,3.11l-.47-.34c.7-1.44,1.44-3.37,1.85-6.18h-1.57v-.76h1.78v-2.96h1.39v2.96h1.36v.76h-1.36v1.24c.56.52,1.16,1.14,1.79,1.94l-1.01.76ZM855.7,501.88l-.68,1.38c-.61-.27-1.19-.64-1.72-1.11v1.63h-4.74v-1.6c-.52.36-1.1.67-1.73.93l-.31-.52c1.2-.71,2-1.39,2.65-2.42h-2.16v-.74h2.58c.1-.24.22-.47.33-.74-.96.07-1.87.12-2.64.12l-.12-.59c2.18-.22,4.59-.67,6.24-1.35l1.13,1.1c-.9.24-1.94.41-2.99.55-.1.31-.24.62-.4.92h4.06v.74h-2.7c1.11,1.02,2.21,1.41,3.22,1.7ZM847.04,504.34h7.87v4.82c0,1.75-1.68,1.78-3.51.92l.12-.55c1.7.22,1.99.16,1.99-.71v-3.73h-5.05v5.53h-1.41v-6.27ZM852.8,508.75h-3.71v-2.98h3.71v2.98ZM849.79,501.18h2.61c-.22-.31-.46-.64-.67-1.01h-1.07c-.25.36-.53.68-.87,1.01ZM852.02,501.91h-2.24v1.14h2.24v-1.14ZM851.65,506.47h-1.42v1.59h1.42v-1.59Z"/>
  </g>
  <line class="cls-2" x1="797.03" y1="755.93" x2="797.03" y2="548.52"/>
  <circle class="cls-1" cx="797" cy="756.78" r="1.39"/>
  <g>
    <path class="cls-1" d="M803.88,479.15l-1.14,1.85c-1.66-.79-4.42-3.56-5.22-8.27-.79,4.39-3.39,7.25-6.85,8.39l-.3-.59c2.8-1.5,4.88-3.85,5.51-8.42h-5.03v-.9h5.11c.03-.31.06-.64.07-.96.06-.92.07-1.97.07-2.96h1.73c0,1.2-.04,2.3-.1,3.42-.01.16-.01.34-.03.5h5.53v.9h-5.19c1.11,4.03,3.59,6.05,5.81,7.04Z"/>
    <path class="cls-1" d="M796.25,486.91h1.99v.76h-2.59c-.46.52-.92.98-1.41,1.39h3.2v6.71h-1.44v-1.04h-2.37v1.1h-1.42v-5.34c-.59.34-1.17.65-1.75.92l-.28-.56c1.5-.86,2.82-1.91,3.91-3.19h-3.48v-.76h2.55v-1.91h-1.94v-.76h1.94v-2.09h1.5v2.09h1.6c.18-.41.34-.83.49-1.27l1.33.56c-.5,1.32-1.13,2.43-1.82,3.38ZM796,489.81h-2.37v1.65h2.37v-1.65ZM796,492.17h-2.37v1.82h2.37v-1.82ZM794.69,486.91c.44-.59.83-1.23,1.19-1.91h-1.24v1.91h.06ZM800.21,493.09l.18-.61c1.47.37,1.75.07,1.64-1.38-.09-.96-.55-2.24-1.33-3.44.37-1.13.8-2.64.96-3.97h-1.62v12.17h-1.44v-13.28l1.38.36h1.5l.41-.28,1.42.65c-.62,1.96-1.23,3.2-1.99,4.34,1.08,1.19,1.9,2.25,2.09,3.65.44,2.88-1.85,2.95-3.22,1.79Z"/>
    <path class="cls-1" d="M803.07,502c-.31-.1-.65-.24-1.02-.4v3.28h-9.99v-3.28c-.5.21-1.01.39-1.51.55l-.22-.58c2.48-1.05,5.19-3.26,6.36-4.91l1.62.76c-.12.13-.24.28-.37.41,1.96,1.48,4.28,2.28,5.91,2.62l-.77,1.54ZM801.54,501.36c-.71-.36-1.47-.83-2.22-1.39v.59h-4.42v-.39c-.73.43-1.5.83-2.3,1.19h8.94ZM792.9,505.69h8.32v4.95h-1.48v-.68h-5.37v.68h-1.47v-4.95ZM793.79,502.28l.24-.19h-.58v2.06h1.39c-.31-.62-.76-1.42-1.05-1.87ZM794.37,506.43v.99h5.37v-.99h-5.37ZM799.73,509.21v-1.08h-5.37v1.08h5.37ZM796.37,502.08h-1.96c.55.41,1.19,1.04,1.59,1.53l-.76.53h1.13v-2.06ZM795.47,499.82h3.65c-.58-.46-1.14-.96-1.66-1.53-.56.52-1.24,1.04-1.99,1.53ZM797.73,502.08v2.06h.64l-.22-.21c.36-.56.71-1.16,1.02-1.85h-1.44ZM800.62,502.08h-1.13l.92.52c-.56.64-1.17,1.19-1.65,1.54h1.85v-2.06Z"/>
    <path class="cls-1" d="M790.63,520.18l-.37-.5c1.81-1.76,3.1-4.02,3.84-7.08l1.76.67c-.98,2.68-2.89,5.41-5.23,6.92ZM802.79,524.39l-1.72.95c-.25-.67-.58-1.41-.95-2.16-2.39.82-5.71,1.42-8.18,1.66l-.44-1.88c.59,0,1.24,0,1.9-.02,1.01-1.67,1.96-4.12,2.48-6.18l1.87.73c-.83,1.91-2.16,3.99-3.34,5.41,1.9-.07,3.85-.24,5.37-.43-.39-.76-.81-1.53-1.26-2.24l.52-.43c1.54,1.44,2.88,3.08,3.77,4.6ZM798.87,513.31h-2.36v-.77h2.99c.52,2.95,2.34,4.74,4.43,5.84l-1.3,1.79c-1.91-1.42-3.29-3.76-3.76-6.86Z"/>
    <path class="cls-1" d="M802.92,527.14v13.13h-1.48v-.83h-8.8v.86h-1.48v-13.16h11.77ZM801.44,527.89h-8.8v10.79h8.8v-10.79ZM793.09,536.56l-.21-.56c.92-.39,1.96-.86,2.76-1.51h-1.71v-2.45h6.18v2.45h-2.73c-.33.3-.68.55-1.04.77v1.45c.55-.13,1.07-.27,1.48-.4l.21.55c-1.17.67-3.19,1.35-4.28,1.62l-.4-1.17c.49-.06,1.04-.16,1.62-.28v-1.07c-.71.3-1.38.47-1.88.61ZM800.99,531.45h-7.96v-.74h3.25v-.8h-2.71v-.73h2.71v-.92h1.48v.92h2.73v.73h-2.73v.8h3.23v.74ZM795.3,533.76h3.44v-.99h-3.44v.99ZM801.26,535.08c-.46.41-1.01.8-1.54,1.08.58.34,1.13.73,1.59,1.1l-.95,1.08c-.98-.99-1.99-1.96-3.25-2.89l.31-.5c.52.22,1.1.52,1.69.85.43-.44.86-.99,1.17-1.48l.98.77Z"/>
  </g>
  <line class="cls-2" x1="743.94" y1="796.92" x2="743.94" y2="576.85"/>
  <path class="cls-1" d="M745.3,797.77c0,.77-.62,1.39-1.39,1.39s-1.39-.62-1.39-1.39.62-1.39,1.39-1.39,1.39.62,1.39,1.39Z"/>
  <g>
    <path class="cls-1" d="M750.21,473.28l-1.5,1.05c-.3-.59-.67-1.24-1.07-1.93-2.51.55-6.33,1.11-9.31,1.36l-.44-1.78c.68.03,1.39.04,2.1.04,1.1-1.42,2.06-3.36,2.67-4.94l1.84.79c-.92,1.36-2.18,2.98-3.45,4.14,2.24-.01,4.46-.13,6.18-.27-.46-.74-.96-1.48-1.51-2.21l.5-.44c1.47,1.16,3.25,3.07,3.99,4.18ZM739.44,474.84h9.03v6.18h-1.59v-1.07h-5.84v1.05h-1.6v-6.17ZM741.04,479.18h5.84v-3.59h-5.84v3.59Z"/>
    <path class="cls-1" d="M744.03,494.84c-2.61-.02-3.71-2.18-3.71-5.01,0-3.79,2.28-6.34,6.18-6.33l.15.8c-3.17.02-4.71,2.4-4.76,4.7l.09.02c.39-.77,1.23-1.56,2.46-1.54,1.99,0,3.2,1.69,3.22,3.48,0,1.99-1.01,3.9-3.63,3.88ZM744.06,488.51c-1.07,0-1.97.96-1.97,2.46,0,1.68.84,2.88,2,2.89,1.23.01,1.84-1.04,1.84-2.73-.02-1.75-.79-2.62-1.87-2.62Z"/>
    <path class="cls-1" d="M747.83,506.67h-1.38v2.76h-1.59v-2.76h-4.83v-1.13l4.52-7h1.9v7.03h1.38v1.1ZM744.86,505.57v-3.81c0-.59.03-1.36.06-1.72h-.09c-.12.31-.34.73-.86,1.56l-2.4,3.88v.09h3.29Z"/>
    <path class="cls-1" d="M738.71,514.27c.21,1.3.18,3.48-.21,4.43l-1.41-.55c.53-.92.99-2.31,1.04-3.88h.58ZM739.25,511.78h1.45v13.71h-1.45v-13.71ZM741.4,517.71c-.12-.95-.34-2.12-.64-3.32l.52-.21c.62.95,1.16,1.99,1.47,3.14l-1.35.39ZM750.69,523.8l-1.16,1.73c-1.68-.99-3.25-3.02-3.81-5.86-.5,2.74-1.9,4.62-4.54,5.91l-.36-.53c2.16-1.53,3.08-3.23,3.41-5.72h-2.8v-.77h2.89c.06-.64.07-1.32.07-2.06v-1.35h-2.16v-.76h2.16v-2.67h1.54v2.67h3.11v4.17h1.33v.77h-4.08c.79,2.27,2.25,3.56,4.37,4.46ZM745.87,518.57h1.7v-3.41h-1.63v1.75c0,.58-.03,1.14-.07,1.66Z"/>
    <path class="cls-1" d="M750.75,538.12l-.39,1.65c-1.63.13-4.58.18-6.02.1-2.16-.12-3.22-.47-4.18-2.18-.5.93-1.27,1.93-2.06,2.71l-.95-1.01c.77-.56,1.72-1.32,2.15-1.96v-3.44h-1.94v-.77h3.44v4.03c.79,1.17,1.69,1.23,3.59,1.26,1.96.04,4.57-.15,6.36-.4ZM739.75,532.47c-.53-.68-1.42-1.72-2.08-2.39l.34-.5c.77.36,1.96,1.01,2.77,1.72l-1.04,1.17ZM738.13,527.06l.34-.5c.77.31,2,.95,2.77,1.63l-1.02,1.16c-.61-.77-1.36-1.6-2.09-2.28ZM745.01,528.92h-3.39v-.76h3.39v-1.57h1.51v1.57h3.59v.76h-3.59v1.1h3.01v3.37h-3.01v.39c1.16.47,2.68,1.27,3.75,2.1l-1.02,1.32c-.87-.99-1.9-1.9-2.73-2.56v3.35h-1.51v-3.29c-.86,1.08-2.09,2.06-3.42,2.73l-.34-.53c1.38-1.02,2.33-1.96,3.23-3.5h-2.4v-3.37h2.93v-1.1ZM743.51,530.77v1.87h1.53v-1.87h-1.53ZM746.51,532.64h1.59v-1.87h-1.59v1.87Z"/>
    <path class="cls-1" d="M750.76,553.03l-.46,1.62c-1.63.1-4.06.15-5.87.07-2.77-.12-3.84-.96-4.46-2.22-.46,1.01-1.07,1.97-1.76,2.73l-1.02-1.02c.68-.52,1.44-1.3,1.91-1.97v-3.35h-1.69v-.76h3.23v4c.71,1.14,2.45,1.24,3.75,1.24,2.06,0,4.58-.12,6.37-.34ZM739.59,547.25c-.53-.71-1.38-1.69-2.09-2.4l.33-.52c.86.37,1.99,1.04,2.8,1.76l-1.04,1.16ZM738,541.93l.31-.5c.84.33,1.99.96,2.77,1.65l-1.01,1.14c-.58-.74-1.33-1.56-2.08-2.28ZM744.88,544.42h-3.74v-.74h2.68c-.4-.71-.9-1.48-1.3-2.03l.39-.44c.83.49,1.81,1.3,2.31,1.91l-.7.56h2.03c.3-.71.58-1.62.76-2.48l1.59.49c-.43.71-1.01,1.45-1.56,1.99h2.99v.74h-3.88c-.28.49-.64.99-.98,1.39h3.85v6.6h-7.03v-6.6h2.33c.12-.44.19-.95.25-1.39ZM747.81,546.57h-4v1.16h4v-1.16ZM747.81,548.44h-4v1.24h4v-1.24ZM747.81,550.39h-4v1.26h4v-1.26Z"/>
    <path class="cls-1" d="M750.24,565c-.22-.07-.44-.15-.65-.24v5.13h-1.41v-.93h-2.98v.95h-1.42v-5.17c-.43.19-.89.34-1.36.49l-.22-.58c1.53-.65,2.77-1.48,3.73-2.52-.61-.68-1.1-1.44-1.45-2.19-.37.5-.79.96-1.24,1.36l-.39-.39v.56h-1.48v1.85h1.79v.76h-1.79v3.07c.65-.18,1.24-.37,1.72-.55l.22.58c-.95.68-3.93,1.94-5.62,2.42l-.47-1.63c.25-.03.52-.06.8-.1v-4.97h1.26v4.74c.24-.04.46-.1.7-.15v-6.02h-1.87v-4.59h4.74v3.96c.9-1.26,1.42-3.01,1.78-4.76l1.57.49c-.15.43-.31.85-.5,1.25h2.19l.31-.27,1.53.73c-.47,1.45-1.19,2.71-2.12,3.78,1.02.61,2.18,1.01,3.37,1.3l-.73,1.65ZM741.51,557.61h-2.06v3.11h2.06v-3.11ZM749.5,564.71c-1.07-.44-2-1.07-2.79-1.79-.83.73-1.79,1.32-2.89,1.79h5.68ZM746.6,561.33c.59-.83,1.04-1.75,1.33-2.79h-2.59c-.13.27-.28.52-.44.77.47.82,1.05,1.47,1.71,2.02ZM748.18,565.45h-2.98v2.74h2.98v-2.74Z"/>
  </g>
  <line class="cls-2" x1="374.47" y1="838.7" x2="374.47" y2="548.52"/>
  <path class="cls-1" d="M375.83,839.54c0,.77-.62,1.39-1.39,1.39s-1.39-.62-1.39-1.39.62-1.39,1.39-1.39,1.39.62,1.39,1.39Z"/>
  <g>
    <path class="cls-1" d="M372.25,476.99v4h-1.47v-3.6c-.55.83-1.39,1.81-2.64,2.65l-.39-.47c1.01-.9,2.13-2.53,2.7-3.96h-2.25v-.73h2.58v-1.38h1.47v1.38h2.37v.73h-2.37v.46c.76.43,1.63,1.07,2.37,1.78l-1.01.99c-.46-.68-.92-1.29-1.36-1.85ZM374.85,473.21h-6.85v-.74h1.82c-.24-.74-.59-1.62-.89-2.25l.5-.33c.59.55,1.29,1.44,1.69,2.13l-.84.44h1.66c.27-.82.52-1.87.61-2.59l1.42.47c-.33.67-.83,1.5-1.32,2.12h2.19v.74ZM374.54,469.84h-6.33v-.74h3.01c-.5-.52-1.04-1.01-1.59-1.48l.3-.52c.77.25,1.69.64,2.53,1.2l-.61.8h2.68v.74ZM381.06,472.85h-1.44v8.09h-1.48v-8.09h-1.5v.49c0,3.79-.77,6.26-2.67,7.81l-.44-.4c1.36-1.73,1.62-3.74,1.62-6.86v-5.51l1.32.34c1.1-.33,2.16-.82,3.13-1.47l1.22,1.2c-1.3.58-2.76.79-4.17.89v2.74h4.42v.77Z"/>
    <path class="cls-1" d="M374.68,492.73l.21.64c-1.81,1.1-5.17,2.05-6.71,2.36l-.44-1.59c1.02-.12,2.53-.39,4-.7v-5.31h-3.85v-.83h3.85v-5.1h1.57v10.88c.5-.12.98-.24,1.38-.36ZM379.46,495.25c-.64.03-1.5.03-2.4,0-1.63-.06-1.84-.49-1.84-2.28v-10.78h1.56v5.69c.95-.67,2.02-1.5,3.07-2.55l1.19,1.29c-1.24.9-3.02,1.72-4.25,2.15v4.02c0,.73.09.95.85,1.01.53.04,1.2.03,1.73-.02.71-.09.74-.47.77-3.25h.61c.7,3.65.73,4.61-1.27,4.71Z"/>
    <path class="cls-1" d="M375.31,499.97v2.19h4.27v5.53c0,1.6-1.62,1.84-3.65.89l.13-.61c1.7.22,1.97.07,1.97-.64v-4.4h-2.73v7.81h-1.6v-7.81h-2.68v6.34h-1.54v-7.11h4.23v-2.19h-5.69v-.85h6.45c-.73-.71-1.54-1.41-2.21-1.9l.28-.58c1.05.28,2.37.87,3.35,1.47l-.73,1.01h5.81v.85h-5.66Z"/>
    <path class="cls-1" d="M375.07,522.29c-1.79.98-5.16,2.12-6.89,2.5l-.47-1.6c.27-.03.55-.06.86-.1v-6.97h1.3v6.74c.36-.06.71-.13,1.08-.21v-8.79h-2.96v-.76h7.1v.76h-2.67v3.23h1.84v.76h-1.84v4.48c.92-.21,1.76-.43,2.43-.64l.22.59ZM381.34,524.07l-1.08,1.54c-1.27-.84-2.27-1.82-3.02-3.04-1.13,1.27-2.64,2.31-4.62,3.01l-.28-.56c1.97-1.01,3.35-2.22,4.28-3.63-.5-1.13-.86-2.45-1.05-4-.42.81-.86,1.56-1.33,2.18l-.53-.34c1.08-1.87,1.79-5.22,2.03-7.56l1.62.27c-.15.93-.4,1.94-.74,2.95h4.18v.76h-.98c-.09,2.12-.62,4.11-1.7,5.8.82,1.05,1.87,1.9,3.25,2.64ZM377.29,520.14c.62-1.35.9-2.86.99-4.51h-1.97c-.07.21-.15.41-.24.61.28,1.56.67,2.83,1.22,3.9Z"/>
    <path class="cls-1" d="M381.1,528.38v.76h-10.63v3.11c0,4.12-.76,6.69-2.25,8.06l-.46-.37c1.08-1.72,1.16-4.06,1.16-7.8v-3.76h6.55c-.87-.55-1.81-1.02-2.59-1.41l.15-.59c1.08.18,2.52.55,3.56.99l-.53,1.01h5.06ZM373.32,532.35v7.96h-1.48v-5.41c-.34.44-.71.83-1.11,1.17l-.43-.43c1.26-1.78,2.05-4.28,2.4-6.31l1.54.39c-.21.8-.52,1.72-.92,2.64ZM379.13,532.03h1.85v.76h-1.85v6.06c0,1.51-1.48,2.06-4.09.74l.16-.59c2.21.34,2.42.19,2.42-.67v-5.54h-3.71v-.76h3.71v-2.39h1.51v2.39ZM375.6,537.16c-.34-.96-.89-2.25-1.38-3.25l.52-.34c.84.87,1.66,1.96,2.15,2.92l-1.29.67Z"/>
  </g>
  <line class="cls-2" x1="436.49" y1="838.7" x2="436.49" y2="560.27"/>
  <path class="cls-1" d="M437.85,839.54c0,.77-.62,1.39-1.39,1.39s-1.39-.62-1.39-1.39.62-1.39,1.39-1.39,1.39.62,1.39,1.39Z"/>
  <g>
    <path class="cls-1" d="M433.15,479.42c0,1.32-1.29,1.84-3.25.64l.13-.58c1.5.3,1.68.15,1.68-.52v-3.16c-.52.24-1.02.43-1.48.61l-.53-1.56c.61-.1,1.3-.25,2.02-.43v-3.17h-1.78v-.74h1.78v-3.2h1.44v3.2h1.53v.74h-1.53v2.79c.49-.15.96-.3,1.39-.44l.24.53c-.52.34-1.07.67-1.63.96v4.33ZM443.25,479.12l-.39,1.53c-.82.09-2.05.1-2.86.07-1.75-.07-3.32-.39-4.27-2.43-.52,1.1-1.3,2.05-2.46,2.79l-.4-.46c1.42-1.23,1.91-3.16,2.18-4.97l1.44.36c-.12.53-.25,1.04-.43,1.51.4.71.79,1.13,1.32,1.38v-3.75h-2.36v-.74h2.36v-1.19h-3.14v-.74h3.14v-1.08h-2.24v-.74h2.24v-1.04h-3.31v-.74h3.31v-1.56h1.47v1.56h4v.74h-4v1.04h2.67v1.82h1.45v.74h-1.45v1.93h-2.67v1.44h3.57v.74h-3.57v1.91c.34.03.73.04,1.17.06.86.01,2.19-.03,3.23-.18ZM438.85,471.4v1.08h1.26v-1.08h-1.26ZM440.11,473.22h-1.26v1.19h1.26v-1.19Z"/>
    <path class="cls-1" d="M429.78,494.94c.7-.53,1.53-1.42,2.01-2.09v-3.26h-1.72v-.76h3.19v3.91c.74,1.14,2.49,1.29,3.88,1.29,1.97.02,4.43-.13,6.24-.36l-.53,1.6c-1.63.1-3.94.12-5.75.06-2.49-.06-3.82-.96-4.46-2.21-.46.99-1.19,2.09-1.88,2.83l-.98-1.02ZM430.2,485.53l.33-.52c.84.39,2,1.04,2.79,1.76l-1.02,1.14c-.53-.7-1.39-1.72-2.09-2.39ZM430.65,482.59l.31-.49c.85.33,1.97.95,2.77,1.63l-1.02,1.14c-.59-.74-1.33-1.56-2.06-2.28ZM437.66,492.21h-3.63v-.73h3.63v-.83h-2.85v-3.97h2.85v-.8h-3.26v-.74h3.26v-1.14h1.48v1.14h3.17v.74h-3.17v.8h2.86v3.97h-2.86v.83h3.76v.73h-3.76v1.48h-1.48v-1.48ZM434.09,482.78h8.54v2.05h-1.44v-1.3h-5.65v1.3h-1.45v-2.05ZM437.69,488.3v-.92h-1.53v.92h1.53ZM437.69,489.96v-1.01h-1.53v1.01h1.53ZM440.65,488.3v-.92h-1.54v.92h1.54ZM440.65,489.96v-1.01h-1.54v1.01h1.54Z"/>
    <path class="cls-1" d="M441.37,510.37c-.85.04-1.71.06-2.52,0-1.32-.1-1.59-.4-1.59-1.62v-4.57h-1.44c-.3,3.07-1.6,5.57-5.56,6.55l-.24-.59c3.32-1.38,3.99-3.72,4.18-5.96h-4.11v-.84h5.74v-2.83h-2.45c-.55.9-1.23,1.7-1.99,2.39l-.47-.43c.98-1.39,1.67-2.93,2.02-5.14l1.62.33c-.16.73-.41,1.41-.73,2.04h2v-2.77h1.62v2.77h3.94v.82h-3.94v2.83h5.5v.84h-4.12v3.97c0,.53.1.71.64.76.56.06,1.17.07,1.9,0,.67-.07.71-.36.7-2.7h.67c.68,3.22.59,4.05-1.36,4.15Z"/>
    <path class="cls-1" d="M443.01,517.59v.76h-13.03v-.76h1.11l-.34-.37c.7-.67,1.6-2.25,2-3.38l1.39.49c-.15.28-.31.56-.49.83.71.4,1.32.81,1.82,1.27l-1.02.96c-.34-.56-.77-1.16-1.21-1.69-.64.8-1.38,1.47-2,1.88h4.46v-3.77h-5.01v-.76h5.01v-1.45h1.53v1.45h5.03v.76h-5.03v3.77h5.78ZM431.46,519.16h10.04v6.27h-1.47v-.77h-7.1v.85h-1.47v-6.34ZM432.93,523.9h7.1v-4h-7.1v4ZM433.93,520.66h5.05v2.46h-5.05v-2.46ZM435.3,522.45h2.3v-1.13h-2.3v1.13ZM440.51,514.39c-.16.28-.33.55-.5.8.74.4,1.36.85,1.87,1.33l-1.02.92c-.34-.53-.79-1.17-1.24-1.7-.58.74-1.2,1.35-1.85,1.79l-.4-.44c.71-.79,1.35-1.99,1.72-3.2l1.44.5Z"/>
    <path class="cls-1" d="M442.6,528.38v2.92h-1.53v-2.16h-9.12v2.16h-1.54v-2.92h6.18c-.76-.53-1.6-1.02-2.25-1.41l.19-.56c.93.15,2.53.65,3.42,1.1l-.53.87h5.17ZM436.09,535.5h5.37v4.77h-1.53v-.83h-6.64v.9h-1.53v-4.85h3.51c.13-.55.24-1.19.3-1.72h-2.86v-3.45h7.54v3.45h-3.08c-.27.55-.65,1.19-1.08,1.72ZM439.93,536.24h-6.64v2.45h6.64v-2.45ZM434.18,533.02h4.6v-1.96h-4.6v1.96Z"/>
    <path class="cls-1" d="M435.67,550.99l.21.58c-1.22.83-3.74,1.84-5.62,2.36l-.49-1.72c.93-.09,2.13-.28,3.36-.55.33-1.57.68-3.96.83-6.06l1.6.3c-.31,1.99-1.01,4.08-1.63,5.57.59-.15,1.17-.3,1.73-.47ZM436.36,545.19h-6.34v-.76h6.34v.76ZM430.74,545.9l.56-.16c.79,1.68,1.39,3.71,1.6,5.25l-1.56.27c-.07-1.45-.31-3.62-.61-5.35ZM432.64,544.4c-.22-.93-.53-1.99-.86-2.92l.58-.25c.71.8,1.33,1.82,1.7,2.65l-1.42.52ZM439.74,545.53v3.01h2.82v6.46h-1.51v-1.16h-3.54v1.2h-1.51v-6.51h2.19v-7.14h1.56v3.37h3.37v.77h-3.37ZM437.5,549.3v3.79h3.54v-3.79h-3.54Z"/>
  </g>
  <g>
    <path class="cls-1" d="M1570.43,473.28l-1.5,1.05c-.3-.59-.67-1.24-1.07-1.93-2.51.55-6.33,1.11-9.31,1.36l-.44-1.78c.68.03,1.39.04,2.1.04,1.1-1.42,2.06-3.36,2.67-4.94l1.84.79c-.92,1.36-2.18,2.98-3.45,4.14,2.24-.01,4.46-.13,6.18-.27-.46-.74-.96-1.48-1.51-2.21l.51-.44c1.47,1.16,3.24,3.07,3.99,4.18ZM1559.65,474.84h9.03v6.18h-1.59v-1.07h-5.84v1.05h-1.6v-6.17ZM1561.25,479.18h5.84v-3.59h-5.84v3.59Z"/>
    <path class="cls-1" d="M1564.37,492.73l.21.64c-1.81,1.1-5.17,2.05-6.71,2.36l-.44-1.59c1.02-.12,2.53-.39,4-.7v-5.31h-3.85v-.83h3.85v-5.1h1.57v10.88c.5-.12.98-.24,1.38-.36ZM1569.14,495.25c-.64.03-1.5.03-2.4,0-1.63-.06-1.84-.49-1.84-2.28v-10.78h1.56v5.69c.95-.67,2.02-1.5,3.07-2.55l1.19,1.29c-1.24.9-3.02,1.72-4.25,2.15v4.02c0,.73.09.95.85,1.01.53.04,1.2.03,1.74-.02.71-.09.74-.47.77-3.25h.61c.7,3.65.73,4.61-1.28,4.71Z"/>
    <path class="cls-1" d="M1570.7,507.87h-5.66v2.82h-1.63v-2.82h-5.75v-.77h5.75v-1.35h-4.08v-5.13h4.08v-1.19h-4.94v-.76h4.94v-1.73h1.63v1.73h4.91v.76h-4.91v1.19h4.09v5.13h-4.09v1.35h5.66v.77ZM1560.87,502.75h2.53v-1.38h-2.53v1.38ZM1563.4,504.99v-1.48h-2.53v1.48h2.53ZM1565.03,501.37v1.38h2.55v-1.38h-2.55ZM1567.58,503.51h-2.55v1.48h2.55v-1.48Z"/>
    <path class="cls-1" d="M1563.35,521.34l.21.58c-1.22.83-3.73,1.84-5.62,2.36l-.49-1.72c.93-.09,2.13-.28,3.36-.55.33-1.57.68-3.96.83-6.06l1.6.3c-.31,1.99-1.01,4.08-1.63,5.57.59-.15,1.17-.3,1.74-.47ZM1564.03,515.54h-6.34v-.76h6.34v.76ZM1558.41,516.25l.56-.16c.79,1.68,1.39,3.71,1.6,5.25l-1.56.27c-.07-1.45-.31-3.62-.61-5.35ZM1560.31,514.76c-.22-.93-.53-1.99-.86-2.92l.58-.25c.71.8,1.33,1.82,1.7,2.65l-1.42.52ZM1567.41,515.88v3.01h2.82v6.46h-1.51v-1.16h-3.54v1.2h-1.51v-6.51h2.19v-7.14h1.56v3.37h3.36v.77h-3.36ZM1565.17,519.65v3.79h3.54v-3.79h-3.54Z"/>
  </g>
  <line class="cls-2" x1="1287.04" y1="699.58" x2="1287.04" y2="524.37"/>
  <path class="cls-1" d="M1288.4,700.42c0,.77-.62,1.39-1.39,1.39s-1.39-.62-1.39-1.39.62-1.39,1.39-1.39,1.39.62,1.39,1.39Z"/>
  <g>
    <path class="cls-1" d="M1280.25,479.17c1.05-.93,1.71-1.9,2.18-3.32l.61.13c-.13,1.48-.7,3.2-1.47,4.22l-1.32-1.04ZM1286.29,473.18h-3.01v.87h-1.48v-4.83h4.49v-1.88h1.56v1.88h4.55v4.79h-1.5v-.83h-3.05v1.91h-1.56v-1.91ZM1286.29,472.44v-2.46h-3.01v2.46h3.01ZM1283.86,479.09v-3.7h1.53v2.98c0,.7.12.83.99.89.92.05,2.15.05,2.79-.04.74-.09.84-.28.79-2.15h.61c1.08,2.79.31,3.41-1.02,3.51-.93.07-2.52.09-3.48.04-1.56-.07-2.19-.24-2.19-1.53ZM1286.19,475.88l.33-.5c.83.36,1.84.87,2.82,1.69l-1.05,1.19c-.73-.95-1.44-1.72-2.09-2.37ZM1290.9,472.44v-2.46h-3.05v2.46h3.05ZM1290.83,476.16l.47-.37c.9.76,1.91,1.88,2.55,2.96l-1.39.85c-.49-1.26-.99-2.3-1.63-3.44Z"/>
    <path class="cls-1" d="M1288.92,487.1c-.52.46-1.08.9-1.65,1.33h1.94l.59-.22,1.29,1.05c-.73.58-1.94,1.24-2.93,1.63v.8h5.38v.76h-5.38v2c0,1.44-1.42,1.91-4.18.85l.09-.61c2.13.21,2.54.13,2.54-.64v-1.6h-5.56v-.76h5.56v-1.38l1.04.13c.55-.37,1.13-.9,1.45-1.29h-2.88c-1.7,1.1-3.6,1.99-5.66,2.52l-.18-.59c1.39-.47,2.71-1.14,3.96-1.93h-2.02v-.73h3.07c.58-.42,1.13-.88,1.66-1.33h-6.46v-.79h4.91v-1.7h-3.19v-.74h3.19v-1.79h1.56v1.79h2.58v.5c.53-.68,1.01-1.36,1.41-2.05l1.44.79c-.76,1.07-1.66,2.16-2.73,3.2h3.82v.79h-4.65ZM1287.88,486.31c.56-.55,1.08-1.13,1.56-1.7h-2.39v1.7h.83Z"/>
    <path class="cls-1" d="M1284.47,504.66l-.79-1.54v7.46h-1.39v-6.45c-.47,1.29-1.1,2.4-1.59,3.11l-.47-.34c.7-1.44,1.44-3.37,1.85-6.18h-1.57v-.76h1.78v-2.96h1.39v2.96h1.36v.76h-1.36v1.24c.56.52,1.16,1.14,1.79,1.94l-1.01.76ZM1293.93,501.88l-.68,1.38c-.61-.27-1.19-.64-1.72-1.11v1.63h-4.74v-1.6c-.52.36-1.1.67-1.73.93l-.31-.52c1.2-.71,2-1.39,2.65-2.42h-2.16v-.74h2.58c.1-.24.22-.47.33-.74-.96.07-1.87.12-2.64.12l-.12-.59c2.18-.22,4.59-.67,6.24-1.35l1.13,1.1c-.9.24-1.94.41-2.99.55-.1.31-.24.62-.4.92h4.06v.74h-2.7c1.11,1.02,2.21,1.41,3.22,1.7ZM1285.27,504.34h7.87v4.82c0,1.75-1.68,1.78-3.51.92l.12-.55c1.7.22,1.99.16,1.99-.71v-3.73h-5.06v5.53h-1.41v-6.27ZM1291.02,508.75h-3.71v-2.98h3.71v2.98ZM1288.01,501.18h2.61c-.22-.31-.46-.64-.67-1.01h-1.07c-.25.36-.53.68-.87,1.01ZM1290.25,501.91h-2.24v1.14h2.24v-1.14ZM1289.88,506.47h-1.42v1.59h1.42v-1.59Z"/>
  </g>
  <g>
    <path class="cls-1" d="M1320.63,793.6c-.44-.63-1.21-1.49-1.77-2.11l.28-.38c.75.34,1.73.95,2.37,1.49l-.89,1ZM1321.53,794.23c-.34,1.65-.84,3.65-1.26,4.76l-1.3-.7c.65-1.11,1.46-2.73,2.1-4.25l.46.19ZM1320.96,790.9c-.49-.77-1.05-1.53-1.53-2.1l.32-.39c.58.27,1.43.83,2.17,1.58l-.96.91ZM1329.6,798.08l-.74,1.39c-.95-.31-2.55-1.3-3.32-3.25-.63,1.78-2.03,2.76-4.25,3.21l-.17-.45c2.97-1.09,3.51-2.51,3.51-5.83h1.32c.02.87-.04,1.61-.18,2.26.09.21.2.4.33.58.53-.57,1.03-1.24,1.39-1.97l1.17.75c-.58.58-1.47,1.19-2.25,1.61.91,1.03,2.24,1.47,3.19,1.69ZM1324.61,788.47h1.29c.01,1.04-.08,1.9-.3,2.6,1.22.53,2.32,1.16,3.22,1.87l-.89,1.03c-.77-.83-1.61-1.66-2.54-2.35-.57,1.28-1.66,2-3.33,2.48l-.2-.43c2.42-1.1,2.73-2.31,2.74-5.2ZM1323.2,791.62c-.28-.81-.62-1.64-.98-2.35l.4-.3c.59.53,1.26,1.3,1.65,1.96l-1.07.69ZM1322.7,794.13c.63.55,1.2,1.24,1.6,1.93l-1.07.63c-.26-.79-.59-1.55-.95-2.28l.42-.28ZM1326.64,791.28l-.32-.33c.55-.6.96-1.24,1.36-2.05l1.17.78c-.64.62-1.42,1.15-2.22,1.6Z"/>
    <path class="cls-1" d="M1335.32,791.57c-.51,2.7-1.93,5.53-4.33,6.95l-.3-.43c2-1.77,2.88-4.08,3.19-6.12h-2.73v-.62h2.64l.36-.25,1.16.46ZM1341.58,797.32l-.98,1.4c-1.3-.86-2.86-2.86-3.72-6.29v5.56c0,1.56-1.36,1.92-3.5.66l.13-.47c1.87.37,2.11.19,2.11-.51v-9.17h1.26v1.49c.19.97.46,1.94.85,2.84.69-.64,1.49-1.53,2.12-2.5l1.19.96c-.98.9-2.19,1.61-3.07,2.07.78,1.62,1.96,3.03,3.62,3.96Z"/>
    <path class="cls-1" d="M1344.29,793.84c-.49-.66-1.23-1.58-1.73-2.15l.3-.4c.71.36,1.66.92,2.33,1.53l-.9,1.02ZM1344.85,794.1l.47.15c-.32,1.77-.73,3.71-1.13,4.85l-1.35-.66c.62-1.14,1.39-2.79,2-4.34ZM1345.44,790.01l-.96.94c-.46-.7-1.15-1.6-1.59-2.12l.32-.4c.66.32,1.66,1,2.23,1.59ZM1353.19,789.93h-1v8.14c0,1.17-1.05,2.01-3.78.63l.14-.5c2.11.34,2.39.24,2.39-.49v-7.79h-5.33v-.62h7.57v.62ZM1349.94,795.99h-2.5v.86h-1.16v-5.4h3.66v4.54ZM1348.79,792.06h-1.35v3.33h1.35v-3.33Z"/>
  </g>
  <line class="cls-2" x1="1382.35" y1="730.91" x2="1382.35" y2="524.37"/>
  <path class="cls-1" d="M1383.71,731.75c0,.77-.62,1.39-1.39,1.39s-1.39-.62-1.39-1.39.62-1.39,1.39-1.39,1.39.62,1.39,1.39Z"/>
  <g>
    <path class="cls-1" d="M1381.52,475.57h-3.32v1.08h-1.57v-6.63h4.89v-2.79h1.63v2.79h4.94v6.54h-1.57v-.99h-3.36v5.54h-1.63v-5.54ZM1381.52,474.77v-3.93h-3.32v3.93h3.32ZM1386.52,474.77v-3.93h-3.36v3.93h3.36Z"/>
    <path class="cls-1" d="M1380.19,492.18l1.54.98c-1.35,1.19-3.85,2.31-5.88,2.74l-.22-.58c1.97-.83,3.31-1.73,4.57-3.14ZM1388.93,492.14h-13.1v-.76h.98c-.07-2.86-.16-5.5-.28-8.36l1.26.33c.52-.36.93-.73,1.38-1.23l.64.7h5.35v8.57h1.48l.09-2.16h-1.32v-.71h1.33c.03-.7.04-1.39.06-2.09h-1.38v-.71h1.39l.05-2.21h-1.26v-.76h2.7c-.04,2.79-.15,5.87-.31,8.64h.95v.76ZM1378.22,491.38h1.56v-8.12c-.53.27-1.17.5-1.76.68l.04,1.72h1.42v.71h-1.39l.04,1.96h1.33v.71h-1.3c.01.77.04,1.56.06,2.34ZM1381,483.56v7.83h2.92v-7.83h-2.92ZM1383.6,485.16h-2.34v-.65h2.34v.65ZM1381.39,486.17h2.13v4.09h-2.13v-4.09ZM1382.18,489.59h.56v-2.79h-.56v2.79ZM1389.11,494.39l-.96,1.53c-1.16-.92-3.14-2.12-4.83-3.01l.27-.61c2.02.49,3.85,1.13,5.53,2.09Z"/>
    <path class="cls-1" d="M1379.77,504.66l-.79-1.54v7.46h-1.39v-6.45c-.47,1.29-1.1,2.4-1.59,3.11l-.47-.34c.7-1.44,1.44-3.37,1.85-6.18h-1.57v-.76h1.78v-2.96h1.39v2.96h1.36v.76h-1.36v1.24c.56.52,1.16,1.14,1.79,1.94l-1.01.76ZM1389.23,501.88l-.68,1.38c-.61-.27-1.19-.64-1.72-1.11v1.63h-4.74v-1.6c-.52.36-1.1.67-1.73.93l-.31-.52c1.2-.71,2-1.39,2.65-2.42h-2.16v-.74h2.58c.1-.24.22-.47.33-.74-.96.07-1.87.12-2.64.12l-.12-.59c2.18-.22,4.59-.67,6.24-1.35l1.13,1.1c-.9.24-1.94.41-2.99.55-.1.31-.24.62-.4.92h4.06v.74h-2.7c1.11,1.02,2.21,1.41,3.22,1.7ZM1380.57,504.34h7.87v4.82c0,1.75-1.68,1.78-3.51.92l.12-.55c1.7.22,1.99.16,1.99-.71v-3.73h-5.05v5.53h-1.41v-6.27ZM1386.33,508.75h-3.71v-2.98h3.71v2.98ZM1383.32,501.18h2.61c-.22-.31-.46-.64-.67-1.01h-1.07c-.25.36-.53.68-.87,1.01ZM1385.55,501.91h-2.24v1.14h2.24v-1.14ZM1385.18,506.47h-1.42v1.59h1.42v-1.59Z"/>
  </g>
  <g>
    <path class="cls-1" d="M1523.63,473.28l-1.5,1.05c-.3-.59-.67-1.24-1.07-1.93-2.51.55-6.33,1.11-9.31,1.36l-.44-1.78c.68.03,1.39.04,2.1.04,1.1-1.42,2.06-3.36,2.67-4.94l1.84.79c-.92,1.36-2.18,2.98-3.45,4.14,2.24-.01,4.46-.13,6.18-.27-.46-.74-.96-1.48-1.51-2.21l.5-.44c1.47,1.16,3.25,3.07,3.99,4.18ZM1512.85,474.84h9.03v6.18h-1.59v-1.07h-5.84v1.05h-1.6v-6.17ZM1514.45,479.18h5.84v-3.59h-5.84v3.59Z"/>
    <path class="cls-1" d="M1517.57,492.73l.21.64c-1.81,1.1-5.17,2.05-6.71,2.36l-.44-1.59c1.02-.12,2.53-.39,4-.7v-5.31h-3.85v-.83h3.85v-5.1h1.57v10.88c.5-.12.98-.24,1.38-.36ZM1522.34,495.25c-.64.03-1.5.03-2.4,0-1.63-.06-1.84-.49-1.84-2.28v-10.78h1.56v5.69c.95-.67,2.02-1.5,3.07-2.55l1.19,1.29c-1.24.9-3.02,1.72-4.25,2.15v4.02c0,.73.09.95.85,1.01.53.04,1.2.03,1.73-.02.71-.09.74-.47.77-3.25h.61c.7,3.65.73,4.61-1.27,4.71Z"/>
    <path class="cls-1" d="M1511.06,501.7l-.4-.43c.86-1.35,1.48-2.77,1.84-4.48l1.36.41c-.18.49-.44,1.07-.77,1.66h1.78c-.16-.64-.43-1.42-.61-1.88l.5-.27c.44.4,1.02,1.2,1.33,1.81l-.79.34h2.33v.74h-2v.87h1.48v.31c.7-1.2,1.14-2.43,1.47-3.96l1.38.4c-.18.49-.43,1.07-.74,1.63h1.73c-.16-.62-.43-1.39-.61-1.84l.5-.27c.44.4,1.02,1.2,1.32,1.79l-.7.31h2.25v.74h-1.97v.87h1.53v.7h-1.53v.96h1.53v.71h-1.53v1.04h2.1v.73h-5.86v-3.87c-.24.3-.46.55-.7.77l-.4-.34h-1.27v.96h1.5v.73h-1.5v1.04h2.03v.73h-5.77v-3.91c-.28.39-.58.73-.84.98ZM1523.44,510.62c-1.94-.1-3.87-.39-5.56-1.2-1.87.79-4.12,1.23-6.88,1.33l-.12-.61c2.46-.22,4.39-.71,5.87-1.36-.95-.67-1.79-1.54-2.48-2.73h-1.5v-.74h7.72l.4-.25,1.5.92c-.82,1.05-1.76,1.91-2.91,2.61,1.44.31,3.01.37,4.7.37l-.76,1.66ZM1513.22,500.48h1.14v-.87h-1.14v.87ZM1513.22,502.14h1.14v-.96h-1.14v.96ZM1513.22,503.95h1.14v-1.08h-1.14v1.08ZM1517.97,508.15c.99-.61,1.72-1.32,2.27-2.09h-5.29c.87.99,1.88,1.65,3.02,2.09ZM1519.34,500.48h1.13v-.87h-1.13v.87ZM1519.34,502.14h1.13v-.96h-1.13v.96ZM1519.34,503.89h1.13v-1.04h-1.13v1.04Z"/>
    <path class="cls-1" d="M1523.94,519.03h-5.59v4.62c0,1.53-1.39,2.68-4.89.58l.19-.59c2.49.58,3.05.46,3.05-.43v-4.18h-5.84v-.9h5.84v-2.7l1.16.21c.9-.62,1.87-1.5,2.31-2.06h-7.93v-.84h8.03l.7-.36,1.63,1.3c-1.22.99-2.99,2.03-4.25,2.55v1.9h5.59v.9Z"/>
    <path class="cls-1" d="M1524.07,539.16v.76h-13.1v-.76h5.87v-1.78h-3.81v-.76h3.81v-1.53h-2.82c-.79.99-1.66,1.76-2.52,2.31l-.39-.49c1.04-1.05,2.19-2.96,2.71-4.6l1.57.59c-.25.5-.53.98-.83,1.42h2.27v-1.9h1.62v1.9h4.2v.76h-4.2v1.53h3.88v.76h-3.88v1.78h5.62ZM1522.24,532.09h-9.46v-4.91h9.46v4.91ZM1520.71,527.92h-6.4v1.32h6.4v-1.32ZM1520.71,529.98h-6.4v1.35h6.4v-1.35Z"/>
  </g>
  <g class="cls-5">
    <use id="shutterstock_2413737497.psd" transform="translate(-2685.14 -1699.76) scale(.51)" xlink:href="#image"/>
  </g>
  <g class="cls-4">
    <use id="shutterstock_2413737497.psd-2" data-name="shutterstock_2413737497.psd" transform="translate(-149.51 -1529.97) scale(.51)" xlink:href="#image"/>
  </g>
</svg>