<?xml version="1.0" encoding="UTF-8"?>
<svg id="_圖層_1" data-name="圖層_1" xmlns="http://www.w3.org/2000/svg" version="1.1" viewBox="0 0 400 35">
  <!-- Generator: Adobe Illustrator 29.3.1, SVG Export Plug-In . SVG Version: 2.1.0 Build 151)  -->
  <defs>
    <style>
      .st0 {
        fill: #fff;
      }
    </style>
  </defs>
  <path class="st0" d="M23.1,1.1c3.2.8,4,1.6,5.3-.8h1l.5,11h-1.1C27.1,2.3,15.4-1.1,9.7,6.3-.4,21,13.7,41.7,29.6,26.9l.9.9c-5.8,7.8-19.3,8.3-25.5,1.2C-6.2,16.1,5.8-4.3,23.1,1.1h0ZM43.9,4.6c5.7-5.8,16.5-5.8,22.2,0,6.6,5.8,6.5,19.4-.2,25.2-17.6,14.3-36.5-9.7-22.1-25.2ZM47.6,28.5c3.8,4.9,11,4.9,14.9.1,4.1-4.1,4.1-19,0-23.1-4-4.8-10.9-4.8-14.8.1-4.1,4.3-4.1,18.6,0,22.8h0ZM78.8,32.4c4.6-.6,4.6-1.5,4.7-6.3,0,0,0-19.8,0-19.8,0-3.8-.8-4.1-4.6-4.4v-.9h9.6l11.2,24.4L110.8.9h9.7v.9c-3.6.3-4.2.8-4.3,4.4,0,0,0,21.7,0,21.7,0,3.7.6,4,4.3,4.4v.9h-13.7v-.9c4.2-.5,4.3-.8,4.4-5,0,0,0-21.9,0-21.9l-12.5,27.9h-.7l-12.3-26.7v19.5c.2,4.6.2,5.8,4.6,6.3v.9h-11.5v-.9ZM130.9,32.4c3.9-.4,4.7-.3,4.8-4.4,0,0,0-21.8,0-21.8,0-3.9-.9-4.1-4.8-4.4v-.9h14.5v.9c-3.9.3-4.7.5-4.8,4.4,0,0,0,21.8,0,21.8,0,4.1.9,4,4.8,4.4v.9h-14.5v-.9ZM155.2,32.4c4.6-.6,4.6-1.5,4.7-6.3,0,0,0-21.6,0-21.6-1.5-1.8-2.4-2.8-4.8-2.7v-.9h8.3l18.9,23.4V8.1c-.2-4.6-.3-5.8-4.7-6.2v-.9h11.5v.9c-4.4.6-4.5,1.6-4.7,6.3,0,0,0,25.7,0,25.7h-.8l-21.6-26.8v19c.2,4.6.2,5.8,4.6,6.3v.9h-11.5v-.9h0ZM219.1,1.1c3.1.8,4.2,1.7,5.4-.8h1.1l.4,10.3h-1.1c-2.6-8.6-12.7-11.2-18.9-4.8-4.5,4-5,17.7,0,22.3,3.6,4.2,10.7,4.9,15.3,2.1.9-.5.3-8.2.4-9,0-3.9-.6-4-4.3-4.4v-.9h12.5v.9c-2.8.2-3.3.9-3.4,3.8,0,0,0,9.6,0,9.6-5.7,4.9-18.7,5.1-24.4-.5-13.3-12.2-.6-34.5,17.1-28.7h0ZM251.9,23.5c5.3,16.8,26.7,5.4,9.4-4.5-1.9-1.2-5.8-3.4-7.2-5-6.3-7.2,2.6-16.9,10.9-12.9,2.7.9,3.8,1.6,4.5-.8h1l1.1,10.4h-1.2c-1.2-6.2-7.4-10.6-12.6-7.2-5.1,5.2,3.5,9.6,7.5,12,10.9,4.9,9.1,18.4-3,18.5-1.5,0-3.1-.3-4.7-.9-2.7-.9-3.8-1.6-4.4.8h-1.1l-1.5-10.4h1.1ZM287.8,4.6c5.7-5.8,16.5-5.8,22.2,0,6.6,5.8,6.5,19.4-.2,25.2-17.6,14.3-36.5-9.7-22.1-25.2ZM291.4,28.5c3.8,4.9,11,4.9,14.9.1,4.1-4.1,4.1-19,0-23.1-4-4.8-10.9-4.8-14.8.1-4.1,4.3-4.1,18.6,0,22.8h0ZM330.4,4.6c5.7-5.8,16.5-5.8,22.2,0,6.6,5.8,6.5,19.4-.2,25.2-17.6,14.3-36.5-9.7-22.1-25.2ZM334.1,28.5c3.8,4.9,11,4.9,14.9.1,4.1-4.1,4.1-19,0-23.1-4-4.8-10.9-4.8-14.8.1-4.1,4.3-4.1,18.6,0,22.8h0ZM365.3,32.4c4.6-.6,4.6-1.5,4.7-6.3,0,0,0-21.6,0-21.6-1.5-1.8-2.4-2.8-4.8-2.7v-.9h8.3l18.9,23.4V8.1c-.2-4.6-.3-5.8-4.7-6.2v-.9h11.5v.9c-4.4.6-4.5,1.6-4.7,6.3,0,0,0,25.7,0,25.7h-.8l-21.6-26.8v19c.2,4.6.2,5.8,4.6,6.3v.9h-11.5v-.9h0Z"/>
</svg>