<?xml version="1.0" encoding="UTF-8"?>
<svg id="_圖層_1" data-name="圖層_1" xmlns="http://www.w3.org/2000/svg" version="1.1" viewBox="0 0 199 174">
  <!-- Generator: Adobe Illustrator 29.3.1, SVG Export Plug-In . SVG Version: 2.1.0 Build 151)  -->
  <defs>
    <style>
      .st0 {
        fill: #1163a1;
      }

      .st1 {
        fill: #221613;
      }

      .st2 {
        fill: #ea6da0;
      }
    </style>
  </defs>
  <path class="st1" d="M0,82.2h3.1l6.9,8.5v-6.5c0-1.4-.4-1.7-1.6-1.7v-.3h4v.3c-1.2,0-1.7.3-1.6,1.7v9.5h-.3l-7.5-9.1v7c0,1.4.4,1.7,1.6,1.7v.3H.6v-.3c1.2,0,1.7-.3,1.6-1.7v-7.8c-.7-.9-1.1-1.1-2.2-1.2v-.3H0ZM16.2,82.9v4.5h2.5c1.3,0,1.7-.3,1.8-1.6h.3v3.9h-.3c-.1-1.3-.5-1.7-1.8-1.7h-2.5v3.7c0,1,0,1.3.9,1.3h1.9c2.2,0,2.5-.6,3.3-2.2h.3l-1,2.8h-8.8v-.3c1.1,0,1.8-.3,1.6-1.7v-7.3c0-1.5-.4-1.7-1.6-1.7v-.3h8.8v2.5c.1,0-.2,0-.2,0-.3-1.5-.7-1.9-2.2-1.9h-3.2ZM39.2,82.2v.3c-1.3,0-1.3.8-1.8,2.1l-3.2,9.1h-.3l-2.6-7.2-2.6,7.2h-.3l-3.4-9.4c-.5-1.3-.4-1.8-1.7-1.9v-.3h4.2v.3c-1.3,0-1.3.8-.8,2l2.2,6.3,1.9-5.4c-.5-1.1-.6-3-2.2-3v-.3h4.4v.3c-1.5-.1-1.3.9-.8,2.2l2.2,6.1,2.2-6.2c.5-1.3.6-2.2-.9-2.1v-.3h3.4ZM53.9,82.3h4v.3c-1.1,0-1.7.4-1.6,1.8v4.6c.2,3-1.3,5-4.4,4.9-3.4,0-4.6-1.8-4.4-5.1v-4.4c0-1.4-.5-1.8-1.7-1.7v-.3h4.9v.3c-1.2,0-1.7.3-1.6,1.7v4.9c0,.8,0,2.2.6,2.8,1.2,1.8,4.8,1.3,5.6-.6.2-.5.3-1.4.3-2.6v-4.6c0-1.4-.4-1.8-1.6-1.7v-.3ZM69.7,93.5h-3l-3.8-5.3c-.5,0-.8,0-1.2,0v3.3c0,1.5.4,1.8,1.6,1.7v.3h-4.9v-.3c1.2,0,1.7-.3,1.6-1.7v-7.3c0-1.5-.4-1.8-1.6-1.7v-.3h5.5c3.7,0,5,4.7.6,5.8l2.3,3.2c1,1.3,1.4,1.7,2.9,1.9v.3h0ZM61.6,87.7c5.1.8,4.8-6.2,0-4.7v4.7h0ZM198,93.5h-3l-3.8-5.3c-.5,0-.8,0-1.2,0v3.3c0,1.5.4,1.8,1.6,1.7v.3h-4.9v-.3c1.2,0,1.7-.3,1.6-1.7v-7.3c0-1.5-.4-1.8-1.6-1.7v-.3h5.5c3.7,0,5,4.7.6,5.8l2.3,3.2c1,1.3,1.4,1.7,2.9,1.9v.3h0ZM189.9,87.7c5.1.8,4.8-6.2,0-4.7v4.7h0ZM77.4,87.8c4.1.9,3,5.8-1.2,5.8h-6.4v-.3c1.2,0,1.7-.3,1.6-1.7v-7.3c0-1.4-.4-1.8-1.6-1.7v-.3c1.5,0,5.8-.2,7.1.2,3,.4,3.6,4.5.5,5.3ZM73,87.3c6.4,1.5,6-6,0-4.3v4.3ZM73,92.7c6.9,1.8,6.5-6.1,0-4.6M88.8,89.8h-4.4l-.8,1.8c-.6,1.1-.3,1.7,1,1.7v.3h-3.6v-.3c1.3-.2,1.2-.6,1.9-1.9l4-9.3h.3l4,9.4c.6,1.2.7,1.7,1.9,1.9v.3h-4.5v-.3c1.3,0,1.3-.7.8-1.8l-.7-1.6h0ZM88.6,89.1l-1.9-4.6-2,4.6h3.9ZM93.1,82.2h3.1l6.9,8.5v-6.5c0-1.4-.4-1.7-1.6-1.7v-.3h4v.3c-1.2,0-1.7.3-1.6,1.7v9.5h-.3l-7.5-9.1v7c0,1.4.4,1.7,1.6,1.7v.3h-4v-.3c1.2,0,1.7-.3,1.6-1.7v-7.8c-.7-.9-1.1-1.1-2.2-1.2v-.3h0ZM121.6,90.4h.3c0,0-1,3.1-1,3.1h-8.8v-.3c1.2,0,1.7-.3,1.6-1.7v-7.3c0-1.4-.4-1.8-1.6-1.7v-.3h5.1v.3c-1.5,0-2,.3-1.9,1.9v7.1c0,1.3.3,1.3,1.7,1.3h.8c2.1,0,2.9-.5,3.7-2.4h0ZM127.5,93.2v.3h-4.9v-.3c1.2,0,1.7-.3,1.6-1.7v-7.3c.1-1.3-.5-1.8-1.6-1.7v-.3h4.9v.3c-1.2,0-1.7.3-1.6,1.7v7.3c-.2,1.3.5,1.8,1.6,1.7h0ZM131.5,82.9v4.4h2.1c1.1,0,1.3-.4,1.5-1.5h.3v3.8h-.3c0-1.1-.4-1.6-1.5-1.6h-2.1v3.5c-.2,1.3.5,1.8,1.6,1.7v.3h-4.9v-.3c1.2,0,1.7-.3,1.6-1.7v-7.3c.1-1.3-.5-1.8-1.6-1.7v-.3h8.4v2.5c.1,0-.2,0-.2,0-.4-1.4-1-1.9-2.5-1.9h-2.5ZM141.1,82.9v4.5h2.5c1.3,0,1.7-.3,1.8-1.6h.3v3.9h-.3c-.1-1.3-.5-1.7-1.8-1.7h-2.5v3.7c0,1,0,1.3.9,1.3h1.9c1.8.1,2.5-.6,3.3-2.2h.3l-1,2.8h-8.8v-.3c1.1,0,1.8-.3,1.6-1.7v-7.3c0-1.5-.4-1.7-1.6-1.7v-.3h8.8v2.5c.1,0-.2,0-.2,0-.3-1.5-.7-1.9-2.2-1.9h-3.2ZM163.2,82v3.9h-.3c0-2.3-2.7-4.2-4.6-2.7-.7.6-.8,1.5-.2,2.1.9,1.2,4.8,2.4,5.5,4,1.3,2.6-1.6,5-4.2,4.4-.2,0-1.9-.6-2.1-.6-.4,0-.4.2-.5.6h-.3v-3.9h.3c.3,1.4.5,2.1,1.7,2.8,2.4,1.4,5.6-.9,3-3.1-1.1-.8-4.2-2.1-4.8-3.4-1.4-3.1,2.2-5.2,4.9-3.8.7.3,1.1.3,1.2-.5h.3ZM174.8,82.2v2.6c.1,0-.2,0-.2,0-.1-1.3-.8-2-2.1-1.9h-1.6v8.6c0,1.4.4,1.7,1.6,1.7v.3h-4.8v-.3c1.2,0,1.7-.3,1.6-1.7v-8.6c-1.6,0-3.6-.2-3.6,1.9h-.3v-2.6h9.4ZM181.9,89.8h-4.4l-.8,1.8c-.6,1.1-.3,1.7,1,1.7v.3h-3.6v-.3c1.3-.2,1.2-.6,1.9-1.9l4-9.3h.3l4,9.4c.6,1.2.7,1.7,1.9,1.9v.3h-4.5v-.3c1.3,0,1.3-.7.8-1.8l-.7-1.6h0ZM181.6,89.1l-1.9-4.6-2,4.6h3.9Z"/>
  <path class="st2" d="M21.6,155.8c13.5-4.8,4.6-7.8,9.1,4.1,2.3,6-3.9,11.4-9.5,8.9s-6.7-10.5.4-12.9ZM75.7,132.8c10.8,10.9,4,21.2,14.1,22.6s12.3-15.1-11.7-24.7-10.9-17.3-17.1-21.8-13.5,3.1-7.6,9.5,12,3.9,22.3,14.4Z"/>
  <path class="st0" d="M23.9,41c-.6,7.4-2.1,15.2-4.1,19.9l1.2.7c4.7-4.7,8.4-12.7,9.4-19.1l-6.4-1.4ZM40.9,26.4l-.7.4c1,1.4,2,3.2,2.7,5.2-3.8.1-7.7.2-11.1.3,5.8-6.1,11.7-13.4,15.4-18.8l-6.6-4.7c-2.7,6.8-7.3,16.2-11.4,23.6-3.5,0-6.4,0-8.3,0l2.3,6.5c3.1-.7,6.8-1.6,9.6-2.3v32.1c2.9.4,7.6-1.4,7.2-2v-32l3.5-1c.5,1.8.8,3.4.9,5,6.3,6.1,12.8-7.2-3.5-12.3ZM31.7.2c-1.2,4.8-2.7,10.3-4.1,14.2-1.6-.7-3.5-1.4-6.1-1.9l-.5.6c2.6,2.4,5.1,6.6,5.6,10.1,5.3,4.5,9.2-4.5,3-7.7,3.1-3,6.4-6.9,9.1-10.7M51.2,53.4c0-3-2.2-7.1-9.1-10.7l-.8.4c1.9,3.5,3.3,9.1,3.2,13.3,2.5,3.4,6.7,1.3,6.7-2.9ZM90,35v-1.3h-38.2c0-.1.4,1.3.4,1.3M83.1,9.7c1.7-.2,2.4-.6,3-1.2l-7.9-6.9-3.7,4.7h-23.7l.4,1.5h8c-.4,16.4-1.8,35.7-3.8,56.6h-9.1l.4,1.5h43.1v-1.5h-8M73.9,64.3h-10.5c1.8-20.3,3.1-39.4,3.7-56.6h8.3M128.1,42.9c2.1,3.6,3.9,9.3,3.8,13.6,8,6.5,11.9-8.6-2.9-14l-.8.4ZM112.5,23.7c5.3,4.5,9.2-4.4,3.3-7.7,3.3-3.1,6.7-7.1,9.6-10.9L118.2.2c-1.3,5-3,10.5-4.4,14.6-1.7-.8-4-1.6-6.8-2.1l-.5.5c2.7,2.5,5.4,7,6.1,10.5ZM111,42.4c-.7,7.3-2.5,15.2-4.4,19.8l1.1.5c4.3-4.1,8.4-11.5,10.2-18.6l-6.9-1.7ZM167.7,10.8l-3.6,4.5h-15.6c1.9-3.3,3.6-6.9,5.2-10.6l-7.8-4.5c-2.2,10.9-6.3,22.5-10.2,29.2-1.8-1.2-4.1-2.3-7.3-3.4l-.7.5c1.3,1.5,2.5,3.4,3.4,5.5-4.6.1-9,.3-12.9.4,6.7-6.7,13.1-13.7,17.4-20.1l-7.9-3.4c-3,6.9-7.8,16.3-12.1,23.6-3.8,0-6.9,0-8.9,0l1.9,6.6c3-.7,8.5-1.7,11-2.3v31.9c2.9.4,7.5-1.3,7.2-2v-31.6c1.8-.5,3.5-.9,5-1.3.6,1.7,1,3.4,1.1,5,5.7,5.3,10.2-4.6,3.8-8.5,4.1-3.5,7.8-8,11.1-13.4h17.3c-.5,24.3-1.2,39.9-4.1,42.2s-3.4.5-13.5.5v1.1c8.5,1.6,9.3,3.2,9.3,8,16.1-.7,14.3-8.8,16.1-49.9,1.6-.2,2.7-.7,3.2-1.4l-8.3-6.5h0ZM143.7,28.7l-.6.5c3.4,3.9,6.3,10.6,6.4,15.8,5.7,6.4,16.4-8.1-5.8-16.3ZM77.1,166.1v-10.8c0,0-.5,0-.5,0-2.7,6.6-1.5,11.2-6.6,11.5h-19.1c-2.5,0-2.8-.1-2.8-2.5v-33.1l-7.9-2.6v35.5c0,7.8,1.9,9.5,10.5,9.5h19.3c9.3.6,14.4-4.7,7.1-7.4h0ZM114.5,109.6l-.7.4c4.1,4.4,7.5,11.9,7.9,17.7,6.5,7.7,17.4-10.3-7.2-18.2ZM169.9,114.9l-7.8-5.9c-2.9,7.5-6.8,15.9-9.7,20.8l.9.7c5.5-3.8,11.5-9.6,16.6-15.5ZM154.1,135.2h19.3c2.1,0,3-.4,3.6-1.3l-8.7-6-4.6,5.8h-17.6v-25.9l-8.1-2.9v28.8h-30.4l.4,1.5h18.8c-.2,15.3-3.6,29.6-19.1,37.1l.6,1.1c20.9-6.8,25.9-21.5,27-38.2h10.9v28.7c0,6.7,1.4,9,7.6,9,19.7,0,11.4,4.3,22.3-20.2h-8c-5.9,15.1-6,16.2-7.2,16.2-3.5,0-6.8-.2-6.8-3.6v-30.1Z"/>
</svg>