<?xml version="1.0" encoding="UTF-8"?>
<svg id="_圖層_1" data-name="圖層_1" xmlns="http://www.w3.org/2000/svg" version="1.1" xmlns:xlink="http://www.w3.org/1999/xlink" viewBox="0 0 444 48">
  <!-- Generator: Adobe Illustrator 29.3.1, SVG Export Plug-In . SVG Version: 2.1.0 Build 151)  -->
  <defs>
    <style>
      .st0 {
        fill: url(#_未命名漸層_26);
      }

      .st1 {
        fill: #211613;
      }
    </style>
    <linearGradient id="_未命名漸層_26" data-name="未命名漸層 26" x1="7.7" y1="6.4" x2="40.2" y2="41.3" gradientUnits="userSpaceOnUse">
      <stop offset="0" stop-color="#ab6b24"/>
      <stop offset=".5" stop-color="#f8c058"/>
      <stop offset="1" stop-color="#804202"/>
    </linearGradient>
  </defs>
  <path class="st1" d="M295.9,7.9v-2.2l3.3.3c.6,0,.9.2.9.5s-.2.5-.6.9v.5h8.5v5.4h3.6v3.2h-3.6v5.4h-8.5v2.5h8.9v3.2h-8.9v2.6h9.9v3.3h-9.9v4.5c2.2,0,4.6.1,7.3.1s2.8,0,4.8-.2l-1.8,4c-7.2,0-12.7-.2-16.5-.7-3.1-.3-5.7-.9-7.7-1.6-1.5-.5-2.9-1.2-4-1.9-1.3,1.8-3,3.4-5,4.6l-2.7-2.9c1.9-1,3.5-2.3,4.7-4-1.3-1.3-2.6-3.3-4.1-6l2.9-1.1c1.1,1.7,2.1,3,3,4,1-2.2,1.6-5.4,1.9-9.4h-3.3l-1.3,2.7-3.2-1.1,6.3-13.1h-6.1v-3.3h6.9l1-.3c.3,0,.6.1.9.3l2,1.2c.2.2.4.4.4.5,0,.4-.3.7-1,1.1l-4.3,8.6h5.2c-.2,6.5-1,11.4-2.3,14.5,0,.2-.2.5-.3.6,1.8,1.2,3.8,1.9,6.1,2.3,1.4.4,3.6.6,6.4.8v-4.3h-9.9v-3.3h9.9v-2.6h-8.6v-3.2h8.6v-2.5h-7.7v-3.2h7.7v-2.2h-11v-3.2h11v-2.2h-7.7v-3.2h7.7ZM299.6,13.3h5v-2.2h-5v2.2ZM299.6,18.8h5v-2.2h-5v2.2ZM332.7,8.7h8.6c.2-.2.4-.4.6-.7.6-.7,1.1-1.6,1.5-2.5l3,.9c.3,0,.5.2.5.5s-.2.6-.7.9c-.2.4-.5.7-.7.9h8.2v2.9h-15.2v1.8h12v2.7h-12v1.8h16.6v2.9h-19.8l1.7,1.8c.1.2.2.3.2.5s-.1.2-.3.2l-.8-.2c-.3,0-.7,0-1.2.1-1,.2-1.9.4-2.8.6v3h8c-.2-1.6-.3-3.5-.3-5.4l3.6.3c.6.1.9.3.9.7s-.4.8-1.1,1.3c0,1.2.1,2.2.2,3.2h11.7v2.9h-11.3c.2,1.1.4,2.1.7,2.9.2.7.5,1.2.7,1.7,1.3-1.2,2.6-2.5,3.8-4l2.6,1.5c.2.2.4.4.4.6s-.3.3-.8.3c-1.6,1.8-3,3.2-4.3,4.3.2.2.4.5.6.7,1,.8,1.8,1.2,2.6,1.2s1-.2,1.3-.5c.4-.4.7-1.3,1.1-2.5l3,2.2c-.7,1.7-1.3,2.8-2,3.3-.9.7-1.9,1.2-3.2,1.2s-2.6-.6-4-1.7c-.7-.6-1.4-1.2-2-1.9-.7.4-1.3.8-1.8,1.1-1.6.8-3.6,1.6-6.1,2.5l-2.2-2.7c2.7-.7,5-1.4,6.6-2.3.6-.3,1.2-.7,1.8-1.1-.6-1-1-2.2-1.4-3.4-.3-1-.5-2-.7-3.2h-8.4v2.9c1.8-.4,3.6-.9,5.3-1.3v2.7c-1.4.5-3.2.9-5.3,1.5v3.6c0,1.3-.5,2.2-1.3,2.9-.7.6-2.5.9-5.3.9l-1.3-3.3h2.9c1,0,1.5-.4,1.6-1.1v-2.1c-2.2.6-4.7,1.2-7.5,1.8-.3.3-.6.5-.8.5s-.4-.2-.4-.5l-.7-3.1c3.2-.4,6.3-.9,9.4-1.6v-3.7h-10.4v-2.9h10.4v-2.4c-2.1.3-4.3.6-6.4.8l-1.9-2.6c2.9,0,5.4-.3,7.6-.7,1.6-.2,3.5-.6,5.8-1.1h-15.4v-2.9h16.6v-1.8h-12.5v-2.7h12.5v-1.8h-15.3v-2.9h9.1c-.7-.9-1.4-1.8-2.2-2.5l3.3-.7c1.2,1.2,2.1,2.2,2.7,3.2h0ZM351.8,24.3l-2.2,1.9c-1.4-1.3-2.8-2.4-4.2-3.2l2.1-1.9c1.5.9,2.9,2,4.3,3.2h0ZM383.8,7.9v-2.2l3.3.3c.6,0,.9.2.9.5s-.2.5-.6.9v.5h8.5v5.4h3.6v3.2h-3.6v5.4h-8.5v2.5h8.9v3.2h-8.9v2.6h9.9v3.3h-9.9v4.5c2.2,0,4.6.1,7.3.1s2.8,0,4.8-.2l-1.8,4c-7.2,0-12.7-.2-16.5-.7-3.2-.3-5.7-.9-7.7-1.6-1.5-.5-2.9-1.2-4-1.9-1.3,1.8-3,3.4-5,4.6l-2.7-2.9c1.9-1,3.5-2.3,4.7-4-1.3-1.3-2.6-3.3-4.1-6l2.9-1.1c1.1,1.7,2.1,3,3,4,1-2.2,1.6-5.4,1.9-9.4h-3.3l-1.3,2.7-3.2-1.1,6.3-13.1h-6.1v-3.3h6.9l1-.3c.3,0,.6.1.9.3l2,1.2c.2.2.4.4.4.5,0,.4-.3.7-1,1.1l-4.3,8.6h5.2c-.2,6.5-1,11.4-2.3,14.5,0,.2-.2.5-.3.6,1.8,1.2,3.8,1.9,6,2.3,1.4.4,3.6.6,6.5.8v-4.3h-9.9v-3.3h9.9v-2.6h-8.6v-3.2h8.6v-2.5h-7.7v-3.2h7.7v-2.2h-11v-3.2h11v-2.2h-7.7v-3.2h7.7ZM387.5,13.3h5v-2.2h-5v2.2ZM387.5,18.8h5v-2.2h-5v2.2ZM421.2,11.7v3.2h-14.7v-3.2h14.7ZM420.4,29v12.9h-3.3v-1.9h-6.2v2.2h-3.3v-13.2h12.9,0ZM419.6,17.6v3h-11.7v-3h11.7ZM419.6,23.1v3h-11.7v-3h11.7ZM419.4,6.3v3h-11.4v-3h11.4ZM417,37v-5h-6.2v5h6.2ZM436.5,6.5v8.8c0,1.2.2,1.8.5,1.8h2.1c.2,0,.4-.1.6-.4.2-.3.4-1.6.6-3.8l3.3,1.1c-.6,2.8-1.2,4.5-1.9,5.2-.7.7-1.8,1.1-3.2,1.1h-1.8c-2.5,0-3.7-1.4-3.7-4.2v-6.5h-4.9c-.2,2.9-.5,5.1-1.1,6.5-.7,1.7-2,3.4-3.8,5.1l-2.7-2.2c1.6-1.4,2.7-2.8,3.3-4.1.6-1.1.9-3.8.9-8.3h11.8ZM436.8,22.7c.4-.3.7-.5.8-.5.2,0,.5.2.8.4l1.9,1.8c.2.2.4.5.4.7s-.4.6-1.1.9c-1.6,4.5-3.3,7.7-5.1,9.8,2.2,1.2,5.2,2.1,9,2.9l-2.2,3.5c-3.9-1.1-7.1-2.3-9.5-3.9-2.2,1.6-5,2.8-8.4,3.9l-2.4-3.2c2.4-.5,4.4-1.2,5.8-1.8.7-.3,1.4-.7,2-1.1-1.9-1.8-3.8-4.3-5.8-7.4l2.5-1.6c1.9,3,3.9,5.3,5.9,6.9.3-.3.6-.7.8-1,1.2-1.6,2.4-3.9,3.4-7h-12.1v-3.2h13.3ZM76.9,6.6h-17.4v2.5h17.4v-2.5ZM60.8,11h15.3v5c0,.1,0,.2.2.2l2.3-.3.5,1.2.5,1.3s0,.1.2.1h16v2.4h-11.3c-.1,0-.2,0-.2.2v2.3c0,0,0,.2.2.2h9.1v7.5h-9.5c0,0-.2,0-.2.2v3.5c0,.1.1.2.2.2l3.5-.7c2.3-.5,4.2-1,5.9-1.7l1.1,2.2c-2.5.9-4.6,1.5-6.3,1.8l-4.3.9c0,0-.1,0-.1.2v.9c0,.4,0,.8.3,1,.2.2.6.3,1,.3h5.8c.4,0,.8,0,1-.2.3-.2.5-.4.5-.8.1-.5.2-1.4.3-2.5l2.9.8c-.2,1.3-.3,2.3-.5,3-.1.4-.2.7-.3.9-.1.2-.2.4-.4.5-.3.2-.6.4-1.2.5-.5.1-1.1.2-1.9.2h-7.1c-.7,0-1.3,0-1.8-.2-.5-.1-.8-.3-1-.6-.2-.3-.4-.6-.5-1.1-.1-.5-.2-1-.2-1.7v-7.5c0,0,0-.2-.2-.2h-9.8c0,0-.2,0-.2.2v2.4c0,0,0,.2.2.2h7.7v2.2h-7.7c0,0-.2,0-.2.2v2.8c0,.1,0,.2.2.2l4.2-.4c1.5-.2,2.8-.3,3.9-.6v2.5c-4.4,1-9,1.6-13.8,1.8l-.5-2.9h1.3s1.7-.1,1.7-.1c0,0,.2,0,.2-.2v-8.1c0,0,0-.2-.2-.2h-3c0,0-.2,0-.2.2-.3,4.1-1.2,7.9-2.8,11.6l-3-2.1c1.8-3.8,2.6-8.7,2.6-14.9v-7.3h15.1c.1,0,.2-.1.2-.2l-.2-.6-.3-.6s0-.1-.2-.1h-2.7v-3.8c0,0,0-.2-.2-.2h-3.7c-.1,0-.2.1-.2.3l.6,1.4.5,1.4-2.5.6c-.1-.6-.3-1.2-.5-1.6l-.7-1.8s0-.1-.2-.1h-2.5c0,0-.2,0-.2.2v3.8h-2.9v-6h0ZM81.3,21.1c0,0,0-.2-.2-.2h-6.5c0,0-.2,0-.2.2v2.3c0,0,0,.2.2.2h6.5c0,0,.2,0,.2-.2v-2.3ZM71.6,21.1c0,0,0-.2-.2-.2h-6.7c0,0-.2,0-.2.2v2.3c0,0,0,.2.2.2h6.7c.1,0,.2,0,.2-.2v-2.3ZM90.8,26c0,0,0-.2-.2-.2h-6.1c-.1,0-.2,0-.2.2v2.6c0,.1,0,.2.2.2h6.1c0,0,.2,0,.2-.2v-2.6ZM81.3,26c0,0,0-.2-.2-.2h-6.5c0,0-.2,0-.2.2v2.6c0,.1,0,.2.2.2h6.5c0,0,.2,0,.2-.2v-2.6ZM71.6,26c0,0,0-.2-.2-.2h-6.7c0,0-.2,0-.2.2v2.6c0,.1,0,.2.2.2h6.7c.1,0,.2,0,.2-.2v-2.6ZM95.7,6.6h-16.9v2.5h16.9v-2.5ZM79.7,11h15v6h-2.9v-3.8c0,0,0-.2-.2-.2h-3.6c-.1,0-.2.1-.2.2l.6,1.3c.1.3.3.6.4,1,0,.1,0,.2.1.4l-2.5.6-.5-1.6-.7-1.8s0-.1-.2-.1h-2.4c-.1,0-.2,0-.2.2v3.8h-2.9v-6h0ZM115.5,6.3l3.5-.4.8,1.1.7,1.1s0,0,.2,0h15.3v5.2h-1.8c-.1,0-.2,0-.2.2v.7h-5.9c0,0-.2,0-.2.2v1.8c0,.1,0,.2.2.2h7.8v1.8h-7.8c0,0-.2,0-.2.2v2.2c0,0,0,.2.2.2h3.7c0,0,.2,0,.2-.2v-1.2h2.5v3.1h-16.2v-3.1h2.5v1.2c0,0,0,.2.2.2h3.9c.1,0,.2,0,.2-.2v-2.2c0-.1,0-.2-.2-.2h-7.9v-1.8h1.9c.2,0,.2-.2,0-.3l-2-1.3c1.7-1.1,3-2.4,3.8-4,0-.1,0-.3-.2-.3h-16.4c-.1,0-.2,0-.2.2v1.6c0,0,0,.2.2.2h12.1v1.9h-5.7c0,0-.2,0-.2.2v1.7c0,0,0,.2.2.2h4.8v1.8h-4.8c0,0-.2,0-.2.2v1.7c0,.1,0,.2.2.2l2.8-.2,2.8-.2v2c-2.5.3-4.9.5-7.3.5s-4.8,0-8,.2l-.3-2.2h3.4s3.5,0,3.5,0c0,0,.2,0,.2-.2v-1.8c0,0,0-.2-.2-.2h-5.3v-1.8h5.3c0,0,.2,0,.2-.2v-1.7c0,0,0-.2-.2-.2h-4.9v-.9c0-.1,0-.2-.2-.2h-1.8v-5.2h15.8c.1,0,.2-.2.2-.3l-.5-.8-.6-.8ZM132.6,10.6c0,0,0-.2-.2-.2h-8.8s-.1,0-.2,0l-1,1.7c0,.1,0,.3.2.3h9.8c0,0,.2,0,.2-.2v-1.7ZM125.1,14.3c0,0,0-.2-.2-.2h-3.7s0,0-.1,0l-.8.8-1,.9c-.1.1,0,.3.1.3h5.5c.1,0,.2,0,.2-.2v-1.8h0ZM104.3,23.9h28.4v13.7h-28.4v-13.7ZM129.4,26.1c0,0,0-.2-.2-.2h-21.5c0,0-.2,0-.2.2v1.6c0,.1,0,.2.2.2h21.5c0,0,.2,0,.2-.2v-1.6ZM129.4,29.8c0-.1,0-.2-.2-.2h-21.5c-.1,0-.2,0-.2.2v1.7c0,0,0,.2.2.2h21.5c0,0,.2,0,.2-.2v-1.7ZM129.4,33.5c0-.1,0-.2-.2-.2h-21.5c-.1,0-.2,0-.2.2v1.8c0,.1,0,.2.2.2h21.5c0,0,.2,0,.2-.2v-1.8ZM122.3,40.4l1-2.3c.9.1,1.6.2,2.1.2,4.2.5,7.8,1,10.8,1.6l-1,2.9c-2.1-.5-4.2-.9-6.3-1.3l-6.6-1.1h0ZM100.3,39.9c5.4-.4,9.6-.9,12.6-1.7l1.2,2.4c-.4,0-.7.2-.9.2-3.5.9-6.8,1.5-10,1.8l-1.9.2-1-2.9ZM140.7,16.9c3.3-3.2,5.9-6.9,7.8-11.1l3.5.6c-.4,1.1-.9,2-1.4,2.8,0,0,0,.1-.2.3,0,.1,0,.3.2.3h8.1c.1,0,.2-.1.2-.3l-.7-1.4c-.4-.7-.6-1.3-.8-1.7l3.3-.6,1,1.9.8,2s0,.1.2.1h12.9v2.6h-13c0,0-.2,0-.2.2v2c0,0,0,.2.2.2h11.4v2.4h-11.4c0,0-.2,0-.2.2v2.3c0,0,0,.2.2.2h11.4v2.4h-11.4c0,0-.2,0-.2.2v2.4c0,0,0,.2.2.2h13.6v2.8h-14.9c-.1,0-.2,0-.2.2v2c0,0,0,.2.2.2h15.9v2.9h-11.9c-.2,0-.2.2-.1.3,3.2,2.1,7.3,3.7,12.4,4.7l-1.6,3.3c-6.6-1.8-11.4-4.6-14.6-8.2-.1-.1-.3,0-.3.1v9.5h-3.4v-9.5c0-.2-.2-.2-.3-.1-2,2-4.1,3.6-6.3,4.8-2.2,1.2-5.1,2.3-8.6,3.4l-1.7-3c5.4-1.1,9.7-2.8,12.8-5,.1-.1,0-.3-.1-.3h-12.1v-2.9h16.2c0,0,.2,0,.2-.2v-2c0,0,0-.2-.2-.2h-12.1v-10.4c0-.2-.2-.2-.3-.1l-1.1,1.5c-.3.5-.7.9-1.1,1.3h0c0,0-2-3.3-2-3.3h0ZM159.2,12.7c0,0,0-.2-.2-.2h-10.1c-.1,0-.2,0-.2.2v2c0,0,0,.2.2.2h10.1c.1,0,.2,0,.2-.2v-2ZM159.2,17.5c0,0,0-.2-.2-.2h-10.1c-.1,0-.2,0-.2.2v2.3c0,0,0,.2.2.2h10.1c.1,0,.2,0,.2-.2v-2.3ZM159.2,22.5c0,0,0-.2-.2-.2h-10.1c-.1,0-.2,0-.2.2v2.4c0,0,0,.2.2.2h10.1c.1,0,.2,0,.2-.2v-2.4ZM182.8,6.8h34.9v36.1h-3.1v-1.5c0-.1,0-.2-.2-.2h-28.3c-.1,0-.2,0-.2.2v1.5h-3.1V6.8h0ZM208.6,17.4c0,0,0-.2-.2-.2h-7c-.1,0-.2,0-.2.2v1.7c0,0,0,.2.2.2h7c.1,0,.2,0,.2-.2v-1.7ZM198.4,17.4c0,0,0-.2-.2-.2h-6.4c-.1,0-.2,0-.2.2v1.7c0,0,0,.2.2.2h6.4c0,0,.2,0,.2-.2v-1.7ZM208.6,20.9c0,0,0-.2-.2-.2h-7c-.1,0-.2,0-.2.2v1.7c0,.1,0,.2.2.2h7c.1,0,.2,0,.2-.2v-1.7ZM198.4,20.9c0,0,0-.2-.2-.2h-6.4c-.1,0-.2,0-.2.2v1.7c0,.1,0,.2.2.2h6.4c0,0,.2,0,.2-.2v-1.7ZM206.4,24.7s0,0-.1,0h-4.9c-.1,0-.2,0-.2.2v1.4c0,.1,0,.2.2.2h3.4s2.5-.1,2.5-.1c.2,0,.2-.2.1-.3l-1-1.3ZM214.5,9.6c0-.1,0-.2-.2-.2h-12.9c-.1,0-.2,0-.2.2v1.5c0,0,0,.2.2.2h11.5v2.3h-11.5c-.1,0-.2,0-.2.2v1.3c0,.1,0,.2.2.2h10v9.3h-1.7c-.2,0-.2.2-.1.3l1.3,1.4,1.5,1.8-2.3,1.5-1-1.3s0,0-.1,0h-.7c0,0-.2,0-.2.2v1.9c0,0,0,.2.2.2h4.7v2.2h-4.7c0,0-.2,0-.2.2v1.5c0,1-.2,1.7-.6,2.1-.2.2-.5.4-1,.5-.5.1-1.1.2-1.8.2h-4.3l-.7-2.3,3.9.2c.5,0,.9-.1,1.2-.3.3-.2.4-.6.4-1v-.8c0-.1,0-.2-.2-.2h-17.2v-2.2h17.2c.1,0,.2,0,.2-.2v-1.6c0-.1,0-.2-.2-.2l-7.6.3-8.8.2-.5-2.5h5c0,0,5.2,0,5.2,0,0,0,.2,0,.2-.2v-1.4c0,0,0-.2-.2-.2h-9.4v-9.3h9.4c.1,0,.2,0,.2-.2v-1.3c0-.1,0-.2-.2-.2h-10.6v-2.3h10.6c.1,0,.2,0,.2-.2v-1.5c0-.1,0-.2-.2-.2h-12.2c-.1,0-.2,0-.2.2v28.8c0,0,0,.2.2.2h28.3c.1,0,.2,0,.2-.2V9.6h0ZM192,34.1l2.3-1.1,1.2,1.1c.3.3.7.8,1.2,1.4,0,0,0,.1.2.2l-2.4,1.4-1.2-1.6c-.4-.5-.8-1-1.2-1.4h0c0,0,0,0,0,0ZM236.2,15.5l-.9,1.2,23,18,.9-1.2-23-18ZM258.2,14.8l-22.2,18.7,1,1.2,22.2-18.7-1-1.2Z"/>
  <path class="st0" d="M11.6,36.2h11.6v-11.6h-11.6v11.6ZM24.6,36.2h11.6v-11.6h-11.6v11.6ZM11.6,23.1h11.6v-11.6h-11.6v11.6ZM24.6,23.1h11.6v-11.6h-11.6v11.6ZM6,23.8C6,14,14,5.9,23.9,5.9s17.9,8,17.9,17.9-8,17.9-17.9,17.9S6,33.7,6,23.8ZM0,23.8c0,13.2,10.7,23.9,23.9,23.9s23.9-10.7,23.9-23.9S37.1,0,23.9,0,0,10.7,0,23.8Z"/>
</svg>