<?xml version="1.0" encoding="UTF-8"?>
<svg id="_圖層_1" data-name="圖層_1" xmlns="http://www.w3.org/2000/svg" version="1.1" viewBox="0 0 191 37">
  <!-- Generator: Adobe Illustrator 30.0.0, SVG Export Plug-In . SVG Version: 2.1.1 Build 123)  -->
  <path d="M28.6,28.2h.2C19.8,41.5-3.5,40.4.4,18.4,2.2,8.2,9.3,0,20,0s15.2,10.5,8.9,13.2c0-7.8-3-12.9-9-12.9S6.5,8.2,4.7,18.4c-3.5,20,15.5,22.1,23.9,9.8h0ZM56.6,33.2h.1c-.8,4.5-8.1,5.4-7.1-.3-2,1.5-5.5,3.9-9,3.9s-8.1-1.3-7.3-5.6c.9-5.3,6-6.8,12.3-9.4,2.6-1,6.3-2.5,7-5.7.6-3.6-.7-5.9-4-5.9s-6.9,3.7-8.9,7.6c-1.8-1-2.2-7.9,8.9-7.9,6.2,0,7.8,3.8,7.4,6.5l-3.1,17.3c-.7,4.2,3.4,1.7,3.7-.5h0ZM36.8,30.9c-.7,3.3,1.3,5.5,4.6,5.5s5.8-2,8.4-3.8l2.7-15.5c-2.4,5.4-13.6,4.3-15.7,13.8ZM79.8,29.6c-.9,5.1-6.6,7.2-11.2,7.2s-6.7-1-8.3-2.7c-1.4-1.5-1.4-4,1.1-6.1.5,4.3,2.7,8.7,7.1,8.7s6.9-2,7.6-5.8c1.4-8-13.9-6.9-12.5-14.9s5.5-6,9.3-6c7,0,8.4,3.5,5.5,5.7-.3-2.6-1.4-5.5-5.5-5.5s-6.3,2.1-6.8,4.5c-.4,2.4.7,3.4,5,5.5,4.5,2.2,9.4,4.4,8.5,9.5ZM110.2,9.9h4.3,0c0,.1-.7.1-.7.1-2.2,0-3.6.2-4,2.4l-3.5,20.1c-.3,1.8,0,2.4,3.1.9h0c0,.1-7.3,3.4-7.3,3.4l1.1-6.1s-5.7,6.1-10.9,6.1-6.7-2.8-6-6.5l3.1-17.8c.4-2.2-.9-2.4-3.1-2.4h-.7,0c0-.1,11.9-.1,11.9-.1h0c0,.1-.7.1-.7.1-2.2,0-3.6.2-4,2.4l-3.2,17.9c-.5,2.7-1.1,6.1,3.5,6.1s10.1-6,10.1-6l3.2-17.9c.4-2.2-.9-2.4-3.1-2.4h-.7,0c0-.1,7.7-.1,7.7-.1h0ZM136.3,33.2h.1c-.8,4.5-8.1,5.4-7.1-.3-2,1.5-5.5,3.9-9,3.9s-8.1-1.3-7.3-5.6c1.7-9.4,17.4-7.8,19.3-15.1.6-3.6-.7-5.9-4-5.9s-6.9,3.7-8.9,7.6c-1.8-1-2.2-7.9,8.9-7.9,6.2,0,7.8,3.8,7.4,6.5l-3.1,17.3c-.3,1.6,0,2.3,1.1,2.3s2.4-1.4,2.6-2.8h0ZM125,22.1h0c-4.4,1.7-7.9,4.9-8.6,8.8-.6,3.4,1.3,5.5,4.6,5.5s5.8-2,8.4-3.8l2.7-15.5c-1.3,2.7-4.6,4-7.1,5h0ZM150.8,0l-6.1,34.3c-.4,2.2.9,2.4,3.1,2.4h0s.7,0,.7,0h0c0,.1-11.9.1-11.9.1h0c0-.1.7-.1.7-.1,2.2,0,3.6-.2,4-2.4l5.3-29.9c.3-1.8,0-2.4-3.1-.9h0c0-.1,7.3-3.4,7.3-3.4ZM162.9,34.2h.3,0c0,0-5.7,0-5.7,0h0c0,0,.3,0,.3,0,1.1,0,1.7-.1,1.9-1.2l2.5-14.4c.1-.8,0-1.2-1.5-.4h0c0,0,3.5-1.6,3.5-1.6l-2.9,16.5c-.2,1,.4,1.2,1.5,1.1h0ZM169.5,34.2h0c0,0-5.7,0-5.7,0h0c0,0,.3,0,.3,0,1.1,0,1.7-.1,1.9-1.2l1.7-9.6c.2-.8,0-1.2-1.5-.4h0c0,0,3.5-1.6,3.5-1.6l-2,11.5c-.2,1.3.5,1.4,1.8,1.4h0ZM170.5,18.3c-.2,1-2.3,1.6-2,0s2.3-1.6,2,0ZM173.8,33.1c-.2,1,.4,1.2,1.5,1.2h.3,0c0,0-5.7,0-5.7,0h0c0,0,.3,0,.3,0,1.1,0,1.7-.1,1.9-1.2l2.2-12.2c1.2-6.8,9.9-4.2,6.3-1.5,0-1.5-.5-2.7-1.8-2.7s-2.3.6-2.8,3.4M172.5,21.5h0c0,0,6.8,0,6.8,0h0M184.7,27.2c-3.3.8-4.2,2.9-3.6,4.3,1.5,3.6,7,3.2,9.1-1.8h0,.1c-2.8,6.7-12.6,5.9-11.1-1.9s11.1-8.3,11.8-2.2l-6.3,1.6ZM180.9,30.9c0-.5,0-1.1.4-1.5.6-1,1.8-1.8,3.4-2.2,1.4-.3,3.3-.8,4.6-1.1,0-6.7-7.1-5.9-8.5,1.8s-.2,2.2,0,3h0Z" fill="#c7ff69"/>
</svg>